<?xml version="1.0" standalone="no"?>
<!DOCTYPE svg PUBLIC "-//W3C//DTD SVG 20010904//EN"
 "http://www.w3.org/TR/2001/REC-SVG-20010904/DTD/svg10.dtd">
<svg version="1.0" xmlns="http://www.w3.org/2000/svg"
 width="468pt" height="468pt" viewBox="0 0 468 468"
 preserveAspectRatio="xMidYMid meet">
<metadata>
Created by potrace 1.8, written by Peter Selinger 2001-2007
</metadata>
<g transform="translate(0,468) scale(0.383607,-0.383607)"
fill="#000000" stroke="none">
<path d="M667 1083 c-2 -2 -112 -11 -200 -16 -44 -3 -73 -37 -86 -98 -16 -76
-19 -476 -4 -511 37 -83 78 -101 231 -102 138 -1 125 7 137 -86 4 -36 35 -181
51 -237 5 -18 39 -16 54 2 11 13 10 26 -3 73 -9 31 -20 77 -26 102 -5 25 -15
68 -21 95 -8 31 -11 131 -10 270 3 276 5 256 -28 293 -29 32 -55 41 -67 22 -4
-6 -62 -10 -141 -10 l-135 0 7 48 c11 75 17 82 86 98 45 11 164 12 237 3 93
-12 105 -9 89 26 -9 20 -19 25 -47 26 -20 1 -55 2 -79 3 -23 1 -44 1 -45 -1z
m47 -255 c33 -34 49 -122 28 -156 -6 -9 -50 -12 -166 -13 -87 0 -161 3 -164 5
-5 6 -3 156 3 165 2 3 67 7 144 9 108 2 144 0 155 -10z m-26 -215 l54 -6 -7
-96 c-4 -53 -9 -98 -11 -100 -2 -2 -43 -5 -92 -7 -93 -3 -147 9 -180 39 -19
18 -42 97 -42 148 l0 29 113 0 c61 0 136 -3 165 -7z"/>
</g>
</svg>
