<?xml version="1.0" encoding="UTF-8" standalone="no"?>
<!-- Created with Inkscape (http://www.inkscape.org/) -->
<svg
   xmlns:dc="http://purl.org/dc/elements/1.1/"
   xmlns:cc="http://web.resource.org/cc/"
   xmlns:rdf="http://www.w3.org/1999/02/22-rdf-syntax-ns#"
   xmlns:svg="http://www.w3.org/2000/svg"
   xmlns="http://www.w3.org/2000/svg"
   xmlns:sodipodi="http://sodipodi.sourceforge.net/DTD/sodipodi-0.dtd"
   xmlns:inkscape="http://www.inkscape.org/namespaces/inkscape"
   width="300"
   height="300"
   id="svg2"
   sodipodi:version="0.32"
   inkscape:version="0.45.1"
   version="1.0"
   sodipodi:docbase="C:\Documents and Settings\Martin\桌面"
   sodipodi:docname="土-bronze.svg"
   inkscape:output_extension="org.inkscape.output.svg.inkscape">
  <defs
     id="defs4" />
  <sodipodi:namedview
     id="base"
     pagecolor="#ffffff"
     bordercolor="#666666"
     borderopacity="1.0"
     gridtolerance="10000"
     guidetolerance="10"
     objecttolerance="10"
     inkscape:pageopacity="0.0"
     inkscape:pageshadow="2"
     inkscape:zoom="0.98994949"
     inkscape:cx="151.5992"
     inkscape:cy="168.78494"
     inkscape:document-units="px"
     inkscape:current-layer="layer1"
     width="300px"
     height="300px"
     inkscape:window-width="742"
     inkscape:window-height="577"
     inkscape:window-x="22"
     inkscape:window-y="0" />
  <metadata
     id="metadata7">
    <rdf:RDF>
      <cc:Work
         rdf:about="">
        <dc:format>image/svg+xml</dc:format>
        <dc:type
           rdf:resource="http://purl.org/dc/dcmitype/StillImage" />
      </cc:Work>
    </rdf:RDF>
  </metadata>
  <g
     inkscape:label="Layer 1"
     inkscape:groupmode="layer"
     id="layer1">
    <path
       style="fill:#000000"
       d="M 67.346441,277.56664 C 55.925368,263.51679 81.253769,257.76644 91.494321,256.7184 C 116.74006,255.56644 121.38382,252.61935 123.84825,236.18555 C 126.54332,218.21342 122.92369,210.12311 107.13378,198.8268 C 85.321191,183.22175 85.900581,161.62732 109.73154,102.00613 C 113.46343,92.669549 118.54447,78.780423 121.02276,71.141403 C 123.50104,63.502382 126.81035,54.474449 128.3768,51.07933 C 129.94328,47.684209 131.60946,39.458096 132.07946,32.799078 C 132.54947,26.140055 134.58867,20.148594 136.61103,19.484713 C 149.09765,26.275809 158.39901,75.126432 165.4809,91.203479 C 178.55184,119.62101 183.37901,133.92828 185.63579,150.94049 C 187.41292,164.33735 186.59284,168.39828 179.80874,179.79438 C 175.46632,187.08886 168.4765,196.68116 164.27578,201.11058 C 156.56729,209.2388 155.11801,214.9607 155.74089,234.80732 L 156.08254,245.69285 L 173.79302,245.42086 C 207.72527,244.89974 236.33083,252.7054 236.33083,262.48566 C 236.33083,270.56237 194.13254,276.31649 108.24221,279.95168 C 80.495921,281.12598 70.236711,280.52767 67.346441,277.56664 z "
       id="path2469"
       sodipodi:nodetypes="ccssssssccssscccssc" />
  </g>
</svg>
