<?xml version="1.0" encoding="UTF-8" standalone="no"?>
<!-- Created with Inkscape (http://www.inkscape.org/) -->
<svg
   xmlns:svg="http://www.w3.org/2000/svg"
   xmlns="http://www.w3.org/2000/svg"
   version="1.0"
   width="300"
   height="300"
   id="svg2">
  <defs
     id="defs5" />
  <path
     d="M 154.94555,280.21836 C 110.52533,279.60738 94.109791,236.68481 90.386779,206.94854 C 87.698242,185.47478 89.570166,157.17098 90.135153,136.45234 C 40.859106,126.29627 29.958291,108.11639 29.705943,77.30737 C 29.435316,44.266607 93.698378,4.6360959 102.13432,17.029943 C 112.19024,31.803818 50.946485,52.0554 50.788961,79.199659 C 50.634561,105.80553 74.020642,108.11842 91.183079,111.31919 C 91.96868,83.882789 94.653744,72.596693 107.8746,72.587533 C 117.78283,72.580806 107.88157,169.25147 111.26004,205.36792 C 112.92456,223.16196 116.30206,261.93695 154.64858,261.6206 C 203.65866,261.2191 193.14306,150.45902 192.90404,122.42148 C 192.83142,111.70619 193.49964,72.026753 198.1398,72.059426 C 215.69001,72.183002 212.05428,102.83173 212.1147,116.21483 C 222.93264,111.38612 251.7552,109.49148 250.9406,84.72755 C 249.60526,44.513529 192.1105,40.59094 197.71891,27.257837 C 208.97511,0.49806559 271.2056,48.309908 271.65032,84.334604 C 272.09504,120.3593 242.59874,128.33409 213.49019,138.76678 C 212.6848,155.29731 213.57082,185.18094 211.8648,202.03729 C 207.14762,248.64566 188.60327,280.68412 154.94555,280.21836 z M 150.37539,223.5873 C 137.68047,213.2751 140.32522,177.03699 152.5483,168.42272 C 166.57395,158.53808 164.1613,189.95516 164.1613,199.35156 C 164.1613,207.27575 158.55963,230.23544 150.37539,223.5873 z "
     style="fill:black"
     id="path1991" />
</svg>
