<?xml version="1.0" encoding="UTF-8" standalone="no"?>
<!-- Created with Inkscape (http://www.inkscape.org/) -->
<svg
   xmlns:svg="http://www.w3.org/2000/svg"
   xmlns="http://www.w3.org/2000/svg"
   version="1.0"
   width="300"
   height="300"
   id="svg2">
  <defs
     id="defs5" />
  <path
     d="M 87.119171,270.34415 C 80.52687,258.88731 125.58032,204.22512 171.64244,171.60029 C 173.38561,169.30215 175.74919,145.20679 165.05439,156.92944 C 143.48262,168.19802 95.894822,202.2609 88.467014,198.81815 C 79.284674,188.75861 98.91101,183.16076 105.43249,178.50895 C 115.10931,174.32655 123.77899,167.3233 132.6183,162.58355 C 144.28275,158.12582 154.0338,150.93781 163.14794,142.54621 C 166.23035,138.99221 166.68297,139.46131 159.49883,131.66341 C 149.76324,121.09608 153.46957,125.94417 143.98594,131.00118 C 128.53937,138.98576 112.43798,145.75849 95.414636,149.52941 C 88.258508,154.10192 69.782891,154.47189 74.692731,141.9261 C 86.719984,137.43697 99.9863,136.85231 111.84488,131.57632 C 116.8283,128.38411 140.48035,123.42222 129.63091,118.9563 C 119.29875,117.15478 107.51811,111.0315 106.8771,99.223362 C 105.39949,96.308044 107.47826,86.825871 109.25227,44.653081 C 110.05195,35.595895 114.25093,24.501468 124.76239,23.666836 C 151.94132,20.634457 179.47296,21.783698 206.69356,23.843373 C 212.86312,24.334517 228.20434,24.909365 224.45418,33.909037 C 215.02615,36.78855 172.15228,29.7324 173.82359,37.003739 C 173.82359,41.598867 173.82359,46.193995 173.82359,50.789124 C 191.81564,51.724464 200.34652,50.162365 213.3829,52.473751 C 224.6007,54.953888 222.72727,61.145319 209.59651,61.671069 C 198.18789,62.426784 185.81178,59.545608 173.20866,61.020099 C 172.62681,69.611129 172.57308,77.05401 173.23885,77.636316 C 174.56601,78.797105 215.00415,79.95781 222.33278,81.992941 C 229.50614,91.244649 208.15254,89.03089 202.92157,89.841148 C 192.4547,89.980171 181.9862,89.927753 171.51855,89.9748 C 168.66055,98.82393 165.46793,107.66318 161.84039,116.12974 C 170.34475,126.41296 172.61758,126.87417 181.46887,138.15949 C 185.01811,144.00899 183.254,158.85146 193.94089,151.11323 C 201.19056,148.06973 211.323,134.02276 217.58384,145.03521 C 223.7935,160.93144 222.6378,178.52439 223.41348,195.30119 C 223.12399,209.45555 224.6411,223.90098 221.65658,237.82423 C 219.84354,244.9473 211.16264,246.13682 212.83094,237.40341 C 210.27259,213.10362 210.10954,188.63864 209.18754,164.25764 C 208.09498,149.72433 194.68017,168.82772 189.10967,171.74582 C 182.4462,180.23989 184.73444,176.27247 183.6871,202.86728 C 182.46056,223.1784 183.22153,243.79026 179.18335,263.81172 C 179.08887,270.84417 168.33885,276.9186 169.47502,266.01612 C 168.4536,240.79368 169.99213,215.52228 171.85824,190.40045 C 175.04684,177.7169 159.93525,197.02684 155.56501,198.97782 C 143.60315,203.24771 116.22102,236.28879 102.63677,257.90412 C 97.02927,266.82681 91.133402,273.10768 87.119171,270.34415 z M 148.21173,108.99138 C 156.24337,100.47195 157.28752,90.755767 155.75314,89.158084 C 154.34176,87.688476 117.898,85.134732 117.48198,86.147172 C 107.8581,109.56824 134.27296,113.06543 148.21173,108.99138 L 148.21173,108.99138 z M 156.63803,79.602439 C 158.34564,78.092314 159.255,61.960318 158.52193,61.270701 C 157.29479,60.116289 152.84653,60.296315 148.5597,60.762961 C 138.98795,60.306601 132.55036,60.237198 120.48407,59.006632 C 120.29736,65.305584 117.58919,75.744718 121.7806,77.408381 C 135.11625,78.883624 155.30325,80.782849 156.63803,79.602439 z M 160.10851,50.973321 C 161.77476,36.976949 159.00949,33.824754 148.26587,33.775331 C 126.80109,32.372681 123.89875,32.858914 123.01951,46.111669 C 120.02253,53.800453 157.83508,51.991541 160.10851,50.973321 z "
     style="fill:black;fill-opacity:1"
     id="path3659" />
</svg>
