<?xml version="1.0" encoding="UTF-8" standalone="no"?>
<!-- Created with Inkscape (http://www.inkscape.org/) -->
<svg
   xmlns:svg="http://www.w3.org/2000/svg"
   xmlns="http://www.w3.org/2000/svg"
   version="1.0"
   width="300"
   height="300"
   id="svg2">
  <defs
     id="defs5" />
  <path
     d="M 156.95118,256.37411 C 157.23416,244.9516 167.45178,236.82389 174.21756,228.46557 C 192.95235,205.78925 215.64605,181.76446 226.29004,154.25613 C 228.85871,146.96274 229.80292,139.06397 224.37561,130.47022 C 208.22012,125.22024 190.36246,132.84103 174.43836,138.82263 C 155.91118,148.36744 144.74329,166.99761 130.06942,181.1212 C 108.78011,202.5078 87.175243,224.02174 62.301781,241.2596 C 55.786072,247.75224 31.19084,246.15812 40.097921,234.07211 C 69.836084,203.27295 106.51297,178.80451 130.80014,142.96371 C 142.01604,128.36005 118.26942,133.0523 109.92629,133.43464 C 97.685045,133.88355 82.623755,138.99291 72.660703,129.24009 C 62.373977,118.69333 62.132903,102.5846 61.763695,88.712325 C 61.332093,79.170297 58.130388,62.122876 86.746903,44.399152 C 93.310178,40.334168 189.23144,38.775087 229.79813,39.602702 C 240.18184,39.174573 256.51225,41.844414 254.31505,55.895896 C 248.16684,65.746512 234.19314,63.532749 224.03208,64.374036 C 184.04859,63.62026 143.83029,59.94665 103.9569,64.589255 C 91.12006,64.118786 85.712228,76.010409 87.841018,87.25262 C 87.765809,96.798767 87.147705,112.79427 101.39557,108.18724 C 141.14538,107.86223 180.86359,100.76544 220.59021,104.87782 C 236.91586,106.39682 250.34684,114.97033 258.33352,129.77751 C 263.2774,160.65195 243.251,179.7943 231.88886,201.47803 C 219.30938,221.37689 204.86534,240.4354 187.54563,256.44942 C 179.74378,263.91824 163.76031,266.03552 156.95118,256.37411 z "
     style="fill:black;fill-opacity:1"
     id="path1875" />
</svg>
