<?xml version="1.0" encoding="UTF-8" standalone="no"?>
<!-- Created with Inkscape (http://www.inkscape.org/) -->
<svg
   xmlns:dc="http://purl.org/dc/elements/1.1/"
   xmlns:cc="http://web.resource.org/cc/"
   xmlns:rdf="http://www.w3.org/1999/02/22-rdf-syntax-ns#"
   xmlns:svg="http://www.w3.org/2000/svg"
   xmlns="http://www.w3.org/2000/svg"
   xmlns:sodipodi="http://sodipodi.sourceforge.net/DTD/sodipodi-0.dtd"
   xmlns:inkscape="http://www.inkscape.org/namespaces/inkscape"
   width="300"
   height="300"
   id="svg2"
   sodipodi:version="0.32"
   inkscape:version="0.45.1"
   version="1.0"
   sodipodi:docbase="C:\Documents and Settings\Martin\桌面"
   sodipodi:docname="人-oracle.svg"
   inkscape:output_extension="org.inkscape.output.svg.inkscape">
  <defs
     id="defs4" />
  <sodipodi:namedview
     id="base"
     pagecolor="#ffffff"
     bordercolor="#666666"
     borderopacity="1.0"
     inkscape:pageopacity="0.0"
     inkscape:pageshadow="2"
     inkscape:zoom="4.2426407"
     inkscape:cx="139.24085"
     inkscape:cy="175.10158"
     inkscape:document-units="px"
     inkscape:current-layer="layer1"
     width="300px"
     height="300px"
     inkscape:window-width="800"
     inkscape:window-height="578"
     inkscape:window-x="0"
     inkscape:window-y="0"
     showguides="true"
     inkscape:guide-bbox="true" />
  <metadata
     id="metadata7">
    <rdf:RDF>
      <cc:Work
         rdf:about="">
        <dc:format>image/svg+xml</dc:format>
        <dc:type
           rdf:resource="http://purl.org/dc/dcmitype/StillImage" />
      </cc:Work>
    </rdf:RDF>
  </metadata>
  <g
     inkscape:label="Calque 1"
     inkscape:groupmode="layer"
     id="layer1">
    <path
       style="fill:#000000"
       d="M 159.16564,294.3993 C 158.80224,225.83551 158.9898,265.39259 158.98397,250.22489 C 157.12195,205.84894 156.99615,211.63759 160.59285,176.18506 C 163.81031,144.47084 165.2005,136.335 170.23694,119.7452 C 173.25768,109.79496 172.92314,108.90599 161.92121,97.64897 C 151.20973,86.689087 150.14137,86.228465 145.6269,90.623569 C 142.96976,93.210497 139.94302,98.72123 138.90088,102.86966 C 135.70874,112.07799 130.43592,120.23567 126.58672,129.2984 C 119.29208,147.02344 114.1714,152.6784 107.62894,150.23419 C 102.85423,148.45041 103.3073,146.48477 113.74557,123.69691 C 118.45669,114.72314 120.44237,104.83748 124.88068,95.793063 C 130.93152,83.984604 133.51908,45.732939 129.29917,30.475654 C 124.94859,19.19725 129.21822,18.29845 132.95758,9.800126 C 135.56117,2.930031 145.68958,3.6462149 149.72423,10.985706 C 151.57177,14.346564 152.91078,24.52834 152.69989,33.611876 C 152.37108,47.773198 153.35137,51.134983 159.57701,57.196027 C 163.57031,61.083763 169.30508,68.948847 172.32085,74.674 C 175.33666,80.399125 181.14272,88.116935 185.22323,91.824639 C 193.32386,99.686768 194.83797,114.41491 191.04392,124.82162 C 181.99232,145.91237 179.44768,168.94484 178.4267,239.02474 C 177.81574,280.95887 176.95334,289.49486 172.97326,293.00157 C 169.58189,295.98954 162.8096,296.38463 159.16564,294.3993 z "
       id="path2190"
       sodipodi:nodetypes="ccssssccsccccssssccssc" />
  </g>
</svg>
