<?xml version="1.0" encoding="UTF-8" standalone="no"?>
<!-- Created with Inkscape (http://www.inkscape.org/) -->
<svg
   xmlns:svg="http://www.w3.org/2000/svg"
   xmlns="http://www.w3.org/2000/svg"
   version="1.0"
   width="300"
   height="300"
   id="svg2">
  <defs
     id="defs5" />
  <path
     d="M 120.773,278.9946 C 118.74338,276.54906 119.76324,272.29621 124.45615,263.63585 C 138.69168,233.80334 155.78146,202.8382 160.20307,169.55374 C 158.2039,163.48742 130.67374,128.46858 126.15192,138.8057 C 120.0375,174.78131 98.20808,220.13718 70.273997,242.31034 C 65.832017,242.31034 62.451477,234.40646 65.874527,232.02418 C 92.166403,202.4657 104.977,163.82288 113.54064,125.99029 C 115.91169,107.45283 117.91438,104.6752 125.9249,108.81397 C 143.05444,114.64912 145.92359,137.20611 163.33279,141.93396 C 167.09636,139.60795 165.94517,102.67361 161.94485,97.403843 C 159.99324,94.832923 155.24076,92.729443 151.38379,92.729443 C 147.52681,92.729443 139.24539,91.546603 132.98064,90.100903 C 126.71589,88.655213 118.23738,86.817443 114.13951,86.016983 C 110.04164,85.216523 103.1302,81.160778 98.78076,77.004219 C 85.520687,64.332189 88.988067,42.201639 106.22043,29.520504 C 114.67822,23.296499 126.02892,22.473318 195.71286,23.030304 C 221.16626,23.233752 227.09814,24.009802 227.09814,27.136337 C 221.66304,43.252857 196.14969,35.604643 182.60137,35.26014 C 159.0604,34.88193 118.82139,32.736394 105.6775,51.824985 C 103.16218,61.846807 109.94316,70.331356 122.07282,72.245503 C 149.87086,76.632233 170.85119,79.708981 177.22015,94.611407 C 181.82737,105.39161 173.22409,145.30337 180.5362,146.15119 C 185.14776,146.15119 211.20438,121.18297 216.04422,112.12636 C 217.80139,108.83824 222.27078,105.38704 225.97621,104.45704 C 244.69477,99.758983 240.69349,127.29062 221.78134,210.39389 C 214.84902,240.85571 202.31741,289.1472 187.28318,277.40656 C 184.65354,273.19185 188.61291,266.85144 190.01444,263.67904 C 199.75171,241.63838 217.79303,168.02895 221.19442,145.48342 C 222.472,137.0361 223.13014,130.12466 222.65695,130.12466 C 221.40885,130.12466 208.89481,140.8692 199.3095,150.17075 C 194.76043,154.58515 187.19899,161.19609 182.50631,164.86173 C 177.81363,168.52736 173.38088,174.53149 172.65574,178.20424 C 162.44292,215.33596 149.87559,251.83019 125.79556,282.37665 C 124.57692,282.37665 122.31677,280.85475 120.773,278.9946 z "
     style="fill:black;fill-opacity:1"
     id="path1875" />
</svg>
