<?xml version="1.0" encoding="UTF-8" standalone="no"?>
<!-- Created with Inkscape (http://www.inkscape.org/) -->
<svg
   xmlns:dc="http://purl.org/dc/elements/1.1/"
   xmlns:cc="http://web.resource.org/cc/"
   xmlns:rdf="http://www.w3.org/1999/02/22-rdf-syntax-ns#"
   xmlns:svg="http://www.w3.org/2000/svg"
   xmlns="http://www.w3.org/2000/svg"
   xmlns:sodipodi="http://sodipodi.sourceforge.net/DTD/sodipodi-0.dtd"
   xmlns:inkscape="http://www.inkscape.org/namespaces/inkscape"
   width="300"
   height="300"
   id="svg2"
   sodipodi:version="0.32"
   inkscape:version="0.45.1"
   version="1.0"
   sodipodi:docbase="C:\Documents and Settings\Martin\桌面"
   sodipodi:docname="drawing.svg"
   inkscape:output_extension="org.inkscape.output.svg.inkscape">
  <defs
     id="defs4" />
  <sodipodi:namedview
     id="base"
     pagecolor="#ffffff"
     bordercolor="#666666"
     borderopacity="1.0"
     gridtolerance="10000"
     guidetolerance="10"
     objecttolerance="10"
     inkscape:pageopacity="0.0"
     inkscape:pageshadow="2"
     inkscape:zoom="0.98994949"
     inkscape:cx="194.83092"
     inkscape:cy="123.08857"
     inkscape:document-units="px"
     inkscape:current-layer="layer1"
     width="300px"
     height="300px"
     inkscape:window-width="742"
     inkscape:window-height="577"
     inkscape:window-x="44"
     inkscape:window-y="0" />
  <metadata
     id="metadata7">
    <rdf:RDF>
      <cc:Work
         rdf:about="">
        <dc:format>image/svg+xml</dc:format>
        <dc:type
           rdf:resource="http://purl.org/dc/dcmitype/StillImage" />
      </cc:Work>
    </rdf:RDF>
  </metadata>
  <g
     inkscape:label="Layer 1"
     inkscape:groupmode="layer"
     id="layer1">
    <path
       style="fill:#000000"
       d="M 142.37168,267.84519 C 137.59721,264.35406 137.08634,259.15034 135.39685,196.80623 C 134.3942,159.80674 132.94626,119.37645 132.17922,106.96123 C 131.41216,94.546024 130.73728,76.321542 130.67946,66.462393 L 130.57435,48.536674 L 100.67306,48.536674 C 72.651767,48.536674 70.54006,48.907693 67.086476,54.437749 C 62.17417,62.303622 57.507131,173.86946 59.917943,225.80213 C 60.240112,239.6366 59.165094,256.30688 48.505819,266.30098 C 41.726711,266.30098 40.914239,256.23174 41.755843,182.64763 C 42.240317,140.28982 42.747925,104.43836 42.883863,102.97774 C 43.019807,101.51713 42.559897,86.071051 41.861832,68.653116 C 41.163765,51.235187 41.657563,34.994332 42.959126,32.562326 C 45.111962,28.539725 53.909428,28.213798 140.39932,28.952389 C 192.68986,29.398929 239.05818,30.305838 243.44001,30.96774 C 247.82185,31.629644 252.11783,32.26829 252.98664,32.386953 C 253.85547,32.505614 254.58196,58.594994 254.6011,90.363352 C 254.62022,122.13171 255.37143,159.47696 256.27045,173.3528 C 258.82645,212.80314 259.2927,255.31699 257.19242,257.41729 C 254.10175,260.50794 244.3681,260.3878 243.18797,257.24442 C 241.95863,253.97003 240.67638,228.05209 238.31496,158.74664 C 237.41914,132.45561 235.8652,100.78682 234.86171,88.371603 C 233.85825,75.956385 233.23237,61.958563 233.47085,57.265327 C 233.85885,49.629119 233.00422,48.563302 225.34033,47.125545 C 220.63009,46.241895 202.45978,45.899145 184.96186,46.363877 L 153.14748,47.208845 L 153.19777,125.55089 C 153.22544,168.63901 154.30198,217.29633 155.59007,233.67829 C 157.40033,256.7009 157.16435,264.38871 154.55071,267.53799 C 150.37909,272.56447 148.87744,272.60233 142.37168,267.84519 z M 188.76474,186.27692 C 188.63592,184.28079 188.03186,175.91719 187.42237,167.69108 C 186.40529,153.96382 186.80651,152.60261 192.30396,151.12944 C 202.10217,148.50379 207.72223,149.20612 212.12217,153.60604 C 215.22257,156.70648 215.51129,158.52536 213.26031,160.77636 C 211.60147,162.4352 210.24423,168.93112 210.24423,175.21177 C 210.24423,184.30309 209.29677,186.63849 205.59682,186.6674 C 203.04076,186.68733 198.26054,187.42422 194.97419,188.30494 C 190.95725,189.38143 188.92216,188.71675 188.76474,186.27692 z M 96.684335,181.71136 C 94.326564,180.25417 92.287143,160.38532 93.168695,147.46011 C 93.480549,142.88756 113.16975,143.15212 117.01093,147.78047 C 120.17885,151.59757 121.8091,177.69194 119.05195,180.44912 C 116.69392,182.80715 99.983152,183.75014 96.684335,181.71136 z M 186.72964,120.05411 C 182.55048,118.38025 181.00922,116.16224 182.08224,113.36611 C 182.96516,111.06511 183.68762,104.46255 183.68762,98.693698 C 183.68762,86.772737 188.18036,83.468808 199.14649,87.325395 C 205.55361,89.578653 205.96474,90.724148 205.2435,104.31293 C 204.2796,122.4739 200.59425,125.6073 186.72964,120.05411 z M 92.634586,110.01171 C 90.988901,108.03793 89.525759,101.77417 89.383211,96.092234 C 89.142547,86.499766 89.731155,85.64757 97.619075,84.167782 C 102.31864,83.28614 108.74873,83.98409 112.01085,85.729924 C 116.99795,88.398939 117.66008,90.382303 116.3032,98.587418 C 115.4208,103.92332 114.68568,109.57378 114.66963,111.14398 C 114.62771,115.23697 96.201912,114.29016 92.634586,110.01171 z "
       id="path2186"
       sodipodi:nodetypes="csscccsccssssssssssssssscccssccsssssssccsssccssssccsssssc" />
  </g>
</svg>
