<?xml version="1.0" encoding="UTF-8" standalone="no"?>
<!-- Created with Inkscape (http://www.inkscape.org/) -->
<svg
   xmlns:dc="http://purl.org/dc/elements/1.1/"
   xmlns:cc="http://creativecommons.org/ns#"
   xmlns:rdf="http://www.w3.org/1999/02/22-rdf-syntax-ns#"
   xmlns:svg="http://www.w3.org/2000/svg"
   xmlns="http://www.w3.org/2000/svg"
   xmlns:sodipodi="http://sodipodi.sourceforge.net/DTD/sodipodi-0.dtd"
   xmlns:inkscape="http://www.inkscape.org/namespaces/inkscape"
   width="300"
   height="300"
   id="svg2400"
   sodipodi:version="0.32"
   inkscape:version="0.46"
   version="1.0"
   sodipodi:docname="米-seal.svg"
   inkscape:output_extension="org.inkscape.output.svg.inkscape">
  <defs
     id="defs2402">
    <inkscape:perspective
       sodipodi:type="inkscape:persp3d"
       inkscape:vp_x="0 : 526.18109 : 1"
       inkscape:vp_y="0 : 1000 : 0"
       inkscape:vp_z="744.09448 : 526.18109 : 1"
       inkscape:persp3d-origin="372.04724 : 350.78739 : 1"
       id="perspective2408" />
    <inkscape:perspective
       id="perspective3684"
       inkscape:persp3d-origin="372.04724 : 350.78739 : 1"
       inkscape:vp_z="744.09448 : 526.18109 : 1"
       inkscape:vp_y="0 : 1000 : 0"
       inkscape:vp_x="0 : 526.18109 : 1"
       sodipodi:type="inkscape:persp3d" />
    <inkscape:perspective
       id="perspective3736"
       inkscape:persp3d-origin="372.04724 : 350.78739 : 1"
       inkscape:vp_z="744.09448 : 526.18109 : 1"
       inkscape:vp_y="0 : 1000 : 0"
       inkscape:vp_x="0 : 526.18109 : 1"
       sodipodi:type="inkscape:persp3d" />
    <inkscape:perspective
       id="perspective2465"
       inkscape:persp3d-origin="372.04724 : 350.78739 : 1"
       inkscape:vp_z="744.09448 : 526.18109 : 1"
       inkscape:vp_y="0 : 1000 : 0"
       inkscape:vp_x="0 : 526.18109 : 1"
       sodipodi:type="inkscape:persp3d" />
    <inkscape:perspective
       id="perspective2517"
       inkscape:persp3d-origin="372.04724 : 350.78739 : 1"
       inkscape:vp_z="744.09448 : 526.18109 : 1"
       inkscape:vp_y="0 : 1000 : 0"
       inkscape:vp_x="0 : 526.18109 : 1"
       sodipodi:type="inkscape:persp3d" />
    <inkscape:perspective
       id="perspective2589"
       inkscape:persp3d-origin="372.04724 : 350.78739 : 1"
       inkscape:vp_z="744.09448 : 526.18109 : 1"
       inkscape:vp_y="0 : 1000 : 0"
       inkscape:vp_x="0 : 526.18109 : 1"
       sodipodi:type="inkscape:persp3d" />
    <inkscape:perspective
       id="perspective2711"
       inkscape:persp3d-origin="372.04724 : 350.78739 : 1"
       inkscape:vp_z="744.09448 : 526.18109 : 1"
       inkscape:vp_y="0 : 1000 : 0"
       inkscape:vp_x="0 : 526.18109 : 1"
       sodipodi:type="inkscape:persp3d" />
  </defs>
  <sodipodi:namedview
     id="base"
     pagecolor="#ffffff"
     bordercolor="#666666"
     borderopacity="1.0"
     gridtolerance="10000"
     guidetolerance="10"
     objecttolerance="10"
     inkscape:pageopacity="0.0"
     inkscape:pageshadow="2"
     inkscape:zoom="1.979899"
     inkscape:cx="438.59136"
     inkscape:cy="191.93114"
     inkscape:document-units="px"
     inkscape:current-layer="layer1"
     showgrid="false"
     width="300px"
     inkscape:window-width="1280"
     inkscape:window-height="953"
     inkscape:window-x="0"
     inkscape:window-y="25" />
  <metadata
     id="metadata2405">
    <rdf:RDF>
      <cc:Work
         rdf:about="">
        <dc:format>image/svg+xml</dc:format>
        <dc:type
           rdf:resource="http://purl.org/dc/dcmitype/StillImage" />
      </cc:Work>
    </rdf:RDF>
  </metadata>
  <g
     inkscape:label="Layer 1"
     inkscape:groupmode="layer"
     id="layer1">
    <path
       style="fill:#000000"
       d="M 137.35127,274.37501 C 137.18845,268.53126 137.08618,263.1875 137.12402,262.5 C 137.16185,261.8125 137.81872,245.97449 138.58375,227.30442 C 139.34875,208.63436 140.52157,191.75936 141.18999,189.80442 C 141.85842,187.8495 142.97765,175.47708 143.67719,162.31018 C 144.37672,149.14327 145.67736,133.81582 146.56751,128.24917 C 147.69373,121.20616 147.20482,117.5216 144.95996,116.13419 C 141.30605,113.87596 114.53512,113.98446 89.808892,116.35772 C 77.837392,117.50676 72.686492,117.08593 71.301952,114.84569 C 67.081972,108.01762 77.555412,105.47241 110.78912,105.2497 C 128.8448,105.1287 144.677,103.97032 145.9718,102.67552 C 148.69208,99.955245 150.66816,84.217318 150.53572,66.327579 C 153.18173,54.310343 151.56035,19.89127 158.74314,15 C 160.59623,15 162.71414,16.568151 163.44962,18.484787 C 165.1555,22.930241 163.20471,54.000118 159.92042,74.693606 C 158.5287,83.46259 158.08514,93.802154 158.93476,97.670417 L 160.47951,104.70362 L 193.32996,104.83264 C 218.9087,104.93309 227.00157,105.78281 229.89006,108.6713 C 231.93037,110.71161 232.89766,113.083 232.03961,113.94106 C 230.26415,115.71651 170.40277,115.45296 167.49667,113.65689 C 166.4527,113.01168 163.80951,113.17029 161.62293,114.00936 C 158.49508,115.20963 157.64733,119.3966 157.64733,133.64441 C 157.64733,143.60462 156.58572,155.01551 155.28819,159.00195 C 153.99067,162.98837 152.29113,182 151.51144,201.25 C 148.53629,274.70418 147.10161,285 139.84122,285 C 138.63458,285 137.5141,280.21876 137.35127,274.37501 z M 217.45737,254.29645 C 215.29039,251.2459 207.6229,236.375 200.4185,221.25 C 190.10596,204.60912 185.08984,185.88867 177.64733,168.09034 C 174.38765,158.53564 168.04986,144.86561 167.64733,134.66915 C 167.64733,120.71698 174.65766,122.37082 179.64679,137.5 C 181.68724,143.6875 184.27513,151 185.39767,153.75 C 186.52022,156.5 188.66442,163.8125 190.16257,170 C 193.32017,183.04114 211.36254,221.42087 217.78104,228.75 C 225.39938,237.44921 232.57437,252.2812 231.0659,256.21218 C 228.96111,261.69718 222.02049,260.72013 217.45737,254.29645 z M 67.647322,251.01092 C 67.647322,248.81693 69.656612,244.03569 72.112412,240.38593 C 76.572782,233.75701 78.384722,230.06116 86.396672,211.25 C 91.215522,199.93587 106.91159,165.99078 110.36778,159.40892 C 111.62153,157.02133 112.64732,153.86789 112.64732,152.40129 C 112.64732,148.11174 124.18038,132.36638 125.99395,134.17995 C 129.29573,137.48174 127.52273,148.29825 122.02233,158.40962 C 112.5584,172.18572 106.13566,187.53203 100.01078,203.125 C 91.332792,218.98232 88.799642,239.65936 75.725032,252.35142 C 68.136642,255.80893 67.647322,255.72773 67.647322,251.01092 z M 113.8295,65.916324 C 108.3668,58.330765 102.77232,51.365151 101.39733,50.437195 C 100.02232,49.509238 96.327682,45.08737 93.187002,40.610823 C 88.570372,34.030538 88.077112,31.828871 90.611652,29.115641 C 93.198002,26.346943 95.438732,27.55255 103.41575,36.004815 C 108.73376,41.639662 116.52228,51.312501 120.72354,57.499997 C 124.92481,63.687503 131.01386,71.326775 134.25477,74.476171 C 140.86549,80.900231 142.12142,89.999999 136.39733,89.999999 C 129.52649,82.645207 120.65666,74.867481 113.8295,65.916324 z M 172.64732,85.141754 C 172.64732,82.469728 174.6632,78.813478 177.12705,77.016758 C 179.59089,75.220037 185.49715,68.8103 190.25205,62.772885 C 203.7353,45.652889 214.70586,35 218.85316,35 C 229.90579,40.298633 212.76231,48.920966 209.12538,53.752799 C 203.35753,62.555645 177.38995,89.999999 174.82863,89.999999 C 173.62891,89.999999 172.64732,87.813792 172.64732,85.141754 z"
       id="path2717"
       sodipodi:nodetypes="cssssssssssccsscccsssssssscccccsssssccssssscccccsssssscccssccsc" />
  </g>
</svg>
