<?xml version="1.0" encoding="UTF-8" standalone="no"?>
<!-- Created with Inkscape (http://www.inkscape.org/) -->
<svg
   xmlns:dc="http://purl.org/dc/elements/1.1/"
   xmlns:cc="http://web.resource.org/cc/"
   xmlns:rdf="http://www.w3.org/1999/02/22-rdf-syntax-ns#"
   xmlns:svg="http://www.w3.org/2000/svg"
   xmlns="http://www.w3.org/2000/svg"
   xmlns:sodipodi="http://sodipodi.sourceforge.net/DTD/sodipodi-0.dtd"
   xmlns:inkscape="http://www.inkscape.org/namespaces/inkscape"
   id="svg2"
   sodipodi:version="0.32"
   inkscape:version="0.45.1"
   width="300"
   height="300"
   version="1.0"
   sodipodi:docbase="/home/yug/Desktop"
   sodipodi:docname="b03766åˆ-bronze.svg"
   inkscape:output_extension="org.inkscape.output.svg.inkscape">
  <metadata
     id="metadata7">
    <rdf:RDF>
      <cc:Work
         rdf:about="">
        <dc:format>image/svg+xml</dc:format>
        <dc:type
           rdf:resource="http://purl.org/dc/dcmitype/StillImage" />
      </cc:Work>
    </rdf:RDF>
  </metadata>
  <defs
     id="defs5" />
  <sodipodi:namedview
     inkscape:window-height="575"
     inkscape:window-width="738"
     inkscape:pageshadow="2"
     inkscape:pageopacity="0.0"
     guidetolerance="10.0"
     gridtolerance="10.0"
     objecttolerance="10.0"
     borderopacity="1.0"
     bordercolor="#666666"
     pagecolor="#ffffff"
     id="base"
     width="300px"
     height="300px"
     inkscape:zoom="1.2633333"
     inkscape:cx="150"
     inkscape:cy="133.67885"
     inkscape:window-x="255"
     inkscape:window-y="175"
     inkscape:current-layer="svg2" />
  <path
     style="fill:#000000"
     d="M 180.95751,266.76828 C 167.6509,254.91036 162.5273,224.64949 164.13769,202.50368 C 133.48903,219.0205 107.54245,207.32959 94.106598,185.06164 C 89.219776,176.96245 86.626648,154.78881 99.065078,168.97612 C 108.79427,180.28789 123.37193,192.97245 139.40822,187.11527 C 163.76504,182.68755 164.91854,153.48008 162.65769,133.75044 C 144.60996,59.972652 50.306546,125.18325 59.477131,104.34738 C 72.208131,75.422138 137.74544,67.266272 161.93889,91.832608 C 158.18825,33.075866 114.73485,22.539031 66.036507,43.270351 C 58.55749,45.978753 53.495469,37.881392 61.357412,31.46136 C 122.48844,-6.1757366 177.27603,25.535648 182.34051,78.079499 C 192.37824,182.22088 174.83557,194.53721 199.50757,239.77216 C 211.823,262.35191 237.73396,266.66636 242.59941,283.21296 C 221.03431,289.53448 193.45398,277.90426 180.95751,266.76828 z "
     id="path8068"
     sodipodi:nodetypes="ccscccscccsscs" />
</svg>
