<?xml version="1.0" encoding="UTF-8" standalone="no"?>
<!-- Created with Inkscape (http://www.inkscape.org/) -->

<svg
   xmlns:dc="http://purl.org/dc/elements/1.1/"
   xmlns:cc="http://creativecommons.org/ns#"
   xmlns:rdf="http://www.w3.org/1999/02/22-rdf-syntax-ns#"
   xmlns:svg="http://www.w3.org/2000/svg"
   xmlns="http://www.w3.org/2000/svg"
   xmlns:sodipodi="http://sodipodi.sourceforge.net/DTD/sodipodi-0.dtd"
   xmlns:inkscape="http://www.inkscape.org/namespaces/inkscape"
   width="300"
   height="300"
   id="svg2"
   version="1.1"
   inkscape:version="0.48.2 r9819"
   sodipodi:docname="皮-seal.svg">
  <defs
     id="defs4" />
  <sodipodi:namedview
     id="base"
     pagecolor="#ffffff"
     bordercolor="#666666"
     borderopacity="1.0"
     inkscape:pageopacity="0.0"
     inkscape:pageshadow="2"
     inkscape:zoom="1.979899"
     inkscape:cx="44.378127"
     inkscape:cy="171.3455"
     inkscape:document-units="px"
     inkscape:current-layer="layer1"
     showgrid="false"
     inkscape:window-width="1280"
     inkscape:window-height="999"
     inkscape:window-x="0"
     inkscape:window-y="24"
     inkscape:window-maximized="1" />
  <metadata
     id="metadata7">
    <rdf:RDF>
      <cc:Work
         rdf:about="">
        <dc:format>image/svg+xml</dc:format>
        <dc:type
           rdf:resource="http://purl.org/dc/dcmitype/StillImage" />
        <dc:title></dc:title>
      </cc:Work>
    </rdf:RDF>
  </metadata>
  <g
     inkscape:label="Calque 1"
     inkscape:groupmode="layer"
     id="layer1"
     transform="translate(0,-752.36218)">
    <path
       style="fill:#000000"
       d="m 170.48141,1023.4662 c 3.16686,-14.4799 31.25595,-37.44871 8.03743,-47.04899 -16.55801,0.55679 -33.34782,-19.74848 -23.16091,-34.37016 17.12177,-3.01804 16.01282,22.32364 29.39058,27.53031 17.51617,0.43961 5.73304,-25.92359 12.66593,-36.5399 22.94249,-6.75234 7.66523,31.66067 23.89885,33.84761 21.09149,-2.12562 17.45265,-43.88593 39.09806,-32.53361 7.01592,12.63 -7.27293,26.48249 -16.93958,33.74485 -9.68517,10.81257 -27.9828,8.78053 -35.18241,21.92268 -10.33476,14.25581 -17.98078,32.36211 -34.27013,40.71411 -3.99289,0.561 -3.62317,-4.8666 -3.53782,-7.2669 z M 102.6632,993.67107 C 96.187941,964.46283 95.424176,934.35745 91.965442,904.71695 90.444543,887.10794 95.025139,861.99196 70.536115,860.39107 55.262173,857.12921 47.3082,841.8565 46.955012,827.30612 c -0.227535,-13.11664 -10.526258,-31.27868 2.345183,-40.8374 15.155495,-8.6604 12.810047,11.76327 16.757654,16.78997 18.524897,-1.87242 37.849101,0.61867 55.854521,-4.16402 5.9498,-9.06112 6.09392,-28.63054 22.27854,-18.15768 14.0032,12.06214 1.95423,29.93276 -2.02319,43.7349 2.38606,12.38858 -26.7525,35.38815 -5.30969,34.93146 30.76286,1.05406 62.08147,-0.74947 92.34643,5.47197 16.09926,3.98817 18.37331,32.77708 0.26012,35.22195 -17.5705,1.20078 -33.91536,8.88734 -51.46927,10.35657 -19.28719,8.87717 -50.67788,1.18093 -62.4064,20.63804 -1.76509,17.71176 2.53765,35.5058 2.46204,53.31296 2.63669,10.02802 -4.60656,34.97326 -15.38775,9.06623 z m 52.48767,-90.01394 c 18.291,-3.23451 36.22863,-7.46419 53.91557,-12.91321 22.24372,-12.39484 -10.0659,-21.8788 -22.0311,-17.726 -23.94375,0.18121 -48.50341,-2.51875 -72.03856,2.52948 -8.55991,9.30425 1.77453,20.88469 -3.01182,29.64475 11.8887,5.42177 27.56963,-1.45456 41.07844,-1.29749 l 2.08747,-0.23753 0,0 z m -47.82572,-52.667 c 6.72847,-9.32047 23.35605,-30.3467 9.12891,-37.56071 -13.23922,-2.38526 -27.98077,-2.39437 -40.711287,1.69428 -13.492233,9.9189 -4.735656,36.84641 11.648283,38.38685 6.629251,-0.85631 13.596994,0.0372 19.934094,-2.52042 z"
       id="path3062"
       inkscape:connector-curvature="0" />
  </g>
</svg>
