<?xml version="1.0" encoding="UTF-8" standalone="no"?>
<svg
   xmlns="http://www.w3.org/2000/svg"
   version="1.0" width="300" height="300">
  <path
     d="M 157.29025,250.13332 C 80.89111,250.13332 31.316083,205.84275 32.954027,150.57619 C 35.008313,81.642374 73.439523,51.676732 148.10111,51.672974 C 244.0723,51.668178 269.78588,100.66465 269.42309,141.68338 C 264.79466,233.44852 187.24335,250.13332 157.29025,250.13332 z M 159.88203,225.21731 C 217.17933,225.07112 243.24093,178.05667 243.40511,141.45907 C 243.6185,93.893839 212.6996,75.017892 146.2284,73.353404 C 80.137909,71.688916 54.345614,120.31188 54.632364,153.27191 C 54.829833,175.96972 74.626465,225.4358 159.88203,225.21731 z M 134.21772,153.9905 C 126.65662,149.09101 128.73576,134.68527 139.60755,128.86687 C 150.47933,123.04846 176.76719,128.13746 175.08122,145.92922 C 173.43101,163.34363 145.59021,161.35971 134.21772,153.9905 z " />
</svg>
