<?xml version="1.0" encoding="UTF-8" standalone="no"?>
<!-- Created with Inkscape (http://www.inkscape.org/) -->
<svg
   xmlns:dc="http://purl.org/dc/elements/1.1/"
   xmlns:cc="http://web.resource.org/cc/"
   xmlns:rdf="http://www.w3.org/1999/02/22-rdf-syntax-ns#"
   xmlns:svg="http://www.w3.org/2000/svg"
   xmlns="http://www.w3.org/2000/svg"
   xmlns:sodipodi="http://sodipodi.sourceforge.net/DTD/sodipodi-0.dtd"
   xmlns:inkscape="http://www.inkscape.org/namespaces/inkscape"
   width="300"
   height="300"
   id="svg2"
   sodipodi:version="0.32"
   inkscape:version="0.45.1"
   version="1.0"
   sodipodi:docbase="C:\Documents and Settings\Martin\桌面"
   sodipodi:docname="drawing.svg"
   inkscape:output_extension="org.inkscape.output.svg.inkscape">
  <defs
     id="defs4" />
  <sodipodi:namedview
     id="base"
     pagecolor="#ffffff"
     bordercolor="#666666"
     borderopacity="1.0"
     gridtolerance="10000"
     guidetolerance="10"
     objecttolerance="10"
     inkscape:pageopacity="0.0"
     inkscape:pageshadow="2"
     inkscape:zoom="1.2311444"
     inkscape:cx="193.36843"
     inkscape:cy="132.50972"
     inkscape:document-units="px"
     inkscape:current-layer="layer1"
     width="300px"
     height="300px"
     inkscape:window-width="1024"
     inkscape:window-height="712"
     inkscape:window-x="-4"
     inkscape:window-y="-4" />
  <metadata
     id="metadata7">
    <rdf:RDF>
      <cc:Work
         rdf:about="">
        <dc:format>image/svg+xml</dc:format>
        <dc:type
           rdf:resource="http://purl.org/dc/dcmitype/StillImage" />
      </cc:Work>
    </rdf:RDF>
  </metadata>
  <g
     inkscape:label="Layer 1"
     inkscape:groupmode="layer"
     id="layer1">
    <path
       style="fill:#000000"
       d="M 134.83609,283.37657 C 129.99939,280.27855 129.39768,270.76929 131.9385,237.58468 C 133.70222,214.54965 136.89561,186.66149 138.9092,175.58778 C 143.44246,150.65731 141.75461,154.7845 131.29963,146.94987 C 122.38585,140.27021 134.96417,138.62942 90.203213,139.36291 C 70.301894,139.69704 57.637276,138.20569 51.882776,133.96904 C 43.528473,127.81831 43.600409,127.43285 54.426224,120.33951 C 60.553724,116.32462 77.914943,111.7491 93.006713,110.1717 C 108.09851,108.5943 126.02789,103.92759 132.84982,99.801226 C 144.87536,92.527369 145.2107,91.277931 143.85526,58.798491 C 142.37875,23.419359 148.3159,10.537603 163.426,16.335905 C 169.18539,18.545989 169.92916,24.584575 167.75449,51.478563 C 165.18396,83.267798 165.42499,84.270993 179.18462,99.05155 C 193.0417,113.93673 180.4931,114.37781 221.51815,111.25341 C 247.33088,109.2746 250.05038,109.15873 252.64923,117.34697 C 257.37006,132.221 251.41009,135.35769 218.42765,135.35769 C 189.48295,135.35769 186.14964,136.34354 177.34386,147.50846 C 165.54371,162.46991 160.47291,129.67349 156.87248,238.79023 C 155.79633,271.08408 146.72801,290.9937 134.83609,283.37657 z "
       id="path2223"
       sodipodi:nodetypes="csssssssssssssssssc" />
  </g>
</svg>
