<?xml version="1.0" encoding="UTF-8" standalone="no"?>
<!-- Created with Inkscape (http://www.inkscape.org/) -->

<svg
   xmlns:dc="http://purl.org/dc/elements/1.1/"
   xmlns:cc="http://creativecommons.org/ns#"
   xmlns:rdf="http://www.w3.org/1999/02/22-rdf-syntax-ns#"
   xmlns:svg="http://www.w3.org/2000/svg"
   xmlns="http://www.w3.org/2000/svg"
   xmlns:sodipodi="http://sodipodi.sourceforge.net/DTD/sodipodi-0.dtd"
   xmlns:inkscape="http://www.inkscape.org/namespaces/inkscape"
   width="300"
   height="300"
   id="svg2400"
   sodipodi:version="0.32"
   inkscape:version="0.47 r22583"
   version="1.0"
   sodipodi:docname="drawing.svg"
   inkscape:output_extension="org.inkscape.output.svg.inkscape">
  <defs
     id="defs2402">
    <inkscape:perspective
       sodipodi:type="inkscape:persp3d"
       inkscape:vp_x="0 : 526.18109 : 1"
       inkscape:vp_y="0 : 1000 : 0"
       inkscape:vp_z="744.09448 : 526.18109 : 1"
       inkscape:persp3d-origin="372.04724 : 350.78739 : 1"
       id="perspective2408" />
    <inkscape:perspective
       id="perspective3684"
       inkscape:persp3d-origin="372.04724 : 350.78739 : 1"
       inkscape:vp_z="744.09448 : 526.18109 : 1"
       inkscape:vp_y="0 : 1000 : 0"
       inkscape:vp_x="0 : 526.18109 : 1"
       sodipodi:type="inkscape:persp3d" />
    <inkscape:perspective
       id="perspective3736"
       inkscape:persp3d-origin="372.04724 : 350.78739 : 1"
       inkscape:vp_z="744.09448 : 526.18109 : 1"
       inkscape:vp_y="0 : 1000 : 0"
       inkscape:vp_x="0 : 526.18109 : 1"
       sodipodi:type="inkscape:persp3d" />
    <inkscape:perspective
       id="perspective3000"
       inkscape:persp3d-origin="0.5 : 0.33333333 : 1"
       inkscape:vp_z="1 : 0.5 : 1"
       inkscape:vp_y="0 : 1000 : 0"
       inkscape:vp_x="0 : 0.5 : 1"
       sodipodi:type="inkscape:persp3d" />
    <inkscape:perspective
       id="perspective3084"
       inkscape:persp3d-origin="0.5 : 0.33333333 : 1"
       inkscape:vp_z="1 : 0.5 : 1"
       inkscape:vp_y="0 : 1000 : 0"
       inkscape:vp_x="0 : 0.5 : 1"
       sodipodi:type="inkscape:persp3d" />
    <inkscape:perspective
       id="perspective3170"
       inkscape:persp3d-origin="0.5 : 0.33333333 : 1"
       inkscape:vp_z="1 : 0.5 : 1"
       inkscape:vp_y="0 : 1000 : 0"
       inkscape:vp_x="0 : 0.5 : 1"
       sodipodi:type="inkscape:persp3d" />
    <inkscape:perspective
       id="perspective3212"
       inkscape:persp3d-origin="0.5 : 0.33333333 : 1"
       inkscape:vp_z="1 : 0.5 : 1"
       inkscape:vp_y="0 : 1000 : 0"
       inkscape:vp_x="0 : 0.5 : 1"
       sodipodi:type="inkscape:persp3d" />
    <inkscape:perspective
       id="perspective3234"
       inkscape:persp3d-origin="0.5 : 0.33333333 : 1"
       inkscape:vp_z="1 : 0.5 : 1"
       inkscape:vp_y="0 : 1000 : 0"
       inkscape:vp_x="0 : 0.5 : 1"
       sodipodi:type="inkscape:persp3d" />
    <inkscape:perspective
       id="perspective3256"
       inkscape:persp3d-origin="0.5 : 0.33333333 : 1"
       inkscape:vp_z="1 : 0.5 : 1"
       inkscape:vp_y="0 : 1000 : 0"
       inkscape:vp_x="0 : 0.5 : 1"
       sodipodi:type="inkscape:persp3d" />
  </defs>
  <sodipodi:namedview
     id="base"
     pagecolor="#ffffff"
     bordercolor="#666666"
     borderopacity="1.0"
     gridtolerance="10000"
     guidetolerance="10"
     objecttolerance="10"
     inkscape:pageopacity="0.0"
     inkscape:pageshadow="2"
     inkscape:zoom="1.4"
     inkscape:cx="-25.718294"
     inkscape:cy="188.3593"
     inkscape:document-units="px"
     inkscape:current-layer="layer1"
     showgrid="false"
     width="300px"
     inkscape:window-width="1280"
     inkscape:window-height="953"
     inkscape:window-x="0"
     inkscape:window-y="48" />
  <metadata
     id="metadata2405">
    <rdf:RDF>
      <cc:Work
         rdf:about="">
        <dc:format>image/svg+xml</dc:format>
        <dc:type
           rdf:resource="http://purl.org/dc/dcmitype/StillImage" />
        <dc:title></dc:title>
      </cc:Work>
    </rdf:RDF>
  </metadata>
  <g
     inkscape:label="Layer 1"
     inkscape:groupmode="layer"
     id="layer1">
    <g
       id="g3270"
       transform="matrix(1.2075486,0,0,1.2075486,94.803677,25.622562)">
      <path
         sodipodi:nodetypes="cssssccsssccsssccsssccssssc"
         id="path3176-8-0"
         d="m 28.384909,200.34374 c 1.08954,-7.94913 4.23663,-20.9299 6.99353,-28.84615 7.58842,-21.78972 6.58276,-61.6805 -2.18861,-86.813134 -6.67691,-19.131422 -6.93265,-22.406021 -3.00912,-38.529943 6.00453,-24.675864 13.91503,-46.47527061 18.82008,-51.8635596 6.003529,-6.5949824 14.56306,-1.994182 14.56306,7.827728 0.86159,11.8324356 -4.073244,20.0576126 -13.29361,44.5461506 -3.28201,9.794381 -2.81869,14.637175 3.06524,32.038863 8.54014,25.257455 8.78361,55.171115 0.749689,92.108805 -6.311879,29.02027 -13.920409,43.98419 -22.364109,43.98419 -4.38442,0 -4.96965,-2.53533 -3.33615,-14.45295 z m 49.12131,-15.7805 c -2.34759,-2.34759 -4.05226,-12.78926 -4.05226,-24.82148 0,-17.93252 0.82445,-20.76923 6.03633,-20.76923 8.88792,0 14.29851,12.96677 13.12703,31.45968 -1.07365,16.94873 -6.87154,22.37059 -15.1111,14.13103 z M 1.0578991,177.04295 c -5.92841,-7.14328 0.0435,-45.93852 7.2861596,-47.33311 5.0785703,-0.97789 5.7692403,1.83584 5.7692403,23.50341 0,18.27765 -1.211,25.07899 -4.7040293,26.41939 -2.587211,0.9928 -6.3453306,-0.17255 -8.3513706,-2.58969 z m 1.4374,-107.968022 c -1.02594,-2.673564 -1.42775,-16.598024 -0.89291,-30.943253 0.87842,-23.560279 1.60997,-26.082227 7.5658506,-26.082227 5.9280693,0 6.6894293,2.514995 7.5449793,24.923205 0.82196,21.528439 0.0455,25.743195 -5.70049,30.943253 -5.6221499,5.087974 -6.9408899,5.267423 -8.5174299,1.159022 z"
         style="fill:#000000" />
      <path
         sodipodi:nodetypes="csscc"
         id="path3176-8-3"
         d="M 71.534729,8.2939165 C 82.471714,5.5489094 86.431034,14.047013 87.027334,41.54649 87.576404,66.867887 82.448344,74.342401 72.629779,62.531921 68.573939,57.653256 66.860547,49.826262 66.860547,36.177268 66.906827,30.374596 68.525252,8.4191745 71.534729,8.2939165 z"
         style="fill:#000000" />
    </g>
  </g>
</svg>
