<?xml version="1.0" encoding="UTF-8" standalone="no"?>
<!-- Created with Inkscape (http://www.inkscape.org/) -->
<svg
   xmlns:dc="http://purl.org/dc/elements/1.1/"
   xmlns:cc="http://web.resource.org/cc/"
   xmlns:rdf="http://www.w3.org/1999/02/22-rdf-syntax-ns#"
   xmlns:svg="http://www.w3.org/2000/svg"
   xmlns="http://www.w3.org/2000/svg"
   xmlns:sodipodi="http://sodipodi.sourceforge.net/DTD/sodipodi-0.dtd"
   xmlns:inkscape="http://www.inkscape.org/namespaces/inkscape"
   width="300"
   height="300"
   id="svg2"
   sodipodi:version="0.32"
   inkscape:version="0.45.1"
   version="1.0"
   sodipodi:docbase="C:\Documents and Settings\Martin\桌面"
   sodipodi:docname="drawing.svg"
   inkscape:output_extension="org.inkscape.output.svg.inkscape">
  <defs
     id="defs4" />
  <sodipodi:namedview
     id="base"
     pagecolor="#ffffff"
     bordercolor="#666666"
     borderopacity="1.0"
     gridtolerance="10000"
     guidetolerance="10"
     objecttolerance="10"
     inkscape:pageopacity="0.0"
     inkscape:pageshadow="2"
     inkscape:zoom="1.2311444"
     inkscape:cx="167.68035"
     inkscape:cy="125.48552"
     inkscape:document-units="px"
     inkscape:current-layer="layer1"
     width="300px"
     height="300px"
     inkscape:window-width="1024"
     inkscape:window-height="712"
     inkscape:window-x="0"
     inkscape:window-y="22" />
  <metadata
     id="metadata7">
    <rdf:RDF>
      <cc:Work
         rdf:about="">
        <dc:format>image/svg+xml</dc:format>
        <dc:type
           rdf:resource="http://purl.org/dc/dcmitype/StillImage" />
      </cc:Work>
    </rdf:RDF>
  </metadata>
  <g
     inkscape:label="Layer 1"
     inkscape:groupmode="layer"
     id="layer1">
    <path
       style="fill:#000000"
       d="M 199.11449,278.9088 C 187.64135,272.12933 175.23715,242.15142 174.62483,227.51486 L 174.62483,217.08903 L 162.91026,219.16788 C 140.69604,223.13592 115.00764,232.52098 92.304563,227.29506 C 89.826573,226.002 83.767963,223.44971 78.840953,221.62334 C 60.803563,214.9371 68.829843,209.92916 101.58101,207.43478 C 139.27085,204.5643 163.68218,200.70397 167.2627,197.04812 C 169.74145,194.51722 168.57175,192.20478 162.22117,187.08113 C 154.3773,180.75271 152.0114,180.40893 116.21464,180.39595 C 110.15849,181.70037 52.751643,179.98722 66.999453,165.30065 C 68.445663,164.40687 89.841993,163.1853 114.54684,162.58607 C 163.48055,161.39918 176.79203,163.9804 182.24206,175.71287 C 185.01668,181.68582 185.08904,181.66468 188.1072,174.00097 C 192.0489,163.99218 191.99523,152.14797 187.96809,143.30939 C 183.55837,133.63107 171.17248,130.80129 133.13971,130.78293 C 99.452623,130.76667 86.480183,127.50809 86.442473,119.05299 C 86.424393,114.99837 89.167523,114.18859 103.64829,113.97372 C 113.12331,113.83313 126.1645,113.92788 132.62869,114.18427 C 139.09287,114.44066 147.84851,113.88902 152.08566,112.95838 L 159.78955,111.26632 L 158.75003,90.007779 C 158.12377,77.20042 156.31377,67.653452 154.19707,65.992864 C 152.26046,64.473581 140.13682,63.632035 127.18431,64.117814 C 104.87543,64.954488 103.49205,65.373392 99.876643,72.386928 C 97.782043,76.450204 94.545183,81.386399 92.683643,83.356243 C 90.822063,85.326087 88.194593,88.911235 86.844733,91.323248 C 80.065863,103.43642 73.060313,82.340096 72.483583,48.07645 C 72.068053,23.39016 73.808403,15.000001 79.344483,15.000001 C 84.718343,15.000001 94.690083,27.205492 94.690083,33.783155 C 94.690083,41.065406 95.385733,41.168888 136.03564,39.933536 C 145.88966,39.634073 154.57224,39.619147 155.33024,39.900371 C 156.08824,40.181592 160.99309,40.763492 166.22992,41.193483 C 181.16959,42.420162 186.05398,50.707536 185.61374,74.082143 C 184.85734,114.24392 184.85648,114.23938 193.69644,117.321 C 214.4945,124.57125 219.00894,176.28181 200.6456,196.92047 C 194.91541,203.36068 194.68859,205.07346 197.17798,223.10599 C 200.53615,247.43179 207.80591,259.454 223.30254,266.30888 C 229.88188,269.21925 235.26499,272.87136 235.26499,274.4247 C 235.26499,285.93937 210.83447,288.96972 199.11449,278.9088 z "
       id="path2239"
       sodipodi:nodetypes="cccccssssccsssssssscccsssssssssssssssssc" />
  </g>
</svg>
