<?xml version="1.0" encoding="UTF-8" standalone="no"?>
<!-- Created with Inkscape (http://www.inkscape.org/) -->
<svg
   xmlns:dc="http://purl.org/dc/elements/1.1/"
   xmlns:cc="http://web.resource.org/cc/"
   xmlns:rdf="http://www.w3.org/1999/02/22-rdf-syntax-ns#"
   xmlns:svg="http://www.w3.org/2000/svg"
   xmlns="http://www.w3.org/2000/svg"
   xmlns:sodipodi="http://sodipodi.sourceforge.net/DTD/sodipodi-0.dtd"
   xmlns:inkscape="http://www.inkscape.org/namespaces/inkscape"
   width="300"
   height="300"
   id="svg2"
   sodipodi:version="0.32"
   inkscape:version="0.45.1"
   version="1.0"
   sodipodi:docbase="C:\Documents and Settings\Martin\桌面"
   sodipodi:docname="drawing.svg"
   inkscape:output_extension="org.inkscape.output.svg.inkscape">
  <defs
     id="defs4" />
  <sodipodi:namedview
     id="base"
     pagecolor="#ffffff"
     bordercolor="#666666"
     borderopacity="1.0"
     gridtolerance="10000"
     guidetolerance="10"
     objecttolerance="10"
     inkscape:pageopacity="0.0"
     inkscape:pageshadow="2"
     inkscape:zoom="1.2311444"
     inkscape:cx="119.84561"
     inkscape:cy="209.49265"
     inkscape:document-units="px"
     inkscape:current-layer="layer1"
     width="300px"
     height="300px"
     inkscape:window-width="1024"
     inkscape:window-height="712"
     inkscape:window-x="0"
     inkscape:window-y="22" />
  <metadata
     id="metadata7">
    <rdf:RDF>
      <cc:Work
         rdf:about="">
        <dc:format>image/svg+xml</dc:format>
        <dc:type
           rdf:resource="http://purl.org/dc/dcmitype/StillImage" />
      </cc:Work>
    </rdf:RDF>
  </metadata>
  <g
     inkscape:label="Layer 1"
     inkscape:groupmode="layer"
     id="layer1">
    <path
       style="fill:#000000"
       d="M 73.311385,279.59983 C 70.325251,276.00175 69.401027,266.10005 70.276495,247.08492 C 71.732362,215.46293 71.57509,144.75656 69.940041,95.802863 C 65.645068,65.976204 71.795147,51.862196 99.687933,39.147394 C 104.51781,37.985332 114.4723,34.461538 121.80899,31.316744 C 148.17837,20.013804 152.8421,18.490383 168.06245,16.207948 C 182.86122,13.988734 183.50392,14.2329 183.50392,22.074388 C 183.50392,28.779259 180.94515,31.059533 169.33076,34.70492 C 147.55913,43.670326 124.90011,50.694639 103.46726,61.171862 C 99.371421,63.325028 98.413416,73.09604 98.180508,115.09369 C 97.509568,236.06949 96.513312,254.86978 89.963846,270.14906 C 83.220123,285.88157 80.028161,287.69307 73.311385,279.59983 z M 119.02996,282.55015 C 114.51212,278.03231 117.06933,269.47756 126.09362,258.91951 C 136.64256,246.5777 143.87753,225.07583 145.21061,202.10497 C 150.65093,108.36035 155.50627,96.116814 191.66459,84.963378 C 207.96823,79.934336 213.6591,79.468866 221.25598,82.54303 C 226.42918,84.636405 230.9312,87.792315 231.26055,89.556155 C 232.17451,94.450647 216.99679,100.89714 199.34451,103.11202 C 181.44275,104.69056 185.0069,110.09371 178.71146,123.17054 C 176.07561,128.25114 173.00564,142.30404 171.8893,154.3992 C 165.73611,221.06714 162.84846,236.80886 153.10573,256.79683 C 142.44411,278.66994 126.89856,290.41875 119.02996,282.55015 z "
       id="path2204"
       sodipodi:nodetypes="csccsssccssccsssssccssc" />
  </g>
</svg>
