<?xml version="1.0" encoding="UTF-8" standalone="no"?>
<!-- Created with Inkscape (http://www.inkscape.org/) -->
<svg
   xmlns:dc="http://purl.org/dc/elements/1.1/"
   xmlns:cc="http://web.resource.org/cc/"
   xmlns:rdf="http://www.w3.org/1999/02/22-rdf-syntax-ns#"
   xmlns:svg="http://www.w3.org/2000/svg"
   xmlns="http://www.w3.org/2000/svg"
   xmlns:sodipodi="http://sodipodi.sourceforge.net/DTD/sodipodi-0.dtd"
   xmlns:inkscape="http://www.inkscape.org/namespaces/inkscape"
   width="300"
   height="300"
   id="svg2"
   sodipodi:version="0.32"
   inkscape:version="0.45.1"
   version="1.0"
   sodipodi:docbase="C:\Documents and Settings\Martin\桌面"
   sodipodi:docname="drawing.svg"
   inkscape:output_extension="org.inkscape.output.svg.inkscape">
  <defs
     id="defs4" />
  <sodipodi:namedview
     id="base"
     pagecolor="#ffffff"
     bordercolor="#666666"
     borderopacity="1.0"
     gridtolerance="10000"
     guidetolerance="10"
     objecttolerance="10"
     inkscape:pageopacity="0.0"
     inkscape:pageshadow="2"
     inkscape:zoom="1.2311444"
     inkscape:cx="119.84561"
     inkscape:cy="209.49265"
     inkscape:document-units="px"
     inkscape:current-layer="layer1"
     width="300px"
     height="300px"
     inkscape:window-width="1024"
     inkscape:window-height="712"
     inkscape:window-x="0"
     inkscape:window-y="22" />
  <metadata
     id="metadata7">
    <rdf:RDF>
      <cc:Work
         rdf:about="">
        <dc:format>image/svg+xml</dc:format>
        <dc:type
           rdf:resource="http://purl.org/dc/dcmitype/StillImage" />
      </cc:Work>
    </rdf:RDF>
  </metadata>
  <g
     inkscape:label="Layer 1"
     inkscape:groupmode="layer"
     id="layer1">
    <path
       style="fill:#000000"
       d="M 92.71794,280.2824 C 85.41817,262.54114 84.03994,238.87675 87.72427,220.06964 C 90.96937,214.81896 110.02874,208.20914 126.21556,206.72083 C 145.6865,204.93055 150.0645,203.51779 150.0645,199.02497 C 150.0645,192.68548 139.07696,188.81246 117.08537,187.40011 C 82.30767,185.16661 84.22215,190.74996 85.44018,95.11117 C 85.99062,51.890396 87.01033,15.9586 87.7062,15.262735 C 88.40205,14.566873 91.84111,15.305058 95.34856,16.903151 C 101.03922,19.495989 101.56466,20.787815 100.22972,28.903743 C 99.40693,33.90598 98.0827,51.74002 97.28698,68.534947 C 96.49126,85.32987 94.17573,99.84048 93.99712,101.51408 C 93.81567,103.21436 93.12296,107.52972 94.30723,111.8964 C 96.24304,119.03423 97.37826,119.83989 105.55147,119.87625 C 155.36917,120.09793 161.02708,120.8766 171.16588,128.90669 C 189.47686,143.40926 206.25118,164.25948 206.25118,172.51718 C 206.25118,175.6702 196.08144,172.94168 194.73267,169.42675 C 192.31602,163.12909 166.83512,136.92292 159.34672,133.03357 C 151.50758,128.9621 118.9261,128.44502 105.48162,132.17876 C 99.06072,133.96193 96.32075,136.09176 96.32075,139.29973 C 96.32075,144.82458 101.64815,146.14629 131.74279,148.08772 C 143.83512,148.86781 154.09529,150.52541 154.54317,151.77124 C 162.39516,155.91566 169.18106,162.59661 175.56558,169.30453 C 183.28221,177.70197 192.6697,187.87052 196.42661,191.90131 C 200.18354,195.93213 203.95191,202.25311 204.80082,205.94799 C 207.8738,219.32337 198.14309,213.1722 178.41929,189.27115 C 167.81434,176.42021 156.51487,164.18734 153.30933,162.087 C 149.35526,159.49617 140.00887,157.99899 124.24393,157.43098 C 102.08374,156.63258 100.91304,156.84586 98.98476,162.03306 C 96.02377,169.99824 98.35286,173.57959 106.49386,173.57959 C 110.45798,173.57959 121.08811,174.7995 130.11643,176.29047 C 147.64624,179.18547 154.46524,183.4749 164.64215,198.00856 C 167.93504,202.71119 172.598,207.99518 175.00425,209.75088 C 181.81532,220.33112 221.91178,272.78941 211.3115,283.50999 C 207.43406,283.50999 201.44785,276.14419 199.757,269.2925 C 190.33599,251.9224 180.03684,233.72142 167.60629,218.16249 C 165.41408,215.11966 161.36455,213.94395 153.55714,214.0835 C 137.07789,214.37811 136.1554,216.70736 143.99963,238.21496 C 147.72535,248.43017 151.71341,257.36888 152.86198,258.0787 C 154.01056,258.78856 154.95032,263.1521 154.95032,267.77539 C 154.95032,274.55273 154.00372,276.18132 150.0645,276.18132 C 147.37733,276.18132 145.17872,274.55727 145.17872,272.57227 C 145.17872,270.58721 139.62204,257.90672 132.83056,244.3933 L 120.48239,219.82342 L 111.45519,221.44902 C 97.01952,224.04856 95.80027,226.07012 97.25234,244.99813 C 97.96044,254.22779 99.9142,265.58025 101.59404,270.22581 C 104.20684,277.45139 104.08133,279.23929 100.7258,282.59485 C 97.12433,286.19632 96.46881,286.00705 92.71794,280.2824 z M 203.74748,126.55379 C 201.0663,122.1871 197.51049,115.57838 195.84565,111.86772 C 194.18079,108.15707 190.84161,104.49359 188.42523,103.72666 C 182.13118,101.72901 160.76983,101.80981 145.66778,103.88841 C 132.70925,105.67197 119.29527,102.52728 115.2906,96.766976 C 111.98017,92.005239 113.27168,74.142942 117.15971,70.916163 C 119.50691,68.96818 131.55405,67.38542 149.52811,66.663593 C 165.27446,66.031232 179.532,64.410032 181.21149,63.060927 C 184.78015,60.194287 185.2269,44.524132 181.89044,39.246963 C 180.0659,36.361125 173.38458,35.579912 149.55946,35.466658 C 117.72281,35.315316 110.25184,33.712707 111.5306,27.309015 C 112.22234,23.844835 116.84785,23.386577 147.97973,23.697912 C 168.00695,23.898197 185.78788,25.20585 188.5445,26.681143 C 192.35602,28.721009 193.8323,32.855058 195.15294,45.186772 C 197.06821,63.071353 195.75148,69.629219 189.66861,72.500683 C 187.36849,73.586491 172.97376,75.062174 157.68032,75.779984 C 133.38393,76.920355 129.46479,77.703612 126.63135,81.985271 C 120.33408,91.501223 128.21726,94.128996 158.61466,92.646573 C 162.64545,92.450002 171.66079,92.792099 178.64878,93.406778 C 189.75948,94.384105 192.70006,95.882945 202.07649,105.34793 C 212.80474,116.17745 216.84393,124.62502 214.37288,131.06447 C 212.28577,136.50335 209.00004,135.10848 203.74748,126.55379 z M 106.57372,52.045383 C 107.32454,48.222522 110.95712,47.770309 140.91505,47.770309 C 163.94023,47.770309 174.75806,48.650539 175.50825,50.585101 C 176.10859,52.133235 175.94265,54.05702 175.13949,54.860172 C 174.33634,55.663326 158.39156,56.320454 139.70668,56.320454 C 108.66055,56.320454 105.80644,55.95219 106.57372,52.045383 z "
       id="path2236"
       sodipodi:nodetypes="ccssssssssssssssssssccsssssssssccccsssssscccsssccssssssssssssssssssssccssssc" />
  </g>
</svg>
