<?xml version="1.0" encoding="UTF-8" standalone="no"?>
<!-- Created with Inkscape (http://www.inkscape.org/) -->

<svg
   xmlns:dc="http://purl.org/dc/elements/1.1/"
   xmlns:cc="http://creativecommons.org/ns#"
   xmlns:rdf="http://www.w3.org/1999/02/22-rdf-syntax-ns#"
   xmlns:svg="http://www.w3.org/2000/svg"
   xmlns="http://www.w3.org/2000/svg"
   version="1.1"
   width="300"
   height="300"
   id="svg2">
  <defs
     id="defs4" />
  <metadata
     id="metadata7">
    <rdf:RDF>
      <cc:Work
         rdf:about="">
        <dc:format>image/svg+xml</dc:format>
        <dc:type
           rdf:resource="http://purl.org/dc/dcmitype/StillImage" />
        <dc:title></dc:title>
      </cc:Work>
    </rdf:RDF>
  </metadata>
  <g
     transform="translate(0,-752.36218)"
     id="layer1">
    <g
       transform="translate(-87.857142,-25.000006)"
       id="g3011"
       style="fill:#ff0000" />
    <path
       d="M 141.05117,1029.9044 C 140.05604,1028.2943 138.57102,1011.5611 137.75112,992.71957 136.73783,950.0647 141.7122,959.72949 106.00831,958.22843 68.364035,957.93754 69.452625,958.09953 69.45888,952.78993 69.463498,948.86992 72.890957,948.2963 100.20856,947.64364 118.14506,947.21511 133.8028,946.44393 135.79302,944.7922 137.81673,943.11267 137.82477,935.78397 137.37527,930.42168 136.62932,921.52284 135.95735,923.07014 116.75863,916.86556 106.03266,913.39918 94.856896,908.14779 91.923611,905.19581 85.076999,898.30557 79.254421,863.19928 84.146814,858.30689 86.416593,856.03711 88.394959,855.94019 91.581893,857.94265 94.871669,860.00973 96.100781,864.88717 96.652444,878.06389 98.232895,893.78567 96.910937,895.38025 108.02347,899.85859 127.82793,908.0498 138.15431,904.19224 138.11713,887.82713 138.05538,860.64789 135.28946,867.59784 128.45416,862.32775 121.67088,857.09776 116.23481,851.25207 114.15077,848.3525 111.98199,845.33505 109.14161,839.33004 108.25381,833.77802 106.21673,821.0388 103.72776,819.05494 88.55547,818.07724 80.36451,817.54941 75.376513,815.8563 73.582597,812.99488 72.103056,810.63492 71.419623,808.20022 72.063858,807.58444 74.382373,805.36835 149.68378,804.10173 187.94108,805.63531 209.21767,806.75016 228.53194,802.58272 227.01671,813.50422 227.01671,819.68324 226.67778,819.79287 209.7213,819.09902 189.46388,818.2701 185.44175,820.62355 185.3647,833.35072 185.33425,838.38052 183.13873,847.27721 180.48577,853.12114 175.49653,864.11142 169.10346,867.67489 157.34467,866.01988 151.53233,865.20182 151.4297,865.54267 152.28255,882.83195 152.76133,892.53783 153.67336,901.32985 154.3093,902.36977 155.89966,904.97044 164.77469,904.7152 175.40045,901.76319 185.89952,898.84638 190.7858,891.32638 195.50295,870.82535 199.37202,854.01012 203.91998,848.57076 209.46997,854.12075 212.48669,857.13747 212.62216,860.50266 210.2731,874.07226 206.89809,893.56844 200.10214,908.01077 192.34461,912.17278 189.22939,913.84414 179.30662,917.00182 170.29402,919.18985 154.06387,923.13011 154.07866,921.11388 153.31343,930.31412 152.73669,937.24822 151.55247,943.05049 154.95208,944.78878 157.45685,946.06952 176.03582,946.43803 193.83789,946.48073 226.74825,946.55966 232.86738,948.1733 229.87063,955.98268 228.44343,959.70192 224.42265,959.95386 192.06845,958.35131 162.75733,956.89948 155.45878,957.21262 153.7387,959.99578 152.57014,961.88655 151.88352,976.73531 152.21288,992.99307 152.62799,1013.4837 151.82695,1024.1294 149.60191,1027.6923 145.95493,1033.532 143.66006,1034.1257 141.05117,1029.9044 z M 165.89885,849.48446 C 167.83442,847.54889 171.29534,839.86795 172.0465,834.26764 173.15281,826.0195 172.26493,821.85262 168.44933,819.87022 161.14354,816.07448 141.23967,815.57206 131.33758,817.4297 123.77638,818.84819 122.39547,820.13504 122.39878,825.75957 122.40553,837.22747 126.0765,850.12032 138.78141,851.76138 149.25844,853.11467 161.63148,853.75184 165.89885,849.48446 z M 145.11495,785.85943 C 102.08403,784.61598 98.437519,784.14887 97.597988,779.77269 96.181507,772.38907 100.85005,771.24225 127.03082,772.54256 140.42642,773.20788 159.89486,773.97252 170.29402,774.24177 202.82733,775.0841 205.67623,775.50628 207.29511,779.72504 209.11716,784.47321 203.9038,788.42712 196.76461,787.71159 193.9915,787.43365 170.74915,786.60018 145.11495,785.85943 z"
       id="path3807"
       style="fill:#000000" />
  </g>
</svg>
