<?xml version="1.0" encoding="UTF-8" standalone="no"?>
<!-- Created with Inkscape (http://www.inkscape.org/) -->
<svg
   xmlns:dc="http://purl.org/dc/elements/1.1/"
   xmlns:cc="http://web.resource.org/cc/"
   xmlns:rdf="http://www.w3.org/1999/02/22-rdf-syntax-ns#"
   xmlns:svg="http://www.w3.org/2000/svg"
   xmlns="http://www.w3.org/2000/svg"
   xmlns:sodipodi="http://sodipodi.sourceforge.net/DTD/sodipodi-0.dtd"
   xmlns:inkscape="http://www.inkscape.org/namespaces/inkscape"
   width="300"
   height="300"
   id="svg2"
   sodipodi:version="0.32"
   inkscape:version="0.45.1"
   version="1.0"
   sodipodi:docbase="C:\Documents and Settings\Martin\桌面"
   sodipodi:docname="drawing.svg"
   inkscape:output_extension="org.inkscape.output.svg.inkscape">
  <defs
     id="defs4" />
  <sodipodi:namedview
     id="base"
     pagecolor="#ffffff"
     bordercolor="#666666"
     borderopacity="1.0"
     gridtolerance="10000"
     guidetolerance="10"
     objecttolerance="10"
     inkscape:pageopacity="0.0"
     inkscape:pageshadow="2"
     inkscape:zoom="2.8"
     inkscape:cx="101.57642"
     inkscape:cy="128.16128"
     inkscape:document-units="px"
     inkscape:current-layer="layer1"
     width="300px"
     height="300px"
     inkscape:window-width="742"
     inkscape:window-height="577"
     inkscape:window-x="22"
     inkscape:window-y="0" />
  <metadata
     id="metadata7">
    <rdf:RDF>
      <cc:Work
         rdf:about="">
        <dc:format>image/svg+xml</dc:format>
        <dc:type
           rdf:resource="http://purl.org/dc/dcmitype/StillImage" />
      </cc:Work>
    </rdf:RDF>
  </metadata>
  <g
     inkscape:label="Layer 1"
     inkscape:groupmode="layer"
     id="layer1">
    <path
       style="fill:#000000"
       d="M 129.59903,282.85133 C 126.23337,281.49326 125.66546,274.65497 128.64028,271.30684 C 136.45761,262.5085 147.90402,213.97584 147.90402,189.62881 C 147.90402,178.88142 147.51038,178.12853 141.89127,178.12853 C 134.29623,178.12853 99.260567,166.88225 95.33864,163.18538 C 93.721595,161.66113 89.592649,158.96843 86.163218,157.20161 C 80.138962,154.09796 72.762258,143.83398 74.969533,141.62672 C 75.563483,141.03275 80.790867,142.19063 86.585945,144.19978 C 110.34777,152.43802 147.78315,157.04405 148.08473,151.76654 C 148.18412,150.02733 148.61551,146.78525 149.04338,144.56189 C 150.1967,138.56858 144.60064,121.42535 140.6815,118.94567 C 138.8081,117.76036 134.38087,116.77428 130.84318,116.75439 C 120.89926,116.69848 104.55201,107.6389 98.525807,98.844235 C 86.188416,80.838966 82.563547,61.647113 91.930099,48.219437 C 94.335408,44.771238 95.921433,42.616675 98.353807,39.952663 C 116.05879,20.561609 143.74502,15.685215 168.46603,15.771972 C 191.27534,17.194997 196.73051,20.017377 205.4589,34.911238 C 214.14866,49.739213 213.97267,64.970321 204.94879,79.055318 C 196.3395,92.493195 183.98399,105.30753 175.50124,109.5964 C 169.36456,112.69909 165.37233,121.39864 166.00063,130.29934 C 166.11525,131.92317 166.34188,136.97181 166.50426,141.51854 C 166.86814,151.70676 170.77336,152.17998 188.58006,144.19354 C 201.55043,138.37624 211.67627,130.78934 211.67627,126.88847 C 211.67627,125.64201 214.86487,125.09016 218.76206,125.66215 C 227.22653,126.90446 227.37255,127.97013 220.67356,139.61207 C 212.8745,153.16582 193.89349,170.55158 183.86242,173.32945 C 167.57909,177.83876 164.43757,183.11665 164.43757,205.96402 C 164.43757,214.949 163.46854,225.38186 162.28415,229.14816 C 159.05871,243.19555 147.51561,276.57478 135.19001,284.22911 C 133.7388,284.12656 131.22286,283.50656 129.59903,282.85133 z M 162.48691,92.88906 C 177.73098,85.112113 183.88197,77.541756 186.06206,63.873716 C 187.98891,51.793638 184.58187,38.922794 178.45498,35.136175 C 158.20536,28.739701 147.82567,33.945595 130.18951,38.839094 C 122.24732,40.964023 115.86597,44.715934 110.70355,50.295868 C 106.4816,54.859271 103.02726,59.255235 103.02726,60.064653 C 103.02726,66.667882 111.56601,87.680736 116.08604,92.200761 C 120.86911,96.983825 124.02902,97.822745 137.26206,97.822745 C 148.37544,97.822745 155.5771,96.414185 162.48691,92.88906 z "
       id="path2216"
       sodipodi:nodetypes="csssssssssssssscsssssssssssccccsccssssc" />
  </g>
</svg>
