<?xml version="1.0" encoding="UTF-8" standalone="no"?>
<!-- Created with Inkscape (http://www.inkscape.org/) -->
<svg
   xmlns:dc="http://purl.org/dc/elements/1.1/"
   xmlns:cc="http://web.resource.org/cc/"
   xmlns:rdf="http://www.w3.org/1999/02/22-rdf-syntax-ns#"
   xmlns:svg="http://www.w3.org/2000/svg"
   xmlns="http://www.w3.org/2000/svg"
   xmlns:sodipodi="http://sodipodi.sourceforge.net/DTD/sodipodi-0.dtd"
   xmlns:inkscape="http://www.inkscape.org/namespaces/inkscape"
   id="svg2384"
   sodipodi:version="0.32"
   inkscape:version="0.45.1"
   width="300"
   height="300"
   version="1.0"
   sodipodi:docbase="/home/michelet/Images/Temp"
   sodipodi:docname="衣-oracle.svg"
   inkscape:output_extension="org.inkscape.output.svg.inkscape">
  <metadata
     id="metadata2389">
    <rdf:RDF>
      <cc:Work
         rdf:about="">
        <dc:format>image/svg+xml</dc:format>
        <dc:type
           rdf:resource="http://purl.org/dc/dcmitype/StillImage" />
      </cc:Work>
    </rdf:RDF>
  </metadata>
  <defs
     id="defs2387" />
  <sodipodi:namedview
     inkscape:window-height="941"
     inkscape:window-width="1269"
     inkscape:pageshadow="2"
     inkscape:pageopacity="0.0"
     guidetolerance="10.0"
     gridtolerance="10.0"
     objecttolerance="10.0"
     borderopacity="1.0"
     bordercolor="#666666"
     pagecolor="#ffffff"
     id="base"
     width="300px"
     height="300px"
     inkscape:zoom="2"
     inkscape:cx="36.5"
     inkscape:cy="118.5"
     inkscape:window-x="0"
     inkscape:window-y="27"
     inkscape:current-layer="svg2384" />
  <path
     style="fill:#000000"
     d="M 168.33207,276.74251 C 150.5682,245.84362 113.58611,217.93241 108.50135,172.98898 C 108.32194,165.9871 107.20483,157.0613 106.01888,153.15386 L 103.8626,146.04944 L 97.656863,152.39662 C 91.047341,159.15678 77.923886,160.89174 74.312339,155.48282 C 70.546145,149.84228 104.27199,125.42489 115.82903,125.42489 C 121.29736,125.42489 121.92221,128.12322 121.96646,151.92857 C 121.99673,168.21198 123.93485,183.10435 126.9925,190.5482 C 129.72972,197.21198 132.82446,205.04949 133.86971,207.96489 C 136.69887,215.85598 139.62336,214.4982 146.91792,201.90691 C 150.53721,195.65962 155.20489,187.82211 157.29056,184.49022 C 165.53306,171.32268 180.82057,137.07535 180.82057,131.77791 C 180.82057,128.69172 183.24353,124.30538 186.20491,122.03047 C 190.83985,118.46995 192.09236,118.69419 195.20404,123.64154 C 197.19217,126.80254 202.86845,133.7883 207.81797,139.16545 C 221.35334,153.87025 219.03084,166.66451 205.36366,152.68581 C 196.28909,143.40441 189.24158,145.17674 184.28579,157.98655 C 176.59501,177.86577 165.15288,199.3071 156.49266,210.06786 C 139.50745,232.42054 171.46605,258.60573 181.7402,280.78167 C 185.19948,289.12584 176.71792,286.57076 168.33207,276.74251 z M 53.19657,138.12933 C 53.19657,131.92377 79.181155,106.70796 140.73355,53.182232 C 148.38281,46.530465 154.6413,38.31929 154.6413,34.935177 C 154.6413,27.255843 161.30388,13.352243 164.9838,13.352243 C 166.49472,13.352243 167.73094,21.38236 167.73094,31.196948 C 167.73094,48.627726 168.12945,49.421031 184.9111,65.396779 C 194.36018,74.392096 204.30012,84.426836 206.99987,87.696199 C 228.37479,113.58105 235.19213,121.20154 238.88646,123.33932 C 243.31248,125.90048 241.55833,131.48288 236.32752,131.48288 C 232.94097,131.48288 206.79084,107.02766 183.07948,81.686097 C 161.33915,58.451067 158.04032,57.216823 144.47365,67.24194 C 138.367,71.754475 125.92609,82.261781 116.82722,90.591505 C 103.45817,102.51552 77.796385,124.58286 63.773239,134.51187 C 59.701676,140.54651 53.19657,142.77141 53.19657,138.12933 z "
     id="path2393"
     sodipodi:nodetypes="cccccsssssssssssssccccssssssssssccc" />
</svg>
