<?xml version="1.0" encoding="UTF-8" standalone="no"?>
<!-- Created with Inkscape (http://www.inkscape.org/) -->

<svg
   xmlns:dc="http://purl.org/dc/elements/1.1/"
   xmlns:cc="http://creativecommons.org/ns#"
   xmlns:rdf="http://www.w3.org/1999/02/22-rdf-syntax-ns#"
   xmlns:svg="http://www.w3.org/2000/svg"
   xmlns="http://www.w3.org/2000/svg"
   xmlns:sodipodi="http://sodipodi.sourceforge.net/DTD/sodipodi-0.dtd"
   xmlns:inkscape="http://www.inkscape.org/namespaces/inkscape"
   width="300"
   height="300"
   id="svg2"
   version="1.1"
   inkscape:version="0.47 r22583"
   sodipodi:docname="囗-bronze.svg">
  <defs
     id="defs4">
    <inkscape:perspective
       sodipodi:type="inkscape:persp3d"
       inkscape:vp_x="0 : 526.18109 : 1"
       inkscape:vp_y="0 : 1000 : 0"
       inkscape:vp_z="744.09448 : 526.18109 : 1"
       inkscape:persp3d-origin="372.04724 : 350.78739 : 1"
       id="perspective10" />
    <inkscape:perspective
       id="perspective2824"
       inkscape:persp3d-origin="0.5 : 0.33333333 : 1"
       inkscape:vp_z="1 : 0.5 : 1"
       inkscape:vp_y="0 : 1000 : 0"
       inkscape:vp_x="0 : 0.5 : 1"
       sodipodi:type="inkscape:persp3d" />
    <inkscape:perspective
       id="perspective2907"
       inkscape:persp3d-origin="0.5 : 0.33333333 : 1"
       inkscape:vp_z="1 : 0.5 : 1"
       inkscape:vp_y="0 : 1000 : 0"
       inkscape:vp_x="0 : 0.5 : 1"
       sodipodi:type="inkscape:persp3d" />
    <inkscape:perspective
       id="perspective2951"
       inkscape:persp3d-origin="0.5 : 0.33333333 : 1"
       inkscape:vp_z="1 : 0.5 : 1"
       inkscape:vp_y="0 : 1000 : 0"
       inkscape:vp_x="0 : 0.5 : 1"
       sodipodi:type="inkscape:persp3d" />
  </defs>
  <sodipodi:namedview
     id="base"
     pagecolor="#ffffff"
     bordercolor="#666666"
     borderopacity="1.0"
     inkscape:pageopacity="0.0"
     inkscape:pageshadow="2"
     inkscape:zoom="1.4"
     inkscape:cx="175.27384"
     inkscape:cy="138.02119"
     inkscape:document-units="px"
     inkscape:current-layer="layer1"
     showgrid="false"
     inkscape:window-width="1280"
     inkscape:window-height="950"
     inkscape:window-x="0"
     inkscape:window-y="25"
     inkscape:window-maximized="1" />
  <metadata
     id="metadata7">
    <rdf:RDF>
      <cc:Work
         rdf:about="">
        <dc:format>image/svg+xml</dc:format>
        <dc:type
           rdf:resource="http://purl.org/dc/dcmitype/StillImage" />
        <dc:title></dc:title>
      </cc:Work>
    </rdf:RDF>
  </metadata>
  <g
     inkscape:label="Calque 1"
     inkscape:groupmode="layer"
     id="layer1"
     transform="translate(0,-752.36218)">
    <path
       style="fill:#000000"
       d="m 160.43337,1030.1728 c -32.56089,-6.1872 -67.355018,-2.8928 -97.984847,-17.4523 3.214653,-12.6282 18.502005,-13.17446 28.947959,-10.7708 10.198928,1.1317 26.990988,9.1614 33.581198,3.2439 -8.52153,-12.5573 -12.41226,-32.72602 -21.02034,-45.21061 -9.906989,-23.46852 -0.99546,-44.22502 12.61572,-63.91981 7.45062,-13.97358 29.72207,-20.05404 23.77225,-38.62395 -2.25815,-22.2265 -12.99549,-44.95162 -5.15093,-67.17542 7.25583,-13.63626 24.08838,-3.3143 20.13646,9.85151 2.10115,21.43872 5.61753,48.61767 9.13381,66.29115 18.67379,26.82002 29.37101,51.64474 30.8363,73.11641 1.33674,19.58804 -6.9843,51.75613 -16.50136,68.67332 17.0825,-1.0389 35.28723,-3.5513 51.32256,4.0533 9.70745,12.0549 -11.9322,18.7466 -21.22132,17.0849 -16.07064,-1.0537 -32.32141,3.0162 -48.46746,0.8384 z m 5.44171,-36.5606 c 13.97888,-26.04722 2.02946,-57.01456 -3.11213,-83.58549 -3.19865,-16.53009 -25.03919,-14.00859 -32.40265,0.69922 -7.53638,15.05321 -6.65309,30.71801 -3.84965,47.45586 2.20182,14.7346 8.68181,29.93603 20.39452,39.48106 6.00856,3.73655 16.49032,4.19345 18.96991,-4.05065 z M 43.452384,940.57644 c -7.663797,-22.91679 0.987616,-46.59869 3.59956,-69.57483 10.938736,-11.22161 27.44256,5.33592 24.57364,17.92672 -0.645978,18.04559 -2.781772,38.9654 -17.416366,51.44691 -2.965251,2.91013 -7.718923,3.15643 -10.756834,0.2012 z M 237.54438,924.92591 c -7.10583,-28.37818 -5.97869,-57.83846 -7.74316,-86.8172 8.05334,-11.99023 26.83786,-4.04656 30.66629,7.75887 9.6084,22.94283 7.67175,50.30942 -3.79679,72.20854 -3.12584,6.57294 -13.24316,15.87894 -19.12634,6.84979 z"
       id="path2957"
       sodipodi:nodetypes="ccccccccccscccccssccccccccccccc" />
  </g>
</svg>
