<?xml version="1.0" encoding="UTF-8" standalone="no"?>
<!-- Created with Inkscape (http://www.inkscape.org/) -->
<svg
   xmlns:dc="http://purl.org/dc/elements/1.1/"
   xmlns:cc="http://web.resource.org/cc/"
   xmlns:rdf="http://www.w3.org/1999/02/22-rdf-syntax-ns#"
   xmlns:svg="http://www.w3.org/2000/svg"
   xmlns="http://www.w3.org/2000/svg"
   xmlns:sodipodi="http://sodipodi.sourceforge.net/DTD/sodipodi-0.dtd"
   xmlns:inkscape="http://www.inkscape.org/namespaces/inkscape"
   width="300"
   height="300"
   id="svg2"
   sodipodi:version="0.32"
   inkscape:version="0.45.1"
   version="1.0"
   sodipodi:docbase="C:\Documents and Settings\Martin\桌面"
   sodipodi:docname="drawing.svg"
   inkscape:output_extension="org.inkscape.output.svg.inkscape">
  <defs
     id="defs4" />
  <sodipodi:namedview
     id="base"
     pagecolor="#ffffff"
     bordercolor="#666666"
     borderopacity="1.0"
     gridtolerance="10000"
     guidetolerance="10"
     objecttolerance="10"
     inkscape:pageopacity="0.0"
     inkscape:pageshadow="2"
     inkscape:zoom="1"
     inkscape:cx="266.16365"
     inkscape:cy="161.99229"
     inkscape:document-units="px"
     inkscape:current-layer="layer1"
     width="300px"
     height="300px"
     inkscape:window-width="742"
     inkscape:window-height="577"
     inkscape:window-x="50"
     inkscape:window-y="0" />
  <metadata
     id="metadata7">
    <rdf:RDF>
      <cc:Work
         rdf:about="">
        <dc:format>image/svg+xml</dc:format>
        <dc:type
           rdf:resource="http://purl.org/dc/dcmitype/StillImage" />
      </cc:Work>
    </rdf:RDF>
  </metadata>
  <g
     inkscape:label="Layer 1"
     inkscape:groupmode="layer"
     id="layer1">
    <path
       style="fill:#000000"
       d="M 50.552445,264.40828 C 50.552445,261.88737 63.309123,254.64726 78.900557,248.31917 C 105.53342,237.5097 107.91478,235.04147 118.25711,207.52713 C 146.34521,132.80285 131.72938,71.932562 85.698935,71.932562 C 59.88175,71.932562 70.509516,62.599991 106.29947,53.842628 C 125.55163,49.131876 150.63778,42.867986 162.04647,39.922884 C 173.45517,36.977834 194.59728,33.450526 209.02897,32.084543 C 246.88259,28.501488 250.43381,34.575372 249.26851,100.90804 C 248.18074,162.82725 237.95462,187.51878 204.98915,207.82267 C 194.35889,214.37006 189.80861,217.50107 185.52194,219.87409 C 176.97327,224.90479 163.97878,231.32513 156.36101,234.71871 C 97.155235,263.0803 50.552445,276.15689 50.552445,264.40828 z M 174.567,196.67587 C 187.65702,188.276 202.68376,174.09572 207.95982,165.16412 C 218.41371,147.46706 225.04443,96.40384 219.66944,74.988062 C 216.73834,63.309719 213.56642,61.561025 195.31427,61.561025 C 157.32458,61.561025 154.29827,65.852144 154.04198,120.08335 C 153.91779,146.36561 151.89751,177.78706 149.55251,189.9088 C 147.20756,202.03052 146.52147,211.94831 148.02795,211.94831 C 149.53442,211.94831 161.47697,205.07572 174.567,196.67587 z "
       id="path2328"
       sodipodi:nodetypes="cssssssssccccssssssc" />
  </g>
</svg>
