<?xml version="1.0" encoding="UTF-8" standalone="no"?>
<!-- Created with Inkscape (http://www.inkscape.org/) -->

<svg
   xmlns:dc="http://purl.org/dc/elements/1.1/"
   xmlns:cc="http://creativecommons.org/ns#"
   xmlns:rdf="http://www.w3.org/1999/02/22-rdf-syntax-ns#"
   xmlns:svg="http://www.w3.org/2000/svg"
   xmlns="http://www.w3.org/2000/svg"
   xmlns:sodipodi="http://sodipodi.sourceforge.net/DTD/sodipodi-0.dtd"
   xmlns:inkscape="http://www.inkscape.org/namespaces/inkscape"
   width="300"
   height="300"
   id="svg2"
   version="1.1"
   inkscape:version="0.47 r22583"
   sodipodi:docname="飛-bigseal.svg">
  <defs
     id="defs4">
    <inkscape:perspective
       sodipodi:type="inkscape:persp3d"
       inkscape:vp_x="0 : 526.18109 : 1"
       inkscape:vp_y="0 : 1000 : 0"
       inkscape:vp_z="744.09448 : 526.18109 : 1"
       inkscape:persp3d-origin="372.04724 : 350.78739 : 1"
       id="perspective10" />
    <inkscape:perspective
       id="perspective2824"
       inkscape:persp3d-origin="0.5 : 0.33333333 : 1"
       inkscape:vp_z="1 : 0.5 : 1"
       inkscape:vp_y="0 : 1000 : 0"
       inkscape:vp_x="0 : 0.5 : 1"
       sodipodi:type="inkscape:persp3d" />
    <inkscape:perspective
       id="perspective2861"
       inkscape:persp3d-origin="0.5 : 0.33333333 : 1"
       inkscape:vp_z="1 : 0.5 : 1"
       inkscape:vp_y="0 : 1000 : 0"
       inkscape:vp_x="0 : 0.5 : 1"
       sodipodi:type="inkscape:persp3d" />
    <inkscape:perspective
       id="perspective2900"
       inkscape:persp3d-origin="0.5 : 0.33333333 : 1"
       inkscape:vp_z="1 : 0.5 : 1"
       inkscape:vp_y="0 : 1000 : 0"
       inkscape:vp_x="0 : 0.5 : 1"
       sodipodi:type="inkscape:persp3d" />
  </defs>
  <sodipodi:namedview
     id="base"
     pagecolor="#ffffff"
     bordercolor="#666666"
     borderopacity="1.0"
     inkscape:pageopacity="0.0"
     inkscape:pageshadow="2"
     inkscape:zoom="1.979899"
     inkscape:cx="99.333779"
     inkscape:cy="152.67396"
     inkscape:document-units="px"
     inkscape:current-layer="layer1"
     showgrid="false"
     inkscape:window-width="1280"
     inkscape:window-height="950"
     inkscape:window-x="0"
     inkscape:window-y="25"
     inkscape:window-maximized="1" />
  <metadata
     id="metadata7">
    <rdf:RDF>
      <cc:Work
         rdf:about="">
        <dc:format>image/svg+xml</dc:format>
        <dc:type
           rdf:resource="http://purl.org/dc/dcmitype/StillImage" />
        <dc:title></dc:title>
      </cc:Work>
    </rdf:RDF>
  </metadata>
  <g
     inkscape:label="Calque 1"
     inkscape:groupmode="layer"
     id="layer1"
     transform="translate(0,-752.36218)">
    <path
       style="fill:#000000"
       d="m 24.460481,1034.7117 c -2.566174,-17.5203 7.34734,-33.8383 15.960878,-48.29008 15.890535,-22.06205 38.287061,-38.12356 58.428459,-56.00938 12.127922,-10.0502 25.417872,-19.30533 34.832582,-32.09604 6.76572,-12.38496 -5.87279,-33.34032 -18.01173,-18.43369 -27.320616,17.84737 -53.852326,37.01713 -78.378278,58.58109 -2.877086,15.80095 -29.0847882,6.14772 -15.463873,-6.36176 22.121148,-28.75489 53.690636,-47.78562 82.323731,-69.3024 24.21675,-17.7365 48.92172,-34.87517 74.51896,-50.52494 4.85033,-9.82445 -15.87925,-34.40517 7.53949,-30.61556 12.36151,5.93504 19.25991,18.86215 27.64396,29.18278 8.71395,12.85426 18.88854,26.1899 20.97098,41.95707 -0.87176,16.88352 -19.02271,23.06829 -31.68266,29.86838 -13.51252,6.8765 -27.67276,13.0188 -39.32009,22.9393 7.62852,16.27587 22.02247,27.90089 33.92977,40.97964 21.67858,21.90334 46.70213,40.13029 68.91506,61.41659 9.84607,5.2228 9.70856,26.2197 -4.30556,17.7185 -23.11571,-9.6531 -41.69382,-27.30102 -60.3333,-43.53212 -18.74099,-17.57976 -35.16784,-37.52175 -49.96478,-58.45796 -9.67756,-11.70932 -21.46308,-0.0583 -29.24763,7.18714 -30.016219,24.21411 -55.362992,54.03666 -74.169281,87.72104 -4.69891,5.8054 -16.100175,29.5309 -24.186688,16.0724 z M 185.39438,871.11788 c 10.80696,-7.28134 31.721,-14.97751 25.5121,-31.56184 -9.44441,-16.13868 -30.37822,-7.982 -42.48964,0.15039 -14.11179,7.32991 -28.61526,22.8005 -18.40765,39.22956 6.69097,14.11883 20.37072,-0.65481 29.29108,-4.31681 2.03367,-1.16308 4.06433,-2.33144 6.09411,-3.5013 z"
       id="path2906" />
  </g>
</svg>
