<?xml version="1.0" encoding="UTF-8" standalone="no"?>
<!-- Created with Inkscape (http://www.inkscape.org/) -->

<svg
   xmlns:dc="http://purl.org/dc/elements/1.1/"
   xmlns:cc="http://creativecommons.org/ns#"
   xmlns:rdf="http://www.w3.org/1999/02/22-rdf-syntax-ns#"
   xmlns:svg="http://www.w3.org/2000/svg"
   xmlns="http://www.w3.org/2000/svg"
   xmlns:sodipodi="http://sodipodi.sourceforge.net/DTD/sodipodi-0.dtd"
   xmlns:inkscape="http://www.inkscape.org/namespaces/inkscape"
   width="300"
   height="300"
   id="svg2"
   version="1.1"
   inkscape:version="0.47 r22583"
   sodipodi:docname="夂-bigseal.svg">
  <defs
     id="defs4">
    <inkscape:perspective
       sodipodi:type="inkscape:persp3d"
       inkscape:vp_x="0 : 526.18109 : 1"
       inkscape:vp_y="0 : 1000 : 0"
       inkscape:vp_z="744.09448 : 526.18109 : 1"
       inkscape:persp3d-origin="372.04724 : 350.78739 : 1"
       id="perspective10" />
    <inkscape:perspective
       id="perspective2824"
       inkscape:persp3d-origin="0.5 : 0.33333333 : 1"
       inkscape:vp_z="1 : 0.5 : 1"
       inkscape:vp_y="0 : 1000 : 0"
       inkscape:vp_x="0 : 0.5 : 1"
       sodipodi:type="inkscape:persp3d" />
    <inkscape:perspective
       id="perspective2861"
       inkscape:persp3d-origin="0.5 : 0.33333333 : 1"
       inkscape:vp_z="1 : 0.5 : 1"
       inkscape:vp_y="0 : 1000 : 0"
       inkscape:vp_x="0 : 0.5 : 1"
       sodipodi:type="inkscape:persp3d" />
    <inkscape:perspective
       id="perspective2900"
       inkscape:persp3d-origin="0.5 : 0.33333333 : 1"
       inkscape:vp_z="1 : 0.5 : 1"
       inkscape:vp_y="0 : 1000 : 0"
       inkscape:vp_x="0 : 0.5 : 1"
       sodipodi:type="inkscape:persp3d" />
    <inkscape:perspective
       id="perspective2940"
       inkscape:persp3d-origin="0.5 : 0.33333333 : 1"
       inkscape:vp_z="1 : 0.5 : 1"
       inkscape:vp_y="0 : 1000 : 0"
       inkscape:vp_x="0 : 0.5 : 1"
       sodipodi:type="inkscape:persp3d" />
    <inkscape:perspective
       id="perspective2979"
       inkscape:persp3d-origin="0.5 : 0.33333333 : 1"
       inkscape:vp_z="1 : 0.5 : 1"
       inkscape:vp_y="0 : 1000 : 0"
       inkscape:vp_x="0 : 0.5 : 1"
       sodipodi:type="inkscape:persp3d" />
  </defs>
  <sodipodi:namedview
     id="base"
     pagecolor="#ffffff"
     bordercolor="#666666"
     borderopacity="1.0"
     inkscape:pageopacity="0.0"
     inkscape:pageshadow="2"
     inkscape:zoom="1.979899"
     inkscape:cx="99.333779"
     inkscape:cy="152.67396"
     inkscape:document-units="px"
     inkscape:current-layer="layer1"
     showgrid="false"
     inkscape:window-width="1280"
     inkscape:window-height="950"
     inkscape:window-x="0"
     inkscape:window-y="25"
     inkscape:window-maximized="1" />
  <metadata
     id="metadata7">
    <rdf:RDF>
      <cc:Work
         rdf:about="">
        <dc:format>image/svg+xml</dc:format>
        <dc:type
           rdf:resource="http://purl.org/dc/dcmitype/StillImage" />
        <dc:title></dc:title>
      </cc:Work>
    </rdf:RDF>
  </metadata>
  <g
     inkscape:label="Calque 1"
     inkscape:groupmode="layer"
     id="layer1"
     transform="translate(0,-752.36218)">
    <path
       style="fill:#000000"
       d="m 71.45953,964.16471 1.761088,-61.38462 -13.948046,-1.91855 c -17.650777,-2.42785 -17.944024,-7.16167 -0.605888,-9.78067 l 13.342159,-2.0154 1.268049,-34.2991 1.268049,-34.2991 15.73407,-6.01888 c 8.653738,-3.31038 16.745549,-6.99695 17.981799,-8.19236 1.23624,-1.19542 11.71549,-6.60332 23.28721,-12.01756 20.33958,-9.51659 44.14451,-13.13709 44.14451,-6.71394 0,3.32723 49.65867,26.49086 54.63808,25.48632 1.61723,-0.32625 5.16085,1.24684 7.87471,3.49577 3.4844,2.88747 3.61109,8.88746 0.43115,20.41939 -2.4767,8.98173 -4.5031,22.40129 -4.5031,29.82123 l 0,13.49079 23.02768,0 c 19.95935,0 22.282,0.61794 17.43135,4.6376 -3.14446,2.60576 -12.94399,4.63759 -22.3672,4.63759 l -16.77086,0 -2.84116,28.5985 c -1.56264,15.72918 -4.18003,42.16347 -5.81643,58.74287 -2.31203,23.42481 -4.43756,30.14441 -9.53519,30.14441 -5.45065,0 -6.11416,-4.5746 -3.92376,-27.05268 8.94687,-91.81383 8.94509,-91.52639 0.55409,-89.31189 -4.30273,1.13555 -31.34715,2.89859 -60.0987,3.91786 -28.75156,1.01928 -55.494056,3.01558 -59.427771,4.43622 -5.970154,2.15608 -7.648512,12.03171 -10.155115,59.75377 -2.897775,55.16932 -4.891615,66.80702 -11.445709,66.80702 -1.686382,0 -2.273663,-27.62304 -1.305065,-61.38459 z m 116.12975,-79.54102 c 31.31,-1.90583 32.19521,-2.19259 34.83973,-11.28638 1.4924,-5.13197 2.6018,-17.85244 2.46533,-28.26771 l -0.24814,-18.93685 -31.32553,-16.23158 c -30.00747,-15.54862 -40.10538,-19.03405 -40.10538,-13.84292 0,1.31376 -7.57153,5.13978 -16.82563,8.50226 -9.25409,3.36247 -19.87459,7.82628 -23.6011,9.91955 -3.72651,2.09328 -10.2171,5.57148 -14.423518,7.72933 -6.118985,3.13898 -7.988709,10.3198 -9.352017,35.91714 l -1.703973,31.99378 34.076978,-1.77055 c 18.74234,-0.97381 48.5338,-2.65054 66.20325,-3.72607 z"
       id="path2985"
       sodipodi:nodetypes="ccccccccsssssscccscccssssssssccscccsssscccc" />
  </g>
</svg>
