<?xml version="1.0" encoding="UTF-8" standalone="no"?>
<!-- Created with Inkscape (http://www.inkscape.org/) -->

<svg
   xmlns:dc="http://purl.org/dc/elements/1.1/"
   xmlns:cc="http://creativecommons.org/ns#"
   xmlns:rdf="http://www.w3.org/1999/02/22-rdf-syntax-ns#"
   xmlns:svg="http://www.w3.org/2000/svg"
   xmlns="http://www.w3.org/2000/svg"
   xmlns:sodipodi="http://sodipodi.sourceforge.net/DTD/sodipodi-0.dtd"
   xmlns:inkscape="http://www.inkscape.org/namespaces/inkscape"
   width="300"
   height="300"
   id="svg2"
   version="1.1"
   inkscape:version="0.47 r22583"
   sodipodi:docname="夂-seal.svg">
  <defs
     id="defs4">
    <inkscape:perspective
       sodipodi:type="inkscape:persp3d"
       inkscape:vp_x="0 : 526.18109 : 1"
       inkscape:vp_y="0 : 1000 : 0"
       inkscape:vp_z="744.09448 : 526.18109 : 1"
       inkscape:persp3d-origin="372.04724 : 350.78739 : 1"
       id="perspective10" />
    <inkscape:perspective
       id="perspective2824"
       inkscape:persp3d-origin="0.5 : 0.33333333 : 1"
       inkscape:vp_z="1 : 0.5 : 1"
       inkscape:vp_y="0 : 1000 : 0"
       inkscape:vp_x="0 : 0.5 : 1"
       sodipodi:type="inkscape:persp3d" />
    <inkscape:perspective
       id="perspective2861"
       inkscape:persp3d-origin="0.5 : 0.33333333 : 1"
       inkscape:vp_z="1 : 0.5 : 1"
       inkscape:vp_y="0 : 1000 : 0"
       inkscape:vp_x="0 : 0.5 : 1"
       sodipodi:type="inkscape:persp3d" />
    <inkscape:perspective
       id="perspective2900"
       inkscape:persp3d-origin="0.5 : 0.33333333 : 1"
       inkscape:vp_z="1 : 0.5 : 1"
       inkscape:vp_y="0 : 1000 : 0"
       inkscape:vp_x="0 : 0.5 : 1"
       sodipodi:type="inkscape:persp3d" />
    <inkscape:perspective
       id="perspective2940"
       inkscape:persp3d-origin="0.5 : 0.33333333 : 1"
       inkscape:vp_z="1 : 0.5 : 1"
       inkscape:vp_y="0 : 1000 : 0"
       inkscape:vp_x="0 : 0.5 : 1"
       sodipodi:type="inkscape:persp3d" />
  </defs>
  <sodipodi:namedview
     id="base"
     pagecolor="#ffffff"
     bordercolor="#666666"
     borderopacity="1.0"
     inkscape:pageopacity="0.0"
     inkscape:pageshadow="2"
     inkscape:zoom="1.979899"
     inkscape:cx="99.333779"
     inkscape:cy="152.67396"
     inkscape:document-units="px"
     inkscape:current-layer="layer1"
     showgrid="false"
     inkscape:window-width="1280"
     inkscape:window-height="950"
     inkscape:window-x="0"
     inkscape:window-y="25"
     inkscape:window-maximized="1" />
  <metadata
     id="metadata7">
    <rdf:RDF>
      <cc:Work
         rdf:about="">
        <dc:format>image/svg+xml</dc:format>
        <dc:type
           rdf:resource="http://purl.org/dc/dcmitype/StillImage" />
        <dc:title></dc:title>
      </cc:Work>
    </rdf:RDF>
  </metadata>
  <g
     inkscape:label="Calque 1"
     inkscape:groupmode="layer"
     id="layer1"
     transform="translate(0,-752.36218)">
    <path
       style="fill:#000000"
       d="m 194.4439,811.13626 c 18.22213,5.43992 21.39031,3.49788 36.28395,11.54671 26.20099,13.49715 35.50074,48.19644 23.71962,74.38955 -10.1436,26.74869 -38.73055,37.754 -59.30718,54.74599 -13.04928,6.02713 -11.03622,27.91342 6.21482,20.61459 18.80494,1.6795 48.57114,-10.41477 60.78501,5.26686 -13.94569,9.88193 -32.9516,3.58226 -49.06843,5.68199 -12.00951,-2.34942 -24.72145,5.97075 -11.06726,16.27888 5.88913,12.99407 38.67804,16.51717 26.70953,33.16147 -16.53209,7.2606 -31.51815,-9.0287 -41.60015,-20.2767 -9.06312,-12.76384 -14.48198,-32.15311 -34.37469,-25.58217 -14.97905,-2.73078 -29.88016,3.87773 -39.57193,15.24847 -14.80827,11.146 -32.797995,38.6199 -52.76181,29.3773 -0.354046,-19.2064 25.66108,-24.7066 36.006917,-38.80544 6.758793,-9.98169 -19.930436,-4.40038 -27.76368,-5.0992 -9.829245,-2.13416 -31.934454,7.61195 -32.226238,-5.41216 12.982555,-8.12888 29.296435,-3.31153 43.750616,-5.57416 10.867776,1.04304 39.631955,-0.88193 22.233725,-16.36792 C 81.937627,945.39237 54.489764,932.91718 49.247723,905.258 c -5.147538,-30.54574 3.123873,-68.31759 33.470016,-82.78395 15.07732,-12.37133 46.698471,0.45217 51.256711,-22.07875 1.32656,-22.09481 37.02485,-10.43553 24.40788,7.88474 l -0.3243,0.95452 -0.12996,0.38251 m -7.46545,10.43163 c -21.48768,6.53555 -46.23231,1.90052 -65.927016,13.94181 -15.194741,12.81784 -13.386839,35.69387 -14.176768,53.73443 -0.763681,19.61949 6.018784,41.9141 25.435273,50.37521 13.141741,5.41513 33.010561,11.10605 32.657541,28.63669 6.48412,13.68406 35.82532,10.31665 41.93293,-2.22739 0.32807,-21.4742 24.98613,-25.9465 38.9611,-36.858 17.70969,-9.37428 24.18003,-30.12339 23.16926,-49.00514 2.07705,-20.99246 -8.47475,-41.9819 -27.90018,-48.29964"
       id="path2946"
       sodipodi:nodetypes="ccccccccccccccccccccccccccccccccs" />
  </g>
</svg>
