<?xml version="1.0" encoding="UTF-8" standalone="no"?>
<!-- Created with Inkscape (http://www.inkscape.org/) -->

<svg
   xmlns:dc="http://purl.org/dc/elements/1.1/"
   xmlns:cc="http://creativecommons.org/ns#"
   xmlns:rdf="http://www.w3.org/1999/02/22-rdf-syntax-ns#"
   xmlns:svg="http://www.w3.org/2000/svg"
   xmlns="http://www.w3.org/2000/svg"
   xmlns:sodipodi="http://sodipodi.sourceforge.net/DTD/sodipodi-0.dtd"
   xmlns:inkscape="http://www.inkscape.org/namespaces/inkscape"
   width="300"
   height="300"
   id="svg2400"
   sodipodi:version="0.32"
   inkscape:version="0.47 r22583"
   version="1.0"
   sodipodi:docname="drawing.svg"
   inkscape:output_extension="org.inkscape.output.svg.inkscape">
  <defs
     id="defs2402">
    <inkscape:perspective
       sodipodi:type="inkscape:persp3d"
       inkscape:vp_x="0 : 526.18109 : 1"
       inkscape:vp_y="0 : 1000 : 0"
       inkscape:vp_z="744.09448 : 526.18109 : 1"
       inkscape:persp3d-origin="372.04724 : 350.78739 : 1"
       id="perspective2408" />
    <inkscape:perspective
       id="perspective3684"
       inkscape:persp3d-origin="372.04724 : 350.78739 : 1"
       inkscape:vp_z="744.09448 : 526.18109 : 1"
       inkscape:vp_y="0 : 1000 : 0"
       inkscape:vp_x="0 : 526.18109 : 1"
       sodipodi:type="inkscape:persp3d" />
    <inkscape:perspective
       id="perspective3736"
       inkscape:persp3d-origin="372.04724 : 350.78739 : 1"
       inkscape:vp_z="744.09448 : 526.18109 : 1"
       inkscape:vp_y="0 : 1000 : 0"
       inkscape:vp_x="0 : 526.18109 : 1"
       sodipodi:type="inkscape:persp3d" />
    <inkscape:perspective
       id="perspective2900"
       inkscape:persp3d-origin="0.5 : 0.33333333 : 1"
       inkscape:vp_z="1 : 0.5 : 1"
       inkscape:vp_y="0 : 1000 : 0"
       inkscape:vp_x="0 : 0.5 : 1"
       sodipodi:type="inkscape:persp3d" />
  </defs>
  <sodipodi:namedview
     id="base"
     pagecolor="#ffffff"
     bordercolor="#666666"
     borderopacity="1.0"
     gridtolerance="10000"
     guidetolerance="10"
     objecttolerance="10"
     inkscape:pageopacity="0.0"
     inkscape:pageshadow="2"
     inkscape:zoom="0.98994949"
     inkscape:cx="-71.319275"
     inkscape:cy="198.03531"
     inkscape:document-units="px"
     inkscape:current-layer="layer1"
     showgrid="false"
     width="300px"
     inkscape:window-width="1280"
     inkscape:window-height="953"
     inkscape:window-x="0"
     inkscape:window-y="48" />
  <metadata
     id="metadata2405">
    <rdf:RDF>
      <cc:Work
         rdf:about="">
        <dc:format>image/svg+xml</dc:format>
        <dc:type
           rdf:resource="http://purl.org/dc/dcmitype/StillImage" />
        <dc:title></dc:title>
      </cc:Work>
    </rdf:RDF>
  </metadata>
  <g
     inkscape:label="Layer 1"
     inkscape:groupmode="layer"
     id="layer1">
    <path
       style="fill:#000000"
       d="m 167.54306,283.03423 c -0.26266,-0.25118 -23.60194,-1.25496 -51.86506,-2.23068 -28.263104,-0.97573 -52.255124,-2.2846 -53.315574,-2.90861 -1.06044,-0.62397 -1.92808,-2.80153 -1.92808,-4.83898 0,-2.76022 3.47872,-3.70444 13.64795,-3.70444 21.19699,0 21.5301,-0.64254 23.17667,-44.70679 0.78672,-21.05391 2.42924,-39.27866 3.650014,-40.49944 1.24562,-1.24561 4.41516,-0.60689 7.223,1.45557 4.57977,3.364 5.00339,7.01054 5.00339,43.07021 l 0,39.39506 7.71234,-0.77625 c 4.24179,-0.42692 8.89758,-0.24205 10.34619,-2.12375 1.55769,-2.02339 2.60809,-22.68714 2.57078,-47.5716 l -0.063,-42.07653 -25.70781,-1.28539 c -27.387234,-1.36936 -32.919534,-3.1005 -31.574384,-9.88012 0.72519,-3.65504 4.84767,-4.25917 29.063634,-4.25917 l 28.21856,0 2.5743,-15.42469 c 1.41587,-8.48358 3.85802,-17.59654 5.42701,-20.25102 4.17633,-7.06568 27.17654,-10.25877 38.82808,-5.39044 13.05967,5.45668 9.05184,11.85315 -9.20694,11.50361 -18.40212,-0.35229 -21.2772,4.26338 -20.29773,19.27941 l 0.67075,10.28313 28.27858,1.28539 c 26.13628,1.18801 28.2786,1.6749 28.2786,6.42695 0,4.7221 -1.83394,5.17096 -22.47945,5.50183 -12.36371,0.19816 -25.22559,1.0495 -28.58197,1.8919 l -6.10251,1.53164 1.08899,43.09677 c 0.59895,23.70323 1.56679,44.54283 2.15078,46.31024 0.58398,1.76742 5.00542,3.21348 9.82542,3.21348 4.82,0 9.89683,-1.44606 11.28183,-3.21348 1.62579,-2.07466 1.69316,-16.78949 0.19009,-41.52196 -2.4563,-40.41789 -1.30007,-46.68226 7.58225,-41.07945 4.41963,2.78784 8.13518,13.65626 13.51767,39.54083 2.17277,10.44899 2.19583,17.40164 0.0883,26.63882 -3.76579,16.5057 -1.01661,20.01078 14.07299,17.94251 17.49194,-2.39754 24.35873,0.29911 24.35873,9.56593 l 0,7.77528 -33.61342,-0.7546 c -18.48739,-0.415 -33.82834,-0.96006 -34.091,-1.21117 l 2e-5,0 z M 60.434346,124.97868 c 0,-5.52099 14.76457,-27.288518 28.49391,-42.008803 3.95624,-4.24179 9.86444,-11.400737 13.129364,-15.908769 15.74119,-21.734726 36.63025,-48.557739 39.13298,-50.249485 5.16779,-3.493211 9.77747,-2.009372 15.85041,5.102196 3.32043,3.888307 16.38398,19.340669 29.03011,34.338582 12.64612,14.997912 28.3793,31.682636 34.9626,37.077158 6.5833,5.394525 13.73549,13.223011 15.89376,17.396641 3.51958,6.80611 3.51864,7.9939 -0.009,11.52169 -3.53051,3.5305 -4.55317,3.52709 -9.98704,-0.0333 -7.28926,-4.77618 -50.88274,-49.042685 -54.60443,-55.447565 -1.44881,-2.493353 -5.1492,-7.387251 -8.22309,-10.875328 -3.07389,-3.488081 -7.79105,-9.113989 -10.48257,-12.502019 -7.33493,-9.233056 -5.59893,-10.868576 -63.159442,59.503772 -22.3242,27.29285 -30.02753,32.95869 -30.02753,22.08524 z m 52.058324,-23.11146 c -1.76741,-1.76857 -3.21347,-5.148695 -3.21347,-7.511395 0,-8.590316 70.12125,-9.539932 77.17134,-1.045091 4.74862,5.721731 -2.16451,7.370746 -32.11735,7.661086 -15.58916,0.15112 -30.65762,1.1379 -33.48548,2.19287 -3.10791,1.15944 -6.4126,0.64625 -8.35504,-1.29747 z"
       id="path2906"
       sodipodi:nodetypes="cssssssscccscccscccssscccsscccssssssssccccccsssssssssssssccssssc" />
  </g>
</svg>
