<?xml version="1.0" encoding="UTF-8" standalone="no"?>
<!-- Created with Inkscape (http://www.inkscape.org/) -->
<svg
   xmlns:dc="http://purl.org/dc/elements/1.1/"
   xmlns:cc="http://web.resource.org/cc/"
   xmlns:rdf="http://www.w3.org/1999/02/22-rdf-syntax-ns#"
   xmlns:svg="http://www.w3.org/2000/svg"
   xmlns="http://www.w3.org/2000/svg"
   xmlns:sodipodi="http://sodipodi.sourceforge.net/DTD/sodipodi-0.dtd"
   xmlns:inkscape="http://www.inkscape.org/namespaces/inkscape"
   id="svg2275"
   sodipodi:version="0.32"
   inkscape:version="0.45.1"
   width="300"
   height="300"
   version="1.0"
   sodipodi:docbase="/home/michelet/Images/Temp"
   sodipodi:docname="金-oracle.svg"
   inkscape:output_extension="org.inkscape.output.svg.inkscape">
  <metadata
     id="metadata2280">
    <rdf:RDF>
      <cc:Work
         rdf:about="">
        <dc:format>image/svg+xml</dc:format>
        <dc:type
           rdf:resource="http://purl.org/dc/dcmitype/StillImage" />
      </cc:Work>
    </rdf:RDF>
  </metadata>
  <defs
     id="defs2278" />
  <sodipodi:namedview
     inkscape:window-height="941"
     inkscape:window-width="1269"
     inkscape:pageshadow="2"
     inkscape:pageopacity="0.0"
     guidetolerance="10.0"
     gridtolerance="10.0"
     objecttolerance="10.0"
     borderopacity="1.0"
     bordercolor="#666666"
     pagecolor="#ffffff"
     id="base"
     width="300px"
     height="300px"
     inkscape:zoom="2"
     inkscape:cx="37.5"
     inkscape:cy="121.5"
     inkscape:window-x="0"
     inkscape:window-y="27"
     inkscape:current-layer="svg2275" />
  <path
     style="fill:#000000"
     d="M 247.05235,292.65026 C 237.53928,290.98871 210.65582,289.52725 187.31136,289.40256 C 146.48465,289.1845 128.13891,285.38624 128.13891,277.15163 C 128.13891,275.01777 133.00354,271.25546 138.94922,268.79095 C 144.89489,266.32643 149.75413,262.38139 149.74752,260.02417 C 149.74092,257.66696 153.49365,248.65744 158.08692,240.00302 C 162.68019,231.3486 169.31767,215.4166 172.83686,204.59857 C 176.35605,193.78055 180.59494,181.83155 182.25659,178.04524 C 184.66127,172.56589 183.01886,171.16104 174.20832,171.16104 C 159.29259,171.16104 141.11128,163.25073 141.11128,156.7612 C 141.11128,153.08389 147.43374,151.4919 162.03782,151.4919 C 180.26634,151.4919 183.61135,150.20008 187.98257,141.47224 C 190.74259,135.96142 193.00079,127.11031 193.00079,121.8031 C 193.00079,116.49589 194.80541,112.15363 197.01107,112.15363 C 203.20817,112.15363 218.94553,132.04304 218.94553,139.87516 C 218.94553,144.9653 223.6458,147.58896 236.22982,149.52311 C 254.58232,152.34388 275.15651,164.5782 269.78929,169.47904 C 268.02498,171.09004 257.80924,172.28748 247.08762,172.14003 C 226.4985,171.85686 225.7774,172.68242 227.32637,194.764 C 228.73971,214.91207 256.27874,268.4811 267.43575,272.78491 C 271.76963,274.4567 271.89892,292.14904 267.59195,294.15831 C 265.80824,294.99043 256.56543,294.31181 247.05235,292.65026 z M 231.15003,267.42187 C 231.91683,266.81276 227.83232,256.8539 222.07335,245.29105 C 216.31439,233.72821 210.27886,219.3272 208.66106,213.2888 C 204.79508,198.85904 200.32246,202.04044 186.21613,229.25398 C 179.78706,241.65677 172.91528,254.7774 170.94549,258.41095 C 167.92442,263.98377 170.89183,265.59612 189.91172,268.71626 C 209.30376,271.89746 226.18272,271.36766 231.15003,267.42187 z M 26.317284,159.05826 C 19.155101,148.51561 70.401436,122.78002 99.535709,122.28842 C 119.71347,121.94796 124.4338,130.95382 107.59931,137.67287 C 93.17424,150.19648 78.480043,147.96823 59.973985,155.42573 C 39.852966,164.26969 30.540484,165.27477 26.317284,159.05826 z M 30.308326,106.3965 C 27.062879,98.702395 24.435078,100.72197 60.431746,83.245463 C 90.731543,68.534809 103.87814,65.746572 108.79741,72.987678 C 112.94207,79.088576 103.01272,88.047269 80.845144,98.207413 C 52.125827,111.37044 33.667984,114.36139 30.308326,106.3965 z M 260.88017,102.73967 C 251.03137,93.779831 246.07252,92.773495 204.04303,91.205279 C 170.095,89.938602 156.52962,90.821278 152.41486,94.564634 C 149.34519,97.357242 142.18882,100.24442 136.51182,100.98058 C 123.38344,102.68301 120.72346,93.084854 131.40068,82.53774 C 148.30858,60.388919 170.62827,42.455974 186.80358,19.763569 C 199.42137,-0.46800003 218.47032,3.383484 236.41232,29.793896 C 251.9285,43.498962 255.21686,54.961967 266.43251,72.091965 C 287.6551,103.46988 283.98018,123.75466 260.88017,102.73967 z M 223.26966,67.048078 C 223.26966,60.644441 207.77749,37.410911 203.50753,37.410911 C 197.20759,37.410911 184.35253,54.478143 184.35253,62.842384 C 184.35253,67.37734 189.19915,68.881529 203.81109,68.881529 C 214.51331,68.881529 223.26966,68.056476 223.26966,67.048078 z "
     id="path2284"
     sodipodi:nodetypes="cssssssssssssssssssssccsssssccsccccsssccsssccccccsssc" />
</svg>
