<?xml version="1.0" encoding="UTF-8" standalone="no"?>
<!-- Created with Inkscape (http://www.inkscape.org/) -->
<svg
   xmlns:dc="http://purl.org/dc/elements/1.1/"
   xmlns:cc="http://web.resource.org/cc/"
   xmlns:rdf="http://www.w3.org/1999/02/22-rdf-syntax-ns#"
   xmlns:svg="http://www.w3.org/2000/svg"
   xmlns="http://www.w3.org/2000/svg"
   xmlns:sodipodi="http://sodipodi.sourceforge.net/DTD/sodipodi-0.dtd"
   xmlns:inkscape="http://www.inkscape.org/namespaces/inkscape"
   id="svg2211"
   sodipodi:version="0.32"
   inkscape:version="0.45.1"
   width="300"
   height="300"
   version="1.0"
   sodipodi:docbase="/home/michelet/Images/Temp"
   sodipodi:docname="金-oracle.svg"
   inkscape:output_extension="org.inkscape.output.svg.inkscape">
  <metadata
     id="metadata2216">
    <rdf:RDF>
      <cc:Work
         rdf:about="">
        <dc:format>image/svg+xml</dc:format>
        <dc:type
           rdf:resource="http://purl.org/dc/dcmitype/StillImage" />
      </cc:Work>
    </rdf:RDF>
  </metadata>
  <defs
     id="defs2214" />
  <sodipodi:namedview
     inkscape:window-height="941"
     inkscape:window-width="1269"
     inkscape:pageshadow="2"
     inkscape:pageopacity="0.0"
     guidetolerance="10.0"
     gridtolerance="10.0"
     objecttolerance="10.0"
     borderopacity="1.0"
     bordercolor="#666666"
     pagecolor="#ffffff"
     id="base"
     width="300px"
     height="300px"
     inkscape:zoom="2"
     inkscape:cx="42.5"
     inkscape:cy="143.5"
     inkscape:window-x="0"
     inkscape:window-y="27"
     inkscape:current-layer="svg2211" />
  <path
     style="fill:#000000"
     d="M 65.671597,295.23238 C 60.546679,282.39556 123.67219,288.94365 138.16178,281.12448 L 138.15236,180.7782 C 132.68554,179.87082 77.764476,184.02047 88.294459,175.77658 C 104.19114,171.73534 121.55158,175.75271 137.26853,170.89293 C 139.23394,169.63668 139.90834,164.07187 139.37042,153.54904 C 136.82806,103.8155 134.5676,77.974454 132.67834,77.04667 C 131.49955,76.467779 124.30244,76.568929 116.68477,77.271446 C 102.8511,78.547218 102.82329,78.562709 93.513005,90.176148 C 82.67035,103.70104 74.063115,111.05322 70.89406,109.49696 C 76.480392,82.608841 103.96751,67.321017 116.45207,43.861165 C 120.68127,36.012588 131.43853,19.215112 138.78172,12.757761 C 141.47168,10.620345 143.026,10.909895 148.3404,14.538425 C 163.04383,31.146485 169.07527,52.729578 184.4159,68.836672 C 190.99951,76.666733 197.00561,84.011269 204.94987,90.584596 C 217.56298,100.7099 219.14862,103.70881 212.89697,105.61502 C 206.43893,107.58417 192.43576,98.635482 181.20581,85.36286 C 174.53059,77.473447 172.52582,76.343499 165.20356,76.343499 C 151.56175,76.343499 149.90744,82.086993 149.90744,129.44927 L 149.90744,169.38533 C 156.13413,170.3447 202.15342,165.85726 196.59822,174.692 C 182.27997,178.77435 166.30074,175.2547 152.17389,180.11659 C 147.69349,183.67669 148.21393,277.45076 152.73039,280.383 C 153.14924,280.65493 164.24546,280.17633 177.38863,279.31946 C 243.18165,275.03001 244.63924,275.00725 246.20303,278.24537 C 248.20433,282.3894 243.9328,284.17503 231.15621,284.53541 C 214.63028,287.76337 161.21204,283.54682 149.40953,293.57516 C 148.21834,295.0174 146.96711,295.02894 145.18654,293.61411 C 119.04015,290.79845 92.179154,296.63329 65.671597,295.23238 z M 164.24546,65.935981 C 157.57322,53.564059 150.68539,41.235499 143.52879,29.121832 C 133.58459,35.452453 120.97839,53.901761 116.45207,65.213585 C 116.45207,66.113304 127.20559,66.849435 140.34877,66.849435 C 153.49195,66.849435 164.24546,66.438381 164.24546,65.935981 z M 221.202,256.79351 C 196.86209,249.77154 174.70301,232.34503 173.80414,205.37344 C 173.80414,198.08955 174.65096,195.96872 177.55934,195.96872 C 183.76614,195.96872 187.95654,200.82656 189.27843,209.55445 C 190.82824,230.2967 205.3015,240.07841 223.10527,247.30729 C 239.0728,253.0287 241.4326,254.70502 238.06208,257.93206 C 234.83544,261.02131 235.27258,261.05085 221.202,256.79351 z M 63.879345,162.67988 C 63.879345,161.0806 65.644757,159.23378 67.80248,158.57586 C 86.560586,149.90271 101.49665,135.09217 102.11406,114.021 C 102.11406,100.1965 105.4552,96.139961 112.83389,101.00586 C 127.30225,129.14763 93.073054,157.69009 69.801367,165.5877 C 66.07652,165.5877 63.879345,164.50886 63.879345,162.67988 z M 165.51605,95.234227 C 168.4262,91.492721 176.34027,93.485588 179.09883,98.654554 C 178.81498,130.93603 216.81328,130.27357 231.15621,147.90066 C 205.1554,166.9819 165.5255,111.23308 165.51605,95.234227 z "
     id="path2220"
     sodipodi:nodetypes="cccccssssccccccsssccccssscccccccscccsccsccccccccccc" />
</svg>
