<?xml version="1.0" standalone="no"?>
<!DOCTYPE svg PUBLIC "-//W3C//DTD SVG 20010904//EN"
 "http://www.w3.org/TR/2001/REC-SVG-20010904/DTD/svg10.dtd">
<svg version="1.0" xmlns="http://www.w3.org/2000/svg"
 width="468pt" height="468pt" viewBox="0 0 468 468"
 preserveAspectRatio="xMidYMid meet">
<metadata>
Created by potrace 1.8, written by Peter Selinger 2001-2007
</metadata>
<g transform="translate(0,468) scale(0.396610,-0.396610)"
fill="#000000" stroke="none">
<path d="M400 1070 c-25 -17 3 -27 97 -34 114 -8 118 -13 109 -124 -16 -201
-10 -190 -98 -174 -34 6 -65 15 -70 20 -5 5 -10 33 -11 63 -2 31 -7 60 -11 67
-3 6 -4 21 -1 34 3 13 1 29 -4 37 -8 13 -12 13 -26 1 -12 -10 -15 -23 -11 -49
3 -20 8 -59 10 -88 8 -86 25 -102 144 -124 l62 -12 0 -48 0 -49 -47 0 c-106 0
-146 -70 -158 -275 -3 -60 -13 -150 -21 -199 -13 -78 -13 -92 0 -104 23 -23
35 14 46 145 33 399 28 380 109 400 74 19 72 26 67 -201 -2 -110 -5 -234 -7
-273 -3 -75 1 -89 23 -80 11 4 14 55 16 238 1 129 5 253 8 276 7 47 29 62 63
44 11 -6 27 -11 36 -11 48 0 65 -83 65 -326 0 -172 6 -227 24 -221 13 5 15
246 3 410 -7 92 -11 112 -30 132 -26 26 -77 45 -123 45 -34 0 -34 0 -34 49 0
46 2 50 31 60 18 6 49 11 70 11 27 0 45 7 64 25 23 24 25 33 25 115 0 48 -3
95 -6 104 -14 36 -24 12 -24 -56 -1 -118 -39 -165 -134 -167 l-29 -1 7 118 c3
64 9 131 12 147 5 27 2 33 -33 52 -44 24 -188 40 -213 23z"/>
</g>
</svg>
