<?xml version="1.0" encoding="UTF-8" standalone="no"?>
<!-- Created with Inkscape (http://www.inkscape.org/) -->
<svg
   xmlns:dc="http://purl.org/dc/elements/1.1/"
   xmlns:cc="http://creativecommons.org/ns#"
   xmlns:rdf="http://www.w3.org/1999/02/22-rdf-syntax-ns#"
   xmlns:svg="http://www.w3.org/2000/svg"
   xmlns="http://www.w3.org/2000/svg"
   xmlns:sodipodi="http://sodipodi.sourceforge.net/DTD/sodipodi-0.dtd"
   xmlns:inkscape="http://www.inkscape.org/namespaces/inkscape"
   width="300"
   height="300"
   id="svg2400"
   sodipodi:version="0.32"
   inkscape:version="0.46"
   version="1.0"
   sodipodi:docname="戈-seal.svg"
   inkscape:output_extension="org.inkscape.output.svg.inkscape">
  <defs
     id="defs2402">
    <inkscape:perspective
       sodipodi:type="inkscape:persp3d"
       inkscape:vp_x="0 : 526.18109 : 1"
       inkscape:vp_y="0 : 1000 : 0"
       inkscape:vp_z="744.09448 : 526.18109 : 1"
       inkscape:persp3d-origin="372.04724 : 350.78739 : 1"
       id="perspective2408" />
    <inkscape:perspective
       id="perspective3684"
       inkscape:persp3d-origin="372.04724 : 350.78739 : 1"
       inkscape:vp_z="744.09448 : 526.18109 : 1"
       inkscape:vp_y="0 : 1000 : 0"
       inkscape:vp_x="0 : 526.18109 : 1"
       sodipodi:type="inkscape:persp3d" />
    <inkscape:perspective
       id="perspective3736"
       inkscape:persp3d-origin="372.04724 : 350.78739 : 1"
       inkscape:vp_z="744.09448 : 526.18109 : 1"
       inkscape:vp_y="0 : 1000 : 0"
       inkscape:vp_x="0 : 526.18109 : 1"
       sodipodi:type="inkscape:persp3d" />
    <inkscape:perspective
       id="perspective2465"
       inkscape:persp3d-origin="372.04724 : 350.78739 : 1"
       inkscape:vp_z="744.09448 : 526.18109 : 1"
       inkscape:vp_y="0 : 1000 : 0"
       inkscape:vp_x="0 : 526.18109 : 1"
       sodipodi:type="inkscape:persp3d" />
  </defs>
  <sodipodi:namedview
     id="base"
     pagecolor="#ffffff"
     bordercolor="#666666"
     borderopacity="1.0"
     gridtolerance="10000"
     guidetolerance="10"
     objecttolerance="10"
     inkscape:pageopacity="0.0"
     inkscape:pageshadow="2"
     inkscape:zoom="1.4"
     inkscape:cx="49.380073"
     inkscape:cy="123.58431"
     inkscape:document-units="px"
     inkscape:current-layer="layer1"
     showgrid="false"
     width="300px"
     inkscape:window-width="1280"
     inkscape:window-height="953"
     inkscape:window-x="196"
     inkscape:window-y="32" />
  <metadata
     id="metadata2405">
    <rdf:RDF>
      <cc:Work
         rdf:about="">
        <dc:format>image/svg+xml</dc:format>
        <dc:type
           rdf:resource="http://purl.org/dc/dcmitype/StillImage" />
      </cc:Work>
    </rdf:RDF>
  </metadata>
  <g
     inkscape:label="Layer 1"
     inkscape:groupmode="layer"
     id="layer1">
    <path
       style="fill:#000000"
       d="M 77.54624,284.00213 C 69.11794,273.10895 77.656822,269.38288 79.34243,263.8457 C 79.34243,262.4249 83.874423,251.37839 89.41353,239.2979 C 100.88604,214.27701 117.51584,188.54735 131.91434,173.54058 L 141.76238,163.2765 L 139.0706,148.39406 C 135.1719,126.83882 131.63206,115.58744 128.65342,115.28316 C 127.21775,115.1365 114.31299,114.86708 99.976164,114.68443 C 78.148458,114.40636 73.483296,113.68124 71.290174,110.22569 C 66.116938,102.07458 75.423063,98.94549 105.08768,98.861635 L 132.03039,98.785471 L 132.3086,91.002019 C 132.4616,86.721123 132.79399,70.286073 133.04721,54.479686 C 133.48772,26.983557 135.23864,14.920998 138.77777,15.00039 C 139.67691,15.02056 142.02912,16.060751 144.00492,17.311926 C 146.83859,19.106351 147.44692,23.90363 146.88531,40.02687 C 146.49372,51.268918 146.49372,60.421292 146.88531,60.365481 C 147.27689,60.309672 153.52468,58.892003 160.76927,57.215105 L 173.94126,54.166202 L 177.21081,40.552227 C 180.61882,26.361718 184.24965,23.732533 191.04886,30.531737 C 195.95887,35.441738 193.0902,59.174379 186.8883,64.952324 C 184.4592,67.215376 174.28815,70.521039 164.28595,72.298245 L 146.10014,75.529531 L 147.58788,86.49963 C 148.40612,92.53318 149.31109,97.705215 149.59891,97.993036 C 149.88674,98.280867 163.02546,98.69675 178.79609,98.917222 C 210.0786,99.354566 220.42304,102.43285 220.60527,111.35873 C 220.62544,112.34662 204.56613,113.15491 184.91792,113.15491 C 158.93087,113.15491 148.92836,113.95148 148.2197,116.07746 C 151.53366,134.94636 151.90883,157.50248 166.15781,144.64768 C 169.12151,143.10505 174.77947,139.77771 178.73107,137.25358 C 187.53307,131.63118 191.23076,131.29972 195.66649,135.73545 C 201.79358,141.86255 199.32926,145.35281 182.9133,153.79798 C 159.59304,165.79505 158.07771,167.53319 161.97275,177.8174 C 163.71882,182.42759 166.64799,190.19503 168.48201,195.07835 C 170.31603,199.96168 173.64179,205.97393 175.87256,208.43892 C 187.51785,227.73894 204.60709,243.31564 221.24068,258.57154 C 230.12347,266.19678 232.0811,271.76087 228.09456,278.05205 C 225.47137,282.19169 219.4041,279.1408 205.88849,266.88577 C 178.30383,241.87394 171.05099,232.5198 156.79016,203.56265 C 150.46539,190.71996 144.57059,180.21231 143.6906,180.21231 C 119.70056,199.84664 103.33604,232.06028 92.513099,260.4417 C 84.308515,285.92622 83.901709,286.56661 77.54624,284.00213 z"
       id="path2471"
       sodipodi:nodetypes="ccscccssscccssssscccsscccssssccsssssccsssccc" />
  </g>
</svg>
