<?xml version="1.0" encoding="UTF-8" standalone="no"?>
<!-- Created with Inkscape (http://www.inkscape.org/) -->
<svg
   xmlns:dc="http://purl.org/dc/elements/1.1/"
   xmlns:cc="http://web.resource.org/cc/"
   xmlns:rdf="http://www.w3.org/1999/02/22-rdf-syntax-ns#"
   xmlns:svg="http://www.w3.org/2000/svg"
   xmlns="http://www.w3.org/2000/svg"
   xmlns:sodipodi="http://sodipodi.sourceforge.net/DTD/sodipodi-0.dtd"
   xmlns:inkscape="http://www.inkscape.org/namespaces/inkscape"
   version="1.0"
   width="300"
   height="300"
   id="svg2"
   sodipodi:version="0.32"
   inkscape:version="0.45.1"
   sodipodi:docname="心-bigseal.svg"
   sodipodi:docbase="/home/lyhana8/Desktop"
   inkscape:output_extension="org.inkscape.output.svg.inkscape">
  <metadata
     id="metadata6">
    <rdf:RDF>
      <cc:Work
         rdf:about="">
        <dc:format>image/svg+xml</dc:format>
        <dc:type
           rdf:resource="http://purl.org/dc/dcmitype/StillImage" />
      </cc:Work>
    </rdf:RDF>
  </metadata>
  <sodipodi:namedview
     inkscape:window-height="575"
     inkscape:window-width="738"
     inkscape:pageshadow="2"
     inkscape:pageopacity="0.0"
     guidetolerance="10.0"
     gridtolerance="10.0"
     objecttolerance="10.0"
     borderopacity="1.0"
     bordercolor="#666666"
     pagecolor="#ffffff"
     id="base"
     inkscape:zoom="1.2633333"
     inkscape:cx="150"
     inkscape:cy="150"
     inkscape:window-x="539"
     inkscape:window-y="222"
     inkscape:current-layer="svg2" />
  <defs
     id="defs5" />
  <path
     d="M 53.153016,219.32772 C -7.8412851,190.4783 10.835481,73.52535 63.24903,52.506597 C 90.550725,41.558136 6.9267379,141.97784 53.609084,179.41536 C 51.86296,139.53768 83.946505,85.539098 110.55932,88.786555 C 119.54118,92.23322 120.5946,104.34214 111.69955,107.75549 C 63.729024,148.13856 64.352576,242.7587 138.31604,246.59515 C 220.37652,228.97631 226.60031,173.61703 192.5223,110.46186 C 178.92528,90.216379 178.53279,83.466867 190.95255,83.466867 C 226.33227,98.279275 237.33195,138.28375 242.42968,158.40003 C 283.25963,121.00443 245.14541,79.354762 221.80015,50.102101 C 209.42715,38.478276 206.50874,26.867483 216.01148,27.07199 C 319.73737,85.416157 289.16368,166.37023 236.83151,202.55702 C 185.10154,308.25297 77.285585,278.68798 53.153016,219.32772 z M 119.90412,193.61267 C 116.50721,182.90997 135.55955,138.57405 143.68217,138.27974 C 148.19871,138.1161 159.28249,170.46016 159.28249,183.80371 C 159.28249,201.18342 125.01608,209.71901 119.90412,193.61267 z "
     style="fill:#000000;fill-opacity:1"
     id="path1875"
     sodipodi:nodetypes="csccccccccccccssc" />
</svg>
