<?xml version="1.0" encoding="UTF-8" standalone="no"?>
<!-- Created with Inkscape (http://www.inkscape.org/) -->
<svg
   xmlns:svg="http://www.w3.org/2000/svg"
   xmlns="http://www.w3.org/2000/svg"
   version="1.0"
   width="300"
   height="300"
   id="svg2">
  <defs
     id="defs5" />
  <path
     d="M 140.86016,251.97877 C 131.01131,256.83775 125.0735,268.80427 113.55534,270.28234 C 106.46076,265.41823 123.48174,256.40388 126.80577,250.83842 C 135.56168,245.33195 140.43515,226.7848 128.04527,223.61973 C 115.79003,222.60136 102.52587,220.78684 91.889274,214.55046 C 90.1782,204.65045 107.39357,213.09711 113.86873,211.60204 C 129.45315,212.74497 149.27461,209.46736 155.96852,193.20946 C 161.86004,181.21168 155.778,167.51603 150.1435,156.54532 C 143.91148,144.99823 134.95081,135.34254 126.16344,125.72453 C 114.78111,141.12172 101.96317,156.16154 85.593762,166.34703 C 82.132282,162.37986 95.959104,152.49722 98.682554,146.46153 C 107.68587,135.53238 117.62646,124.46633 120.54401,110.11143 C 123.42567,97.46507 104.84903,103.15489 97.481081,101.58331 C 88.27861,101.12947 71.491952,107.93359 74.772825,91.787682 C 76.299403,78.134414 76.797374,62.45136 87.721884,52.522403 C 94.756137,44.290368 103.13352,36.585364 114.00244,35.146792 C 124.39798,30.763697 136.40511,31.268214 147.48231,29.332617 C 162.22783,27.784909 177.19185,26.060042 190.80236,19.786945 C 196.89487,15.578947 220.06315,14.542124 209.04574,25.097868 C 201.81778,31.768626 205.65069,38.737137 203.64715,53.807892 C 205.36493,65.675647 215.07122,75.829705 224.08203,87.42678 C 230.8693,96.162106 236.78343,106.27444 241.27086,115.42897 C 232.12186,121.17132 230.45401,110.70535 196.94051,73.693037 C 184.67664,78.864789 189.73762,91.179777 196.95271,98.787343 C 202.22096,107.63546 208.872,116.78964 209.26698,127.4137 C 202.65213,133.42092 197.91764,115.04413 192.00396,110.81048 C 185.87953,105.1584 181.76149,90.474083 171.20628,95.663573 C 167.5078,96.916074 161.7655,97.393583 166.38655,101.80073 C 170.67922,109.28615 175.86817,115.68286 179.62267,123.25066 C 183.90335,129.70319 193.23876,144.34038 188.55601,146.46153 C 179.28951,144.03007 172.10297,130.7468 165.03171,122.09486 C 157.60662,115.13296 156.3017,97.364721 142.84968,101.44996 C 131.25516,100.0424 135.50115,115.86101 138.6114,122.01949 C 145.30987,130.68686 152.42554,139.11802 158.38766,148.40443 C 166.1065,157.58881 167.27832,170.56571 168.66211,182.06129 C 169.42203,193.7659 161.80436,205.8497 151.96725,211.39522 C 143.41329,215.44385 146.16733,232.42038 153.55889,235.70335 C 164.68308,238.45358 174.51006,241.47325 183.15992,247.14373 C 178.08829,255.23405 163.52887,247.3232 155.21664,248.54836 C 150.79558,266.25836 160.30199,277.62902 155.04805,280.33899 C 150.52595,282.67148 147.02236,264.76172 140.86016,251.97877 z M 112.76666,47.98443 C 101.7011,48.551691 97.935859,55.323431 91.987758,67.074587 C 84.712919,81.446867 82.80391,89.29935 99.0286,91.953544 C 104.51771,92.612801 112.14175,96.241728 120.89897,91.739522 C 111.31192,79.513737 112.13054,62.637725 112.76666,47.98443 z M 154.46892,86.593826 C 168.48502,81.265362 170.81389,62.999922 164.17658,51.104525 C 160.31398,36.490709 144.44353,44.480059 133.9025,44.795063 C 120.43959,46.474443 123.2226,62.999314 123.86667,72.641683 C 124.27208,82.955215 132.83236,92.361996 143.71664,89.24828 C 147.39598,88.851117 151.0446,88.012051 154.46892,86.593826 z M 139.67323,69.479607 C 130.8729,63.709636 138.55099,51.410978 147.11095,59.714903 C 156.48365,65.210153 146.82464,78.891231 139.67323,69.479607 z M 188.13451,62.813259 C 190.59416,54.795728 199.86652,35.335332 187.41228,33.593996 C 169.27618,37.056177 170.56036,37.00977 178.00542,50.963032 C 181.73064,58.614907 178.02698,68.293575 180.12712,75.408839 C 184.13066,72.331934 185.92003,67.189201 188.13451,62.813259 z "
     style="fill:black;fill-opacity:1"
     id="path1875" />
</svg>
