<?xml version="1.0" encoding="UTF-8" standalone="no"?>
<!-- Created with Inkscape (http://www.inkscape.org/) -->
<svg
   xmlns:svg="http://www.w3.org/2000/svg"
   xmlns="http://www.w3.org/2000/svg"
   version="1.0"
   width="300"
   height="300"
   id="svg2">
  <defs
     id="defs5" />
  <path
     d="M 62.832558,254.12367 C 56.937218,244.5848 73.839468,238.99169 108.56108,238.99169 L 142.70088,238.99169 L 145.21573,214.54823 C 146.59889,201.10433 146.18325,183.06505 144.29207,174.46095 L 140.85357,158.81714 L 115.68957,160 C 86.563888,161.36909 78.475268,166.82796 82.400258,182.46639 C 84.997788,192.81574 85.615138,193.02482 106.37305,190.58513 C 125.70248,188.31334 127.67964,188.78386 127.67964,195.65562 C 127.67964,201.88554 123.936,203.69801 106.59234,205.86496 C 79.843098,209.20705 71.011768,206.32195 65.224638,192.35059 C 52.586348,161.83907 70.711358,145.14559 116.48927,145.13487 L 142.45295,145.1288 L 144.50733,132.41819 C 145.63723,125.42736 145.39312,106.50813 143.96484,90.375444 L 141.36798,61.043288 L 118.55002,59.860533 C 92.344068,58.502161 84.659148,62.869672 84.659148,79.121458 C 84.659148,90.140556 85.103288,90.375444 105.93858,90.375444 C 126.87391,90.375444 136.06008,95.292256 128.76126,102.59107 C 123.19093,108.1614 98.643098,111.22302 83.032298,108.29442 C 71.217988,106.07805 68.583998,103.53164 64.701548,90.573182 C 62.207888,82.250061 61.306328,70.903237 62.698088,65.358021 C 67.540768,46.063238 77.404708,43.509327 157.42095,40.832928 C 222.48658,38.656603 231.96905,39.112996 236.55755,44.641794 C 245.91127,55.912339 237.83167,59.087811 199.80149,59.087811 L 162.87823,59.087811 L 162.91223,79.62032 L 167.91944,141.56174 L 191.7585,140.41206 C 217.39073,139.17589 220.97613,135.52122 216.00151,115.70074 C 214.02817,107.83832 210.89258,106.26693 195.15784,105.25495 C 181.88216,104.40113 176.29936,102.2839 175.44498,97.779036 C 174.48852,92.735963 179.11769,91.02616 198.87553,89.124854 C 220.64187,87.030268 224.29193,87.696127 230.34219,94.865133 C 238.19586,104.17101 239.08511,118.96007 232.86404,136.80584 C 227.29041,152.79435 219.14483,156.86166 192.69831,156.86166 C 180.85321,156.86166 170.03291,158.68818 168.6532,160.92061 C 167.27349,163.15303 165.15112,181.63228 163.93682,201.98562 L 161.72901,238.99169 L 191.1569,238.99169 C 226.30003,238.99169 230.80566,235.62974 224.18316,214.34852 L 219.58707,199.57908 L 199.05456,202.13672 C 182.52274,204.19603 178.52205,203.58583 178.52205,199.00508 C 178.52205,190.97807 195.43408,184.23834 215.57628,184.23834 C 238.1699,184.23834 248.91923,196.77579 248.91923,223.1278 C 248.91923,253.90755 250.43158,253.38913 152.40427,256.21181 C 87.957918,258.06752 64.938328,257.53088 62.832558,254.12367 z "
     style="fill:black;fill-opacity:1"
     id="path1875" />
</svg>
