<?xml version="1.0" encoding="UTF-8" standalone="no"?>
<!-- Created with Inkscape (http://www.inkscape.org/) -->
<svg
   xmlns:dc="http://purl.org/dc/elements/1.1/"
   xmlns:cc="http://web.resource.org/cc/"
   xmlns:rdf="http://www.w3.org/1999/02/22-rdf-syntax-ns#"
   xmlns:svg="http://www.w3.org/2000/svg"
   xmlns="http://www.w3.org/2000/svg"
   xmlns:sodipodi="http://sodipodi.sourceforge.net/DTD/sodipodi-0.dtd"
   xmlns:inkscape="http://www.inkscape.org/namespaces/inkscape"
   width="300"
   height="300"
   id="svg2"
   sodipodi:version="0.32"
   inkscape:version="0.45.1"
   version="1.0"
   sodipodi:docbase="C:\Documents and Settings\Martin\桌面"
   sodipodi:docname="drawing.svg"
   inkscape:output_extension="org.inkscape.output.svg.inkscape">
  <defs
     id="defs4" />
  <sodipodi:namedview
     id="base"
     pagecolor="#ffffff"
     bordercolor="#666666"
     borderopacity="1.0"
     gridtolerance="10000"
     guidetolerance="10"
     objecttolerance="10"
     inkscape:pageopacity="0.0"
     inkscape:pageshadow="2"
     inkscape:zoom="0.92866691"
     inkscape:cx="163.85638"
     inkscape:cy="137.69938"
     inkscape:document-units="px"
     inkscape:current-layer="layer1"
     width="300px"
     height="300px"
     inkscape:window-width="742"
     inkscape:window-height="577"
     inkscape:window-x="50"
     inkscape:window-y="0" />
  <metadata
     id="metadata7">
    <rdf:RDF>
      <cc:Work
         rdf:about="">
        <dc:format>image/svg+xml</dc:format>
        <dc:type
           rdf:resource="http://purl.org/dc/dcmitype/StillImage" />
      </cc:Work>
    </rdf:RDF>
  </metadata>
  <g
     inkscape:label="Layer 1"
     inkscape:groupmode="layer"
     id="layer1">
    <path
       style="fill:#000000"
       d="M 86.054794,286.4838 C 83.811674,285.0638 78.069654,283.84061 73.294734,283.76563 C 62.696994,283.59917 53.17841,276.92149 55.375914,271.1948 C 56.484154,268.30676 63.758814,266.34592 78.484374,264.96602 C 90.304434,263.85839 101.52262,261.99591 103.41367,260.82715 C 108.50726,257.67915 115.75868,230.78612 122.57564,189.76194 C 123.63359,183.39538 126.44917,171.024 128.83249,162.26999 C 131.21581,153.51597 134.30996,141.14459 135.70834,134.77803 C 137.10676,128.41148 140.20056,116.06629 142.58344,107.34431 C 144.96636,98.622335 145.97821,90.657263 144.83203,89.644143 C 143.68584,88.631023 130.66181,86.205893 115.88974,84.254963 C 90.275354,80.872113 71.847784,74.827803 71.847784,69.809043 C 89.939594,68.209973 109.65084,65.188143 128.31454,65.606423 C 145.84512,67.195003 151.12951,66.765273 153.23736,63.579683 C 154.7269,61.328573 155.08803,48.956233 154.05225,35.662317 C 152.83323,20.016153 153.21881,11.787727 155.17102,11.787727 C 161.24814,11.787727 173.13398,29.615433 173.16575,38.77824 C 173.18326,43.828953 174.00478,52.844783 174.99133,58.813433 C 176.5286,68.113903 177.86878,69.673663 184.36461,69.722453 C 193.79719,69.793313 233.52572,76.938843 240.55888,79.829503 C 243.42239,81.006413 245.36034,84.084413 244.86542,86.669513 C 244.11356,90.596653 238.85464,91.504783 212.89058,92.191073 L 181.81556,93.012443 L 181.81556,104.70081 C 181.81556,115.68412 187.12483,141.9339 198.14199,185.4211 C 205.16742,213.152 208.10637,228.23944 210.26715,247.66728 L 212.2014,265.05816 L 223.77696,265.97761 C 237.09403,267.03538 243.61848,271.97094 240.93703,278.95873 C 239.38726,282.99733 234.62658,283.8369 212.61525,283.95344 C 173.91698,284.15835 96.952514,286.77052 93.289514,288.00335 C 91.553554,288.5876 88.297934,287.9038 86.054794,286.4838 z M 199.17889,253.95767 C 199.17889,248.62107 196.57587,235.90063 193.39441,225.69001 C 190.21296,215.47941 186.38463,203.21852 184.88705,198.4436 C 180.56988,184.6787 167.97061,123.27523 167.51861,113.79734 C 167.42375,111.80779 165.68137,110.17997 163.64668,110.17997 C 158.52617,110.17997 151.60347,135.60048 137.24578,207.12527 C 135.00927,218.26675 130.88869,233.38052 128.08894,240.71144 C 120.07466,261.69619 120.95723,262.26504 162.68466,263.00946 L 199.17889,263.66056 L 199.17889,253.95767 z "
       id="path2294"
       sodipodi:nodetypes="cssssssssssccsssssssscccscccsssccssssssccc" />
  </g>
</svg>
