<?xml version="1.0" encoding="UTF-8" standalone="no"?>
<!-- Created with Inkscape (http://www.inkscape.org/) -->
<svg
   xmlns:dc="http://purl.org/dc/elements/1.1/"
   xmlns:cc="http://web.resource.org/cc/"
   xmlns:rdf="http://www.w3.org/1999/02/22-rdf-syntax-ns#"
   xmlns:svg="http://www.w3.org/2000/svg"
   xmlns="http://www.w3.org/2000/svg"
   xmlns:sodipodi="http://sodipodi.sourceforge.net/DTD/sodipodi-0.dtd"
   xmlns:inkscape="http://www.inkscape.org/namespaces/inkscape"
   id="svg2"
   sodipodi:version="0.32"
   inkscape:version="0.45"
   width="300"
   height="300"
   version="1.0"
   sodipodi:docbase="/home/lyhana8/Desktop"
   sodipodi:docname="山-oracle.svg"
   inkscape:output_extension="org.inkscape.output.svg.inkscape"
   sodipodi:modified="true">
  <metadata
     id="metadata7">
    <rdf:RDF>
      <cc:Work
         rdf:about="">
        <dc:format>image/svg+xml</dc:format>
        <dc:type
           rdf:resource="http://purl.org/dc/dcmitype/StillImage" />
      </cc:Work>
    </rdf:RDF>
  </metadata>
  <defs
     id="defs5" />
  <sodipodi:namedview
     inkscape:window-height="771"
     inkscape:window-width="919"
     inkscape:pageshadow="2"
     inkscape:pageopacity="0.0"
     guidetolerance="10.0"
     gridtolerance="10.0"
     objecttolerance="10.0"
     borderopacity="1.0"
     bordercolor="#666666"
     pagecolor="#ffffff"
     id="base"
     width="300px"
     height="300px"
     inkscape:zoom="1.9166667"
     inkscape:cx="150"
     inkscape:cy="149.14315"
     inkscape:window-x="364"
     inkscape:window-y="0"
     inkscape:current-layer="svg2" />
  <path
     style="fill:#000000"
     d="M 19.428207,214.98504 C 10.547563,204.11005 30.016237,139.36638 38.470753,101.43192 C 40.153055,90.058803 37.158512,70.96642 57.067027,95.901654 C 75.263747,120.47469 83.893073,127.86519 103.51488,149.65557 C 119.74656,130.62978 131.46718,105.01008 139.46807,81.254908 C 143.21781,49.114044 183.47339,136.9575 195.5604,153.04002 C 212.76374,130.76998 221.59039,110.0584 230.10003,91.60844 C 241.00105,71.134311 239.2241,81.395665 254.60173,124.58003 C 257.30332,133.89498 269.35777,188.3891 275.29102,196.14586 C 294.08551,210.51801 272.9898,219.22798 263.8104,220.40891 C 234.26946,225.08464 177.68554,224.56422 147.87243,225.75842 C 98.516901,220.66617 26.68023,223.86566 19.428207,214.98504 z M 252.28845,195.40735 C 251.61055,176.94596 245.49892,158.99072 240.49515,141.00576 C 235.29877,122.30458 231.12902,131.00154 219.84015,150.69535 C 194.31349,181.4707 194.6193,183.40586 188.33333,177.11858 C 177.20173,161.79495 162.24496,114.66971 149.06676,110.00012 C 132.63084,131.93014 118.62975,159.6696 99.982974,179.83598 C 84.758655,170.15967 68.982524,132.07292 50.680255,125.8618 C 48.642169,143.15046 41.003742,153.59873 39.882752,171.11175 C 40.601725,179.82291 32.920016,191.52765 41.079854,197.91278 C 54.047799,202.92114 80.032527,204.03581 139.43837,205.43323 C 160.15191,202.58096 241.69434,209.67316 252.28845,195.40735 z "
     id="path2205"
     sodipodi:nodetypes="cccccccccccsccccccccccc" />
</svg>
