<?xml version="1.0" encoding="UTF-8" standalone="no"?>
<!-- Created with Inkscape (http://www.inkscape.org/) -->
<svg
   xmlns:svg="http://www.w3.org/2000/svg"
   xmlns="http://www.w3.org/2000/svg"
   version="1.0"
   width="300"
   height="300"
   id="svg2">
  <defs
     id="defs5" />
  <path
     d="M 125.36552,278.1832 C 102.43563,272.90832 91.588573,264.80831 88.370157,250.55699 C 85.884824,239.55181 86.188783,121.3736 88.795468,85.197605 C 90.073836,67.456217 91.632572,60.558609 94.622741,59.411173 C 100.07171,57.320208 106.83234,61.861556 108.08851,68.456586 C 110.56876,81.478169 110.71045,90.577672 108.50045,94.911598 C 103.45636,104.80329 98.361912,240.56654 102.9289,243.3891 C 106.82689,245.79818 135.52767,218.91719 140.19572,208.4852 C 142.85961,202.53202 144.57397,183.28552 145.7245,146.41531 C 147.5449,88.07809 151.32945,35.431259 154.24506,27.885619 C 156.32423,22.504697 157.92934,22.101167 163.42065,25.578837 C 167.24151,27.998601 167.17661,35.358895 162.72981,103.93646 C 162.04563,114.48766 161.10547,141.1162 160.64057,163.111 C 159.93575,196.45656 160.53786,204.23484 164.26417,209.92191 C 171.1039,220.36066 196.76569,245.07585 200.76452,245.07585 C 205.23884,245.07585 207.0672,229.13511 208.93726,173.82101 C 209.72712,150.45765 211.1029,116.23477 211.99453,97.770168 C 213.57643,65.011277 213.76872,64.19818 219.93399,64.19818 C 225.41625,64.19818 226.46754,65.920692 227.87904,77.215891 C 230.68033,99.632668 228.89453,143.2931 222.63861,205.33758 C 221.8787,212.87414 220.74298,225.20671 220.1148,232.74328 C 218.86697,247.71409 210.20142,269.63702 203.25193,275.40459 C 198.12147,279.66248 140.7008,281.71098 125.36552,278.1832 z M 188.39864,265.46943 C 188.39864,263.31905 171.99251,242.77802 163.51757,234.31749 C 159.63051,230.43705 155.66113,225.10394 154.69672,222.46614 C 153.73231,219.82834 151.63258,217.67014 150.03066,217.67014 C 148.42873,217.67014 146.34302,219.82834 145.39575,222.46614 C 144.44848,225.10394 136.95532,233.80996 128.7443,241.81286 C 120.53328,249.81576 114.62391,257.17232 115.61237,258.16078 C 120.68625,263.23466 137.70766,266.38011 161.67808,266.67344 C 176.37439,266.85328 188.39864,266.31147 188.39864,265.46943 z "
     style="fill:black;fill-opacity:1"
     id="path1875" />
</svg>
