<?xml version="1.0" encoding="UTF-8" standalone="no"?>
<!-- Created with Inkscape (http://www.inkscape.org/) -->
<svg
   xmlns:svg="http://www.w3.org/2000/svg"
   xmlns="http://www.w3.org/2000/svg"
   version="1.0"
   width="300"
   height="300"
   id="svg2">
  <defs
     id="defs5" />
  <path
     d="M 46.878984,176.77892 C 42.096534,167.73184 41.447958,157.09037 40.342286,147.07678 C 40.673822,138.02714 53.025208,140.23626 59.236244,137.93366 C 88.716321,132.47613 118.43087,128.4213 148.01419,123.62326 C 164.07412,120.46692 179.84174,115.63162 196.27025,114.60476 C 216.85831,112.49493 237.68331,106.39441 258.35552,111.01258 C 264.24689,115.63011 250.69698,121.22156 246.98186,124.0944 C 239.04045,128.66363 229.71705,130.14571 221.95124,135.02351 C 214.56426,135.3089 207.99283,138.54103 201.15851,141.02842 C 185.31001,145.84965 169.1445,150.39492 152.50377,151.01221 C 130.48611,154.16529 108.57476,159.18015 88.07189,167.95705 C 79.730668,170.85704 70.401371,169.70705 62.883369,175.13197 C 58.003953,177.19428 51.12959,183.24839 46.878984,176.77892 z "
     style="fill:black;fill-opacity:1"
     id="path1875" />
</svg>
