<?xml version="1.0" encoding="UTF-8" standalone="no"?>
<!-- Created with Inkscape (http://www.inkscape.org/) -->
<svg
   xmlns:svg="http://www.w3.org/2000/svg"
   xmlns="http://www.w3.org/2000/svg"
   version="1.0"
   width="300"
   height="300"
   id="svg2">
  <defs
     id="defs5" />
  <path
     d="M 93.373367,270.85202 C 89.505929,249.02772 91.886867,226.75051 91.169342,204.72302 C 91.326173,164.95008 90.185325,125.00228 94.71385,85.416262 C 95.90602,73.138855 107.53752,64.688602 119.58995,66.593681 C 126.99375,67.091253 128.83282,66.284852 148.03385,66.209064 C 148.28494,57.10838 148.16081,61.771033 148.30866,49.583207 C 127.90363,48.412936 111.56544,51.741973 87.245685,47.59897 C 75.860913,40.883566 86.290437,32.701614 100.35947,34.637372 C 141.04423,33.515212 180.10064,34.092869 220.16203,34.747028 C 230.48002,38.132636 224.89388,44.798638 216.20295,47.351287 C 212.69096,48.382808 201.16606,48.73643 164.51765,48.707516 C 163.47394,57.89922 163.98343,57.085352 164.22144,65.459777 C 196.21287,65.913947 201.16866,66.275894 211.76928,68.672392 C 223.69528,80.314749 220.23282,98.258932 221.08234,113.24681 C 220.86017,158.28282 220.07909,203.35426 222.78118,248.33842 C 222.55532,256.26711 224.6157,278.01264 211.36282,272.24182 C 203.54001,264.97919 207.19553,257.09422 206.26672,245.13814 C 204.81631,195.94099 206.93335,148.54105 204.95,98.556065 C 204.2859,80.118599 195.18838,80.62539 162.21451,81.220615 C 163.12255,101.74146 160.45432,130.3928 160.43768,148.16219 C 172.59228,147.95371 186.0859,140.43478 197.31234,148.07396 C 203.34618,166.81793 176.34027,153.26052 160.61792,163.13466 C 161.08637,180.70714 159.25306,195.30791 159.89106,208.54291 C 159.84414,226.88212 159.75044,245.38871 156.02192,263.42488 C 143.21619,269.13925 146.10277,247.75342 145.97425,240.08492 C 145.46488,190.2007 149.38124,130.74406 147.70435,80.873368 C 137.2074,80.889628 120.17653,79.293177 117.34037,81.250262 C 107.64354,87.941536 105.95275,102.3434 108.17003,112.0406 C 116.45271,116.09066 130.46601,105.16092 139.01482,114.05395 C 143.5453,128.18732 123.4088,127.06416 106.43529,123.58653 C 106.46661,134.75488 106.46638,139.05861 106.28643,147.12865 C 115.08356,152.55618 128.17063,140.80226 138.03016,147.05335 C 153.69492,160.55076 127.70494,161.34259 119.82974,159.60108 C 104.81305,155.231 107.45447,174.31746 106.8028,183.4936 C 105.87305,210.92157 106.29528,238.47709 103.45283,265.78253 C 102.97176,270.90168 97.66575,277.60339 93.373367,270.85202 z M 188.02765,108.16186 C 203.13287,107.13319 203.08616,130.22391 187.25888,126.45011 C 152.16798,123.74865 157.36821,111.76326 188.02765,108.16186 z "
     style="fill:black;fill-opacity:1"
     id="path1875" />
</svg>
