<?xml version="1.0" encoding="UTF-8" standalone="no"?>
<!-- Created with Inkscape (http://www.inkscape.org/) -->
<svg
   xmlns:dc="http://purl.org/dc/elements/1.1/"
   xmlns:cc="http://creativecommons.org/ns#"
   xmlns:rdf="http://www.w3.org/1999/02/22-rdf-syntax-ns#"
   xmlns:svg="http://www.w3.org/2000/svg"
   xmlns="http://www.w3.org/2000/svg"
   xmlns:sodipodi="http://sodipodi.sourceforge.net/DTD/sodipodi-0.dtd"
   xmlns:inkscape="http://www.inkscape.org/namespaces/inkscape"
   width="300"
   height="300"
   id="svg2400"
   sodipodi:version="0.32"
   inkscape:version="0.46"
   version="1.0"
   sodipodi:docname="米-oracle.svg"
   inkscape:output_extension="org.inkscape.output.svg.inkscape">
  <defs
     id="defs2402">
    <inkscape:perspective
       sodipodi:type="inkscape:persp3d"
       inkscape:vp_x="0 : 526.18109 : 1"
       inkscape:vp_y="0 : 1000 : 0"
       inkscape:vp_z="744.09448 : 526.18109 : 1"
       inkscape:persp3d-origin="372.04724 : 350.78739 : 1"
       id="perspective2408" />
    <inkscape:perspective
       id="perspective3684"
       inkscape:persp3d-origin="372.04724 : 350.78739 : 1"
       inkscape:vp_z="744.09448 : 526.18109 : 1"
       inkscape:vp_y="0 : 1000 : 0"
       inkscape:vp_x="0 : 526.18109 : 1"
       sodipodi:type="inkscape:persp3d" />
    <inkscape:perspective
       id="perspective3736"
       inkscape:persp3d-origin="372.04724 : 350.78739 : 1"
       inkscape:vp_z="744.09448 : 526.18109 : 1"
       inkscape:vp_y="0 : 1000 : 0"
       inkscape:vp_x="0 : 526.18109 : 1"
       sodipodi:type="inkscape:persp3d" />
    <inkscape:perspective
       id="perspective2465"
       inkscape:persp3d-origin="372.04724 : 350.78739 : 1"
       inkscape:vp_z="744.09448 : 526.18109 : 1"
       inkscape:vp_y="0 : 1000 : 0"
       inkscape:vp_x="0 : 526.18109 : 1"
       sodipodi:type="inkscape:persp3d" />
    <inkscape:perspective
       id="perspective2517"
       inkscape:persp3d-origin="372.04724 : 350.78739 : 1"
       inkscape:vp_z="744.09448 : 526.18109 : 1"
       inkscape:vp_y="0 : 1000 : 0"
       inkscape:vp_x="0 : 526.18109 : 1"
       sodipodi:type="inkscape:persp3d" />
  </defs>
  <sodipodi:namedview
     id="base"
     pagecolor="#ffffff"
     bordercolor="#666666"
     borderopacity="1.0"
     gridtolerance="10000"
     guidetolerance="10"
     objecttolerance="10"
     inkscape:pageopacity="0.0"
     inkscape:pageshadow="2"
     inkscape:zoom="1.4"
     inkscape:cx="75.398548"
     inkscape:cy="213.12633"
     inkscape:document-units="px"
     inkscape:current-layer="layer1"
     showgrid="false"
     width="300px"
     inkscape:window-width="1280"
     inkscape:window-height="953"
     inkscape:window-x="0"
     inkscape:window-y="25" />
  <metadata
     id="metadata2405">
    <rdf:RDF>
      <cc:Work
         rdf:about="">
        <dc:format>image/svg+xml</dc:format>
        <dc:type
           rdf:resource="http://purl.org/dc/dcmitype/StillImage" />
      </cc:Work>
    </rdf:RDF>
  </metadata>
  <g
     inkscape:label="Layer 1"
     inkscape:groupmode="layer"
     id="layer1">
    <path
       style="fill:#000000"
       d="M 61.088525,281.83516 C 54.454485,275.20112 54.949875,268.10486 63.938705,241.00709 C 77.975795,198.69079 87.828695,216.74501 75.725935,262.60575 C 69.566185,285.94683 67.679185,288.42581 61.088525,281.83516 z M 119.37878,262.32557 C 116.33133,256.63135 117.43515,248.35294 123.42803,231.95712 C 127.95935,219.55995 131.6668,205.92769 131.6668,201.66321 C 131.6668,197.2903 133.95421,194.70095 136.91295,195.72455 C 143.90332,198.14293 141.26269,243.01764 133.21237,258.61218 C 126.16015,272.27326 124.8857,272.61536 119.37878,262.32557 z M 182.02989,252.80068 C 182.02989,246.27547 190.88483,193.99203 193.30708,186.21525 C 194.76086,181.54778 196.71729,182.65718 200.87284,190.50546 C 205.52986,199.30083 205.54185,204.62422 200.94368,221.98239 C 197.89994,233.47261 194.08571,246.1788 192.46764,250.21834 C 189.18449,258.41474 182.02989,260.18483 182.02989,252.80068 z M 57.930635,185.74602 C 54.701585,180.5213 63.185225,173.78688 73.119715,173.68874 C 76.697595,173.65339 81.419125,171.9691 83.612025,169.94584 C 85.804915,167.9226 97.986495,162.43365 110.68218,157.74818 C 123.37788,153.06272 144.15265,143.75692 156.84835,137.06864 C 218.162,104.76773 272.00167,92.829976 226.38317,121.65085 C 188.28384,150.96445 137.74401,163.21886 93.894485,182.01831 C 75.528505,191.38794 62.267075,192.76251 57.930635,185.74602 z M 75.707815,107.87266 C 67.631765,99.796606 76.448265,47.716753 85.891485,47.716753 C 91.099355,47.716753 94.705585,63.731102 91.659155,73.329533 C 90.118615,78.183341 88.858185,88.570726 88.858185,96.412616 C 88.858185,109.69976 82.807685,114.97253 75.707815,107.87266 z M 175.7244,96.901116 C 174.02722,92.790346 173.93855,83.347276 175.52735,75.916482 C 177.11616,68.485713 179.39648,52.962902 180.59473,41.421367 C 183.26611,15.69065 188.65219,8.8795115 197.18889,20.436747 C 204.50977,30.347954 201.9388,52.107859 190.62308,76.007902 C 186.51482,84.684996 182.17627,94.617366 180.98186,98.079836 C 179.18308,103.29432 178.28039,103.09195 175.7244,96.901116 z M 125.95798,91.799596 C 124.63249,88.345466 125.63547,75.125152 128.18681,62.421122 C 131.93007,43.782025 134.42613,39.322901 141.11639,39.322901 C 148.24909,39.322901 149.01432,41.228205 146.59469,52.962902 C 145.04782,60.464899 142.74647,73.685213 141.4806,82.341366 C 139.15584,98.238156 130.46155,103.53575 125.95798,91.799596 z"
       id="path2523"
       sodipodi:nodetypes="cssccssssccssssccssssccccsssccsssssccssssc" />
  </g>
</svg>
