<?xml version="1.0" standalone="no"?>
<!DOCTYPE svg PUBLIC "-//W3C//DTD SVG 20010904//EN"
 "http://www.w3.org/TR/2001/REC-SVG-20010904/DTD/svg10.dtd">
<svg version="1.0" xmlns="http://www.w3.org/2000/svg"
 width="468pt" height="468pt" viewBox="0 0 468 468"
 preserveAspectRatio="xMidYMid meet">
<metadata>
Created by potrace 1.8, written by Peter Selinger 2001-2007
</metadata>
<g transform="translate(0,468) scale(0.396610,-0.396610)"
fill="#000000" stroke="none">
<path d="M395 1098 c-18 -54 -23 -109 -19 -208 2 -63 4 -127 4 -143 0 -60 67
-147 114 -147 43 0 48 -12 31 -66 -9 -27 -20 -57 -25 -66 -16 -28 -12 -41 8
-32 9 4 58 11 107 15 143 12 157 -9 88 -127 -55 -91 -59 -114 -33 -165 30 -59
61 -82 153 -113 79 -27 107 -26 107 3 0 20 -16 29 -109 63 -74 27 -122 66
-117 95 3 11 27 58 55 104 48 80 50 87 39 120 -15 51 -56 73 -119 65 -26 -4
-60 -4 -75 0 -24 6 -26 10 -20 42 3 19 9 39 13 43 5 5 35 9 68 10 136 4 163
57 168 325 2 156 -3 174 -54 174 -16 0 -29 5 -29 10 0 16 -350 13 -355 -2z
m308 -47 l67 -1 0 -50 0 -50 -78 0 c-44 0 -121 3 -172 7 l-92 6 6 35 c3 19 10
40 15 45 16 16 73 23 130 16 31 -4 86 -8 124 -8z m65 -153 c12 -10 12 -72 -1
-84 -6 -6 -35 -7 -199 -4 l-138 2 -8 31 c-15 58 -8 66 72 69 117 5 260 -3 274
-14z m-34 -144 c28 -5 36 -11 36 -28 0 -22 -64 -99 -73 -89 -3 3 -44 7 -92 8
-68 3 -92 9 -116 26 -31 22 -54 63 -44 80 3 5 53 8 111 8 58 -1 108 2 112 5 3
4 11 4 18 2 7 -3 29 -8 48 -12z"/>
<path d="M447 373 c-6 -20 -38 -75 -48 -83 -3 -3 -14 -21 -24 -40 -10 -19 -38
-61 -62 -94 -35 -45 -42 -61 -31 -67 7 -5 16 -9 20 -9 9 0 98 92 98 102 0 4 6
13 14 20 49 50 88 188 52 188 -7 0 -16 -8 -19 -17z"/>
</g>
</svg>
