<?xml version="1.0" standalone="no"?>
<!DOCTYPE svg PUBLIC "-//W3C//DTD SVG 20010904//EN"
 "http://www.w3.org/TR/2001/REC-SVG-20010904/DTD/svg10.dtd">
<svg version="1.0" xmlns="http://www.w3.org/2000/svg"
 width="468pt" height="468pt" viewBox="0 0 468 468"
 preserveAspectRatio="xMidYMid meet">
<metadata>
Created by potrace 1.8, written by Peter Selinger 2001-2007
</metadata>
<g transform="translate(0,468) scale(0.577778,-0.577778)"
fill="#000000" stroke="none">
<path d="M530 682 c-14 -9 -50 -38 -79 -64 -30 -27 -58 -48 -62 -48 -4 0 -30
19 -58 43 -85 73 -139 90 -91 30 l21 -27 -55 -54 c-31 -30 -56 -58 -56 -63 0
-20 31 -7 75 31 25 22 49 40 53 40 4 0 24 -14 45 -31 29 -24 37 -38 37 -63 0
-32 -2 -33 -54 -45 -94 -21 -94 -51 0 -51 l44 0 0 -54 0 -53 -76 -6 c-90 -7
-127 -29 -80 -47 15 -5 56 -10 90 -10 63 0 64 0 70 -31 3 -17 6 -51 6 -75 0
-31 4 -44 14 -44 18 0 26 31 26 101 l0 56 73 6 c75 6 107 14 107 27 0 13 -29
20 -107 27 l-74 6 3 51 3 51 68 6 c79 7 105 23 63 39 -15 5 -52 10 -82 10
l-54 0 0 33 c0 24 9 42 33 65 18 18 38 32 45 32 6 0 31 -11 56 -25 25 -14 50
-25 55 -25 24 0 9 30 -30 62 l-41 34 36 32 c20 17 36 36 36 42 0 15 -32 11
-60 -8z"/>
</g>
</svg>
