<?xml version="1.0" standalone="no"?>
<!DOCTYPE svg PUBLIC "-//W3C//DTD SVG 20010904//EN"
 "http://www.w3.org/TR/2001/REC-SVG-20010904/DTD/svg10.dtd">
<svg version="1.0" xmlns="http://www.w3.org/2000/svg"
 width="468pt" height="468pt" viewBox="0 0 468 468"
 preserveAspectRatio="xMidYMid meet">
<metadata>
Created by potrace 1.8, written by Peter Selinger 2001-2007
</metadata>
<g transform="translate(0,468) scale(0.383607,-0.383607)"
fill="#000000" stroke="none">
<path d="M759 1087 c-8 -7 -30 -43 -48 -82 -18 -38 -37 -78 -42 -87 -5 -10 -9
-24 -9 -32 0 -7 -7 -20 -16 -27 -19 -15 -30 -1 -52 66 -7 22 -17 49 -21 60 -5
11 -15 35 -21 53 -15 38 -46 60 -63 43 -8 -8 -5 -29 11 -75 12 -35 22 -68 22
-72 0 -5 -39 -10 -88 -12 -94 -4 -113 -12 -96 -40 8 -12 22 -16 45 -14 19 2
63 4 98 5 l65 2 19 -40 c11 -22 23 -47 27 -56 16 -31 -8 -37 -129 -32 -96 4
-119 2 -130 -10 -20 -25 5 -32 124 -34 61 -1 118 -2 127 -2 15 -1 17 -10 15
-63 l-2 -63 -40 -7 c-22 -4 -87 -7 -145 -7 -137 1 -130 2 -130 -20 0 -28 20
-32 153 -26 172 8 164 17 148 -171 -7 -82 -14 -187 -15 -234 -1 -85 -1 -85 25
-88 24 -3 27 1 33 40 10 62 13 114 16 276 3 177 3 177 134 166 74 -6 86 -5 86
9 0 24 31 30 37 7 5 -20 37 -28 48 -11 15 25 -27 39 -132 46 -60 3 -117 7
-128 8 -18 2 -20 10 -23 71 l-3 68 130 -6 c134 -6 159 0 128 31 -10 11 -47 16
-135 20 -134 6 -126 0 -90 81 l19 42 97 -6 c53 -4 104 -8 112 -8 8 -1 16 7 18
16 5 23 -26 35 -117 44 -39 3 -71 11 -71 16 0 10 46 96 62 116 8 9 6 18 -7 32
-21 23 -25 24 -46 7z"/>
</g>
</svg>
