<?xml version="1.0" encoding="UTF-8" standalone="no"?>
<!-- Created with Inkscape (http://www.inkscape.org/) -->

<svg
   xmlns:dc="http://purl.org/dc/elements/1.1/"
   xmlns:cc="http://creativecommons.org/ns#"
   xmlns:rdf="http://www.w3.org/1999/02/22-rdf-syntax-ns#"
   xmlns:svg="http://www.w3.org/2000/svg"
   xmlns="http://www.w3.org/2000/svg"
   xmlns:sodipodi="http://sodipodi.sourceforge.net/DTD/sodipodi-0.dtd"
   xmlns:inkscape="http://www.inkscape.org/namespaces/inkscape"
   width="300"
   height="300"
   id="svg2"
   version="1.1"
   inkscape:version="0.48.2 r9819"
   sodipodi:docname="皮-seal.svg">
  <defs
     id="defs4" />
  <sodipodi:namedview
     id="base"
     pagecolor="#ffffff"
     bordercolor="#666666"
     borderopacity="1.0"
     inkscape:pageopacity="0.0"
     inkscape:pageshadow="2"
     inkscape:zoom="1.979899"
     inkscape:cx="44.378127"
     inkscape:cy="171.3455"
     inkscape:document-units="px"
     inkscape:current-layer="layer1"
     showgrid="false"
     inkscape:window-width="1280"
     inkscape:window-height="999"
     inkscape:window-x="0"
     inkscape:window-y="24"
     inkscape:window-maximized="1" />
  <metadata
     id="metadata7">
    <rdf:RDF>
      <cc:Work
         rdf:about="">
        <dc:format>image/svg+xml</dc:format>
        <dc:type
           rdf:resource="http://purl.org/dc/dcmitype/StillImage" />
        <dc:title></dc:title>
      </cc:Work>
    </rdf:RDF>
  </metadata>
  <g
     inkscape:label="Calque 1"
     inkscape:groupmode="layer"
     id="layer1"
     transform="translate(0,-752.36218)">
    <path
       style="fill:#000000"
       d="m 220.13679,1035.9832 c -3.26547,-2.3632 -5.93722,-9.6878 -5.93722,-16.2768 0,-6.5891 -2.40988,-15.2389 -5.35528,-19.2218 -4.62902,-6.25949 -8.34888,-6.91669 -27.42925,-4.846 -35.84029,3.88956 -93.282088,-14.74239 -67.51299,-21.89867 4.25796,-1.18247 15.36217,0.47991 24.67602,3.69417 19.24416,6.64127 43.9579,7.68554 48.76176,2.06039 5.33458,-6.2466 -11.55876,-16.48665 -41.15621,-24.94722 -34.00565,-9.72066 -39.08459,-12.64595 -31.49388,-18.13931 8.93098,-6.4633 40.7152,1.97829 69.54563,18.47068 27.55631,15.76353 32.40867,16.8427 36.97867,8.22406 2.06538,-3.89514 -2.05623,-9.82397 -11.98104,-17.23447 -12.72741,-9.5031 -14.01963,-11.96328 -8.13895,-15.4953 10.34723,-6.21469 30.80446,0.66321 39.92122,13.42186 10.37963,14.52599 9.64442,19.39309 -4.80694,31.82217 l -12.42014,10.68209 8.36195,21.76605 c 7.35122,19.1351 7.48937,22.3976 1.14293,26.9905 -5.63855,4.0806 -8.51891,4.2837 -13.15628,0.9276 z M 42.055069,978.63594 c 0,-33.95374 32.80084,-60.31823 84.842641,-68.1944 12.74212,-1.92843 13.52564,-3.16373 13.52564,-21.32435 0,-30.2333 -4.998,-36.2174 -32.09534,-38.42776 -12.661577,-1.03282 -26.163529,-4.15205 -30.004338,-6.93162 -9.005105,-6.51695 -28.080289,-55.12416 -24.374973,-62.11208 4.289379,-8.08943 19.263614,-4.17699 22.514125,5.88245 3.598209,11.13546 13.768314,12.16916 87.322996,8.87555 l 55.33216,-2.47765 0,-10.57472 c 0,-8.93044 1.72074,-10.39786 11.06643,-9.43731 10.06125,1.03411 11.19884,3.32964 12.52418,25.27228 1.36387,22.58049 0.53344,24.80378 -12.89412,34.52124 -10.4417,7.5566 -21.05245,11.02964 -38.94566,12.74741 -29.843,2.86498 -38.07837,6.16463 -34.10207,13.66361 2.05249,3.87083 9.14531,5.69839 22.11562,5.69839 25.08536,0 49.09564,6.26598 55.09469,14.37811 16.96635,22.94253 -11.67945,42.57279 -62.12508,42.57279 -27.79119,0 -49.24034,4.0903 -80.164352,15.28713 -14.756379,5.34293 -29.707852,28.43968 -29.850874,46.11306 -0.08861,10.94886 -1.875991,13.34787 -9.944847,13.34787 -8.600475,0 -9.836828,-2.37295 -9.836828,-18.88 z M 197.87449,906.35108 c 25.96569,-5.03972 12.2082,-26.45241 -17.38672,-27.06136 -18.04274,-0.37126 -19.07134,0.11418 -20.47621,9.66356 -2.91165,19.79143 5.53464,23.67245 37.86293,17.3978 z M 176.37895,835.1024 c 22.63431,-2.24517 42.73903,-11.84716 42.73903,-20.41211 0,-3.53707 -12.5696,-4.27431 -55.33216,-3.24535 -83.027405,1.9978 -92.810958,4.99217 -61.48018,18.81673 16.67118,7.35609 35.98857,8.61849 74.07331,4.84073 z"
       id="path3030"
       inkscape:connector-curvature="0" />
  </g>
</svg>
