<?xml version="1.0" encoding="UTF-8" standalone="no"?>
<!-- Created with Inkscape (http://www.inkscape.org/) -->
<svg
   xmlns:dc="http://purl.org/dc/elements/1.1/"
   xmlns:cc="http://web.resource.org/cc/"
   xmlns:rdf="http://www.w3.org/1999/02/22-rdf-syntax-ns#"
   xmlns:svg="http://www.w3.org/2000/svg"
   xmlns="http://www.w3.org/2000/svg"
   xmlns:sodipodi="http://sodipodi.sourceforge.net/DTD/sodipodi-0.dtd"
   xmlns:inkscape="http://www.inkscape.org/namespaces/inkscape"
   width="300"
   height="300"
   id="svg2"
   sodipodi:version="0.32"
   inkscape:version="0.45.1"
   version="1.0"
   sodipodi:docbase="C:\Documents and Settings\Martin\桌面"
   sodipodi:docname="drawing.svg"
   inkscape:output_extension="org.inkscape.output.svg.inkscape">
  <defs
     id="defs4" />
  <sodipodi:namedview
     id="base"
     pagecolor="#ffffff"
     bordercolor="#666666"
     borderopacity="1.0"
     gridtolerance="10000"
     guidetolerance="10"
     objecttolerance="10"
     inkscape:pageopacity="0.0"
     inkscape:pageshadow="2"
     inkscape:zoom="0.65666667"
     inkscape:cx="254.31866"
     inkscape:cy="54.608024"
     inkscape:document-units="px"
     inkscape:current-layer="layer1"
     width="300px"
     height="300px"
     inkscape:window-width="742"
     inkscape:window-height="577"
     inkscape:window-x="44"
     inkscape:window-y="0" />
  <metadata
     id="metadata7">
    <rdf:RDF>
      <cc:Work
         rdf:about="">
        <dc:format>image/svg+xml</dc:format>
        <dc:type
           rdf:resource="http://purl.org/dc/dcmitype/StillImage" />
      </cc:Work>
    </rdf:RDF>
  </metadata>
  <g
     inkscape:label="Layer 1"
     inkscape:groupmode="layer"
     id="layer1">
    <path
       style="fill:#000000"
       d="M 134.87615,275.469 C 133.41961,272.74742 132.0013,257.32219 131.72432,241.19071 C 131.19825,210.54951 129.70807,197.57276 126.71553,197.57276 C 125.73987,197.57276 117.08535,204.42444 107.48324,212.79873 C 94.83051,223.83356 87.787388,228.02469 81.896296,228.02469 C 70.512001,228.02469 71.407814,221.52059 84.499828,209.12123 C 106.42478,188.3563 120.57528,175.84345 124.81812,173.46903 C 131.60018,169.67359 131.42792,136.30621 124.5886,129.01256 C 121.75998,125.99603 116.33122,119.40169 112.52472,114.35847 C 104.9524,104.3259 89.872907,86.950125 79.824594,76.678844 C 75.526468,72.285329 73.996313,68.332427 75.166525,64.645443 C 76.124987,61.625596 77.793808,59.154814 78.875019,59.154814 C 81.960771,59.154814 93.144749,67.337905 110.4732,82.274556 C 119.24173,89.832805 127.32631,95.106475 128.43894,93.993855 C 129.55158,92.881215 130.47477,76.178375 130.49049,56.876426 C 130.51818,22.874408 130.708,21.755081 136.58805,20.918279 C 147.13001,19.418034 152.22623,34.003845 151.75004,64.313179 C 151.52606,78.569758 151.9951,91.289685 152.79236,92.579655 C 153.58959,93.869645 156.37882,93.110405 158.99063,90.892455 C 167.85209,83.367305 196.95208,61.981526 198.37004,61.952273 C 199.14574,61.936267 201.3323,64.408199 203.2291,67.445449 C 206.11311,72.063489 205.88218,73.645485 201.81875,77.106874 C 181.21116,94.661245 158.96849,119.26946 156.81847,122.29054 C 155.39481,124.29097 153.43722,132.3661 154.05012,129.74796 C 154.4581,128.00515 151.28174,139.96244 151.28174,150.35564 C 151.28174,170.49837 151.65399,171.07065 172.04444,182.27841 C 205.83368,200.85087 226.02745,215.8642 226.02745,222.41277 C 226.02745,228.1039 203.03108,222.1718 180.43658,210.65224 C 166.78109,203.69012 154.557,198.64368 153.27189,199.4379 C 151.98682,200.23213 151.17472,214.77508 151.46726,231.75559 C 152.00419,262.92185 149.19042,275.94067 141.25976,278.98396 C 139.20534,279.77232 136.33269,278.1906 134.87615,275.469 z "
       id="path2186"
       sodipodi:nodetypes="cssssssssssssssssssssssssssssssc" />
  </g>
</svg>
