<?xml version="1.0" encoding="UTF-8" standalone="no"?>
<!-- Created with Inkscape (http://www.inkscape.org/) -->
<svg
   xmlns:dc="http://purl.org/dc/elements/1.1/"
   xmlns:cc="http://web.resource.org/cc/"
   xmlns:rdf="http://www.w3.org/1999/02/22-rdf-syntax-ns#"
   xmlns:svg="http://www.w3.org/2000/svg"
   xmlns="http://www.w3.org/2000/svg"
   xmlns:sodipodi="http://sodipodi.sourceforge.net/DTD/sodipodi-0.dtd"
   xmlns:inkscape="http://www.inkscape.org/namespaces/inkscape"
   width="300"
   height="300"
   id="svg2"
   sodipodi:version="0.32"
   inkscape:version="0.45.1"
   version="1.0"
   sodipodi:docbase="C:\Documents and Settings\Martin\桌面"
   sodipodi:docname="drawing.svg"
   inkscape:output_extension="org.inkscape.output.svg.inkscape">
  <defs
     id="defs4" />
  <sodipodi:namedview
     id="base"
     pagecolor="#ffffff"
     bordercolor="#666666"
     borderopacity="1.0"
     gridtolerance="10000"
     guidetolerance="10"
     objecttolerance="10"
     inkscape:pageopacity="0.0"
     inkscape:pageshadow="2"
     inkscape:zoom="0.65666667"
     inkscape:cx="254.31866"
     inkscape:cy="115.52173"
     inkscape:document-units="px"
     inkscape:current-layer="layer1"
     width="300px"
     height="300px"
     inkscape:window-width="742"
     inkscape:window-height="577"
     inkscape:window-x="44"
     inkscape:window-y="0" />
  <metadata
     id="metadata7">
    <rdf:RDF>
      <cc:Work
         rdf:about="">
        <dc:format>image/svg+xml</dc:format>
        <dc:type
           rdf:resource="http://purl.org/dc/dcmitype/StillImage" />
      </cc:Work>
    </rdf:RDF>
  </metadata>
  <g
     inkscape:label="Layer 1"
     inkscape:groupmode="layer"
     id="layer1">
    <path
       style="fill:#000000"
       d="M 73.656051,277.02209 C 72.556761,274.15739 75.115001,265.03591 79.341081,256.75219 C 89.172241,237.48147 89.005861,231.94918 77.835351,206.6907 L 68.645901,185.91174 L 76.907271,177.01333 C 82.293751,171.21149 92.919721,166.50689 107.44256,163.49397 C 132.1182,158.37475 142.70966,153.85863 142.70966,148.45634 C 142.70966,146.4864 137.28038,144.8653 130.6446,144.8539 C 107.24603,144.81377 92.305551,138.19143 84.997321,124.62084 C 78.176971,111.95624 78.194071,111.64388 86.632121,94.748345 C 96.957471,74.07381 95.072271,63.032166 78.657231,48.039345 C 69.763461,39.916109 67.942491,36.252897 71.185951,33.009439 C 74.429451,29.765942 78.274041,29.880171 86.960101,33.478082 C 101.00999,39.29771 104.43528,45.316688 107.69915,69.920868 C 109.67448,84.811711 108.84096,91.191641 103.94358,98.665926 C 98.159071,107.49424 98.127961,109.00301 103.55954,117.29267 C 107.81625,123.78924 112.82157,126.2971 121.44936,126.25615 C 143.20521,126.15291 143.53264,125.1504 139.00053,72.521203 C 134.63913,21.874949 136.4369,12.887891 149.30839,20.992567 C 154.72278,24.40178 155.86302,32.343856 156.74822,72.813401 C 157.32318,99.100378 159.31998,122.13428 161.18548,123.9998 C 163.23305,126.04737 171.27856,125.51543 181.48594,122.65754 C 201.18676,117.14165 202.39672,112.41705 190.6898,86.718771 C 184.14655,72.355448 183.6559,68.186322 187.43493,59.06291 C 193.04642,45.515595 214.89326,26.080197 224.51001,26.080197 C 235.13305,26.080197 233.50656,32.578252 218.81232,48.842989 C 203.85663,65.39714 202.99578,71.52025 213.25773,88.351377 C 229.99232,115.79868 217.6,136.38739 182.14216,140.04696 C 163.29317,141.99233 161.27128,143.04978 161.27128,150.96246 C 161.27128,159.23905 162.56094,159.72392 184.57537,159.72392 C 213.81276,159.72392 226.26932,166.90415 222.3335,181.48858 C 212.80921,216.78165 214.22193,241.44914 226.61501,256.24672 C 229.84406,260.10227 230.16158,263.81712 227.64625,268.31178 C 221.06196,280.07726 213.06627,275.31541 203.19245,253.74815 C 193.03116,231.55293 192.10723,223.58011 196.66241,197.39949 C 199.95717,178.46326 196.42448,174.71678 175.1925,174.63005 L 161.27128,174.57322 L 161.27128,212.99868 C 161.27128,255.5918 156.49567,275.88404 146.92084,273.97604 C 141.58853,272.91346 141.01903,266.81894 142.21989,223.6701 L 143.58629,174.57322 L 130.60818,174.57322 C 101.10797,174.57322 81.243571,191.77146 96.305591,204.27183 C 103.15345,209.95507 103.85965,243.81648 97.443931,258.85397 C 88.760101,279.2075 77.727991,287.63335 73.656051,277.02209 z "
       id="path2198" />
  </g>
</svg>
