<?xml version="1.0" encoding="UTF-8" standalone="no"?>
<!-- Created with Inkscape (http://www.inkscape.org/) -->

<svg
   xmlns:dc="http://purl.org/dc/elements/1.1/"
   xmlns:cc="http://creativecommons.org/ns#"
   xmlns:rdf="http://www.w3.org/1999/02/22-rdf-syntax-ns#"
   xmlns:svg="http://www.w3.org/2000/svg"
   xmlns="http://www.w3.org/2000/svg"
   xmlns:sodipodi="http://sodipodi.sourceforge.net/DTD/sodipodi-0.dtd"
   xmlns:inkscape="http://www.inkscape.org/namespaces/inkscape"
   width="300"
   height="300"
   id="svg2"
   version="1.1"
   inkscape:version="0.48.2 r9819"
   sodipodi:docname="死-oracle.svg">
  <defs
     id="defs4" />
  <sodipodi:namedview
     id="base"
     pagecolor="#ffffff"
     bordercolor="#666666"
     borderopacity="1.0"
     inkscape:pageopacity="0.0"
     inkscape:pageshadow="2"
     inkscape:zoom="1.979899"
     inkscape:cx="255.01661"
     inkscape:cy="171.80144"
     inkscape:document-units="px"
     inkscape:current-layer="layer1"
     showgrid="false"
     inkscape:window-width="1280"
     inkscape:window-height="999"
     inkscape:window-x="0"
     inkscape:window-y="24"
     inkscape:window-maximized="1" />
  <metadata
     id="metadata7">
    <rdf:RDF>
      <cc:Work
         rdf:about="">
        <dc:format>image/svg+xml</dc:format>
        <dc:type
           rdf:resource="http://purl.org/dc/dcmitype/StillImage" />
        <dc:title></dc:title>
      </cc:Work>
    </rdf:RDF>
  </metadata>
  <g
     inkscape:label="Calque 1"
     inkscape:groupmode="layer"
     id="layer1"
     transform="translate(0,-752.36218)">
    <path
       style="fill:#000000"
       d="m 135.77447,910.08082 c 0.15839,-46.92461 1.18514,-86.20182 2.28166,-87.28268 1.09652,-1.08086 3.7938,-1.28432 5.99397,-0.45214 3.14883,1.19101 3.9146,19.05622 3.59772,83.93314 -0.22144,45.33104 -1.34763,83.92737 -2.5027,85.76962 -1.15507,1.84225 -3.80079,3.34955 -5.87938,3.34955 -2.89348,0 -3.71175,-19.9965 -3.49127,-85.31749 z m 69.84373,66.25916 c -3.09604,-7.12781 -6.71162,-16.39016 -8.03463,-20.58299 -1.323,-4.19284 -7.31772,-17.91483 -13.3216,-30.49333 -11.23811,-23.54457 -14.66344,-45.70503 -7.43188,-48.08113 2.14009,-0.70317 7.38533,-8.07565 11.65611,-16.38328 8.49927,-16.53301 14.39523,-20.57672 21.51253,-14.75422 4.00254,3.27438 2.78034,5.75508 -8.89974,18.06372 -21.40544,22.55739 -22.17527,25.1645 -12.42784,42.08808 19.06836,33.10667 35.1701,69.23462 35.1701,78.9122 0,2.30484 -2.83362,4.19061 -6.29694,4.19061 -4.46283,0 -7.93656,-3.77477 -11.92611,-12.95966 z M 72.259533,972.27709 c 0,-2.65387 4.221257,-14.30564 9.38057,-25.89282 10.577311,-23.75532 16.760444,-51.63192 13.617329,-61.39359 -1.155963,-3.59011 -8.219897,-12.97487 -15.69763,-20.85502 -9.055712,-9.54305 -12.950704,-15.98484 -11.663855,-19.29043 3.057258,-7.85333 8.335516,-5.9192 21.823307,7.99678 23.126166,23.86035 24.831946,29.42213 16.600196,54.12566 -1.39714,4.19283 -4.92181,17.91483 -7.832592,30.49332 -2.910783,12.5785 -7.254302,26.64354 -9.652263,31.25566 -4.741423,9.11941 -16.575062,11.66136 -16.575062,3.56044 z"
       id="path3260"
       inkscape:connector-curvature="0" />
  </g>
</svg>
