<?xml version="1.0" encoding="UTF-8" standalone="no"?>
<!-- Created with Inkscape (http://www.inkscape.org/) -->
<svg
   xmlns="http://www.w3.org/2000/svg"
   xmlns:svg="http://www.w3.org/2000/svg"
   xmlns:sodipodi="http://sodipodi.sourceforge.net/DTD/sodipodi-0.dtd"
   version="1.0"
   width="300"
   height="300"
   id="svg2">
  <defs
     id="defs5" />
  <path
     style="fill:black"
     d="M 155.90007,238.67143 C 153.17314,234.20196 146.50813,239.73928 141.679,242.73741 C 136.02332,246.24869 121.90833,258.25924 114.11878,251.7795 C 106.32924,245.29976 106.59521,230.21997 108.50466,223.55915 C 112.60015,209.27264 125.80149,202.93466 133.54751,198.07801 C 160.19252,181.37197 154.19687,176.55936 153.58386,140.90074 C 153.48864,135.36176 150.79887,114.45203 149.95639,108.33978 C 142.63641,106.5306 136.60587,106.73141 129.30114,105.71257 C 125.60863,115.43946 123.15851,119.3469 114.01883,119.6438 C 103.9481,119.51067 103.57824,115.85851 111.74735,111.05512 C 114.82384,108.66924 116.23618,106.97756 118.41126,103.16162 C 104.78685,97.346963 93.745609,105.45476 93.922382,99.912428 C 94.163105,92.29782 103.7973,90.039318 121.68171,92.888973 C 124.45793,87.873095 126.46254,83.999935 131.17179,79.110669 C 135.88103,74.221404 140.46827,71.277267 145.71773,69.600052 C 144.77655,62.851379 144.29107,55.339691 144.23508,51.920134 C 136.90445,54.112318 134.54015,55.622179 132.0175,56.63701 C 131.23382,56.952274 131.18553,46.852723 132.02539,44.784393 C 134.29855,40.426181 136.29683,40.437419 143.64834,38.540429 C 143.71668,33.663635 144.09594,22.316945 147.79035,19.551274 C 151.48477,16.785603 166.15753,8.7523574 166.86009,10.121641 C 167.17275,10.731013 158.46896,25.844423 157.83374,35.344629 C 162.78163,33.877757 173.97365,26.706256 174.53026,28.084029 C 174.97403,29.182506 174.57846,39.603282 174.17876,41.715356 C 173.8883,43.250239 161.83903,45.290526 157.91531,48.547764 C 157.79185,52.079388 157.87191,58.297659 159.14989,67.047565 C 175.56393,65.950785 184.53939,66.784085 187.41583,86.312578 C 188.20725,98.787423 175.17474,110.4616 163.27065,109.10996 C 164.66086,119.64675 165.15641,144.33215 166.04527,160.06276 C 166.93413,175.79337 163.49636,192.28774 150.57537,199.59638 C 139.78842,205.69791 127.57315,212.96231 121.28008,220.37013 C 118.08687,224.12898 115.30873,235.2955 120.74423,240.28532 C 123.99729,243.27164 134.05035,235.30719 139.99282,230.88321 C 146.02223,226.3945 161.28001,216.80886 165.86539,222.02867 C 170.50892,227.31466 167.98667,248.04692 166.96202,259.36354 C 165.94846,270.55781 166.32706,277.86765 160.28087,280.18659 C 152.31146,283.24317 158.62699,243.14089 155.90007,238.67143 z M 174.38038,87.183376 C 173.21028,76.3772 167.82089,78.838052 160.80925,79.833906 C 161.12697,82.860278 161.05048,92.208564 162.09425,98.207922 C 166.50867,98.236983 175.6376,98.889263 174.38038,87.183376 z M 148.79444,97.148121 C 147.91469,93.030102 147.69573,85.955862 147.67003,83.29689 C 145.07796,84.206039 140.95833,84.860329 137.84774,88.056164 C 134.64338,91.348333 133.67539,92.424974 132.15464,95.510816 C 134.89265,96.212737 144.78815,97.269261 148.79444,97.148121 z "
     id="path1931"
     sodipodi:nodetypes="cszsssccsscscsccssczscsscczczssszzzszcccscczcc" />
</svg>
