<?xml version="1.0" encoding="UTF-8" standalone="no"?>
<!-- Created with Inkscape (http://www.inkscape.org/) -->

<svg
   xmlns:svg="http://www.w3.org/2000/svg"
   xmlns="http://www.w3.org/2000/svg"
   version="1.0"
   width="300"
   height="300"
   id="svg2">
  <defs
     id="defs5" />
  <path
     d="m 173.47541,26.59375 c -6.55561,9.941425 -4.25787,26.413995 -4.93034,38.292757 -9.51873,-0.216546 -22.73356,-3.077732 -27.72591,6.800993 -3.39597,6.719831 -2.78542,15.786252 -4.75,23.0625 -0.66824,3.967011 -1.56478,8.42216 -2.59375,12.90625 -9.02312,2.96424 -16.86972,6.40128 -21.46875,9.9375 -3.9251,3.01804 -4.04774,12.81177 1.40625,11.03125 4.59187,-1.49908 7.96199,-4.82554 12.65625,-6.875 1.33705,-0.58374 2.72506,-1.11334 4.15625,-1.59375 -1.38969,4.63628 -2.85068,8.68966 -4.25,11.34375 -3.79236,7.19297 -7.03601,11.02218 -1.375,13.28125 6.84462,1.08236 12.77033,-8.5749 14.8125,-13.375 2.12527,-4.99543 3.57442,-9.76951 4.65625,-14.4375 7.28002,-1.11295 14.99727,-1.64901 22.5,-2.1875 0.38921,15.77829 1.46979,31.68253 3.15625,48.71875 0.72235,5.83908 1.17078,14.04767 -3.8125,15.875 -10.00485,3.66872 -16.34614,-0.18633 -25.46875,-4.375 -8.32402,-3.82201 -27.35443,-14.01933 -34.875,-7.03125 -12.203555,11.3395 10.37648,39.57935 23.75,50.3125 4.67104,3.74469 42.50788,-3.71751 38.9375,6.03125 -6.32684,17.27514 -13.14554,23.87882 -24.0625,43.125 -5.51584,9.72423 9.50584,7.27601 14.15625,1.8125 16.28105,-19.12774 27.77225,-42.93574 23.875,-50.09375 -10.88375,-20.45594 -45.67715,-10.75156 -48.3125,-13.96875 -4.82856,-5.89459 -20.05459,-21.59818 -17.59375,-24.53125 1.9029,-2.26809 26.97012,15.84353 40.25,15.65625 11.88338,-0.1693 20.14646,-1.41161 26.59375,-9.15625 7.90127,-9.4912 -2.29537,-36.26498 -2.15625,-51.75 0.0704,-7.8409 0.0422,-14.97653 0,-21.875 1.56646,-0.18178 3.10227,-0.36487 4.59375,-0.59375 8.73039,-1.33976 8.93383,-15.507112 6.46875,-24.1875 -2.11227,-7.438008 -6.21772,-13.630316 -11.21875,-18.90625 0.14246,-12.551518 3.88602,-27.408795 0.70447,-39.590736 -1.06235,-4.067658 -7.15887,-5.055331 -8.07947,-3.659264 z M 166.91291,78 c -0.32194,7.443663 -0.47983,14.754849 -0.5,22 -6.3271,0.8717 -13.20429,2.22919 -19.9375,3.90625 1.0987,-6.908307 2.14325,-13.879569 4.3125,-21.3125 3.45533,-6.959688 9.84955,-8.739894 16.125,-4.59375 z m 13.90625,9.46875 c 0.53264,1.068335 0.86957,2.322294 0.9375,3.84375 0.0865,1.937105 -0.26466,3.353242 -0.90625,4.4375 -0.0238,-2.773924 -0.017,-5.527916 -0.0312,-8.28125 z"
     id="path1948"
     style="fill:#000000;fill-opacity:1;fill-rule:evenodd;stroke:none" />
</svg>
