<?xml version="1.0" encoding="UTF-8" standalone="no"?>
<!-- Created with Inkscape (http://www.inkscape.org/) -->

<svg
   xmlns:dc="http://purl.org/dc/elements/1.1/"
   xmlns:cc="http://creativecommons.org/ns#"
   xmlns:rdf="http://www.w3.org/1999/02/22-rdf-syntax-ns#"
   xmlns:svg="http://www.w3.org/2000/svg"
   xmlns="http://www.w3.org/2000/svg"
   xmlns:sodipodi="http://sodipodi.sourceforge.net/DTD/sodipodi-0.dtd"
   xmlns:inkscape="http://www.inkscape.org/namespaces/inkscape"
   width="200"
   height="200"
   id="svg2"
   version="1.1"
   inkscape:version="0.48.2 r9819"
   sodipodi:docname="Nouveau document 1">
  <defs
     id="defs4" />
  <sodipodi:namedview
     id="base"
     pagecolor="#ffffff"
     bordercolor="#666666"
     borderopacity="1.0"
     inkscape:pageopacity="0.0"
     inkscape:pageshadow="2"
     inkscape:zoom="3.959798"
     inkscape:cx="135.65826"
     inkscape:cy="103.65861"
     inkscape:document-units="px"
     inkscape:current-layer="layer1"
     showgrid="false"
     inkscape:window-width="1280"
     inkscape:window-height="999"
     inkscape:window-x="0"
     inkscape:window-y="24"
     inkscape:window-maximized="1" />
  <metadata
     id="metadata7">
    <rdf:RDF>
      <cc:Work
         rdf:about="">
        <dc:format>image/svg+xml</dc:format>
        <dc:type
           rdf:resource="http://purl.org/dc/dcmitype/StillImage" />
        <dc:title></dc:title>
      </cc:Work>
    </rdf:RDF>
  </metadata>
  <g
     inkscape:label="Calque 1"
     inkscape:groupmode="layer"
     id="layer1"
     transform="translate(0,-852.36218)">
    <a
       id="a3016"
       transform="matrix(1.264871,0,0,1.1834513,-42.405467,-190.11921)">
      <path
         sodipodi:nodetypes="ssssssccsssscsssscssssssscsssssssssscs"
         inkscape:connector-curvature="0"
         id="path2996"
         d="m 93.81348,1035.2186 c -11.580822,-4.024 -14.087961,-6.5704 -18.09793,-18.3815 -1.963245,-5.7826 -1.312184,-13.659 1.601074,-19.36944 2.466054,-4.83387 3.592836,-5.54072 5.612642,-3.52091 1.586294,1.58629 1.576745,1.96649 -0.271639,10.81565 -1.161766,5.562 3.143315,16.0402 8.098654,19.7114 3.694044,2.7368 9.668189,3.7127 17.565389,2.8694 4.12049,-0.4401 8.39181,-1.2087 9.49181,-1.7081 15.37374,-6.9793 21.06952,-12.6855 27.61055,-27.66128 4.72211,-10.81133 7.05161,-26.55282 6.32891,-42.76731 -0.86811,-19.4769 -2.98824,-27.93085 -7.77561,-31.0051 -7.68186,-4.93298 -39.30018,-4.53463 -59.805071,0.75347 -2.704391,0.69744 -3.854115,3.49366 -3.862517,9.39394 -0.0061,4.31607 -2.889826,8.2414 -11.02689,15.01007 -3.265277,2.71617 -7.379265,3.67804 -13.719372,3.20767 -2.827301,-0.20976 -1.053034,-3.67613 2.835449,-5.5396 7.02203,-3.36515 11.914551,-9.3043 11.914551,-14.46334 l 0,-3.10147 -8.5,0.65336 c -7.161841,0.55051 -8.5,0.41839 -8.5,-0.83917 0,-1.90988 3.174044,-4.80252 5.269724,-4.80252 0.886733,0 1.852207,-0.38827 2.145498,-0.86283 0.293291,-0.47455 2.569848,-1.43303 5.059017,-2.12996 3.670531,-1.02768 4.525761,-1.69714 4.525761,-3.54267 0,-4.26647 -4.252909,-10.53157 -8.987231,-13.23938 -2.482023,-1.4196 -4.710983,-2.73672 -4.953245,-2.92693 -0.242262,-0.19022 0.293743,-1.08007 1.191123,-1.97745 1.5088,-1.5088 2.061543,-1.49636 7.344101,0.1652 7.735852,2.43323 12.635137,7.01361 14.388294,13.45175 1.503646,5.52185 1.421977,5.46122 5.617735,4.17016 14.85357,-4.57055 40.893053,-6.27829 55.220833,-3.62153 6.26634,1.16195 18.17839,11.64327 18.17839,15.99502 0,1.32032 0.51777,2.72058 1.15059,3.11169 1.29386,0.79965 0.44602,36.00786 -1.08139,44.90693 -2.35669,13.73071 -4.19943,19.81809 -8.83523,29.18668 -5.80112,11.7236 -9.3948,15.7422 -17.97791,20.1038 -3.37726,1.7162 -6.95397,3.5379 -7.94826,4.0483 -8.98454,4.6115 -22.63101,6.3998 -29.8078,3.906 z"
         style="fill:#000000" />
    </a>
    <path
       style="fill:#999999"
       d="m 91.998513,1014.503 c -5.445813,-2.1851 -7.91517,-6.3761 -11.362919,-19.28469 -2.132803,-7.98541 -2.172286,-9.08034 -0.417758,-11.58571 1.990286,-2.84206 7.373348,-3.79793 8.844633,-1.57056 1.24643,1.8869 8.186714,0.93422 8.39328,-1.1522 0.09904,-1.00061 0.382901,-3.68326 0.63074,-5.9614 0.247839,-2.27815 0.131914,-6.40543 -0.257629,-9.17172 -0.557593,-3.95985 -1.229834,-5.02966 -3.16047,-5.02966 -1.348732,0 -2.452243,-0.53256 -2.452243,-1.18346 0,-0.65089 -0.581398,-1.18345 -1.29199,-1.18345 -2.164827,0 -11.116557,-5.99157 -11.935692,-7.9888 -1.326703,-3.23479 1.238575,-4.27736 7.099673,-2.88542 2.977671,0.70717 5.66303,1.05269 5.967484,0.76784 0.304442,-0.28485 -1.371664,-4.11867 -3.724678,-8.51959 -4.072556,-7.61703 -7.882909,-12.14376 -10.221922,-12.14376 -2.039252,0 -1.062319,-3.39321 1.142191,-3.96719 1.88798,-0.49158 8.981956,-1.28637 23.083907,-2.58624 1.73919,-0.16033 8.1426,0.25318 14.22979,0.9189 11.04138,1.20751 11.06763,1.21843 11.06763,4.60591 0,1.86753 -0.53085,3.39552 -1.17964,3.39552 -0.6488,0 -1.54094,1.06511 -1.98254,2.3669 -0.44161,1.3018 -1.40109,2.36691 -2.1322,2.36691 -1.385,0 -8.5637,7.09227 -8.59901,8.49548 -0.0114,0.44169 -0.94174,1.66529 -2.06809,2.71913 -3.22332,3.01584 -1.35366,3.25233 5.13591,0.64964 7.49025,-3.00401 7.59662,-2.99861 9.28679,0.47211 1.04477,2.14544 1.01623,3.14895 -0.11321,3.97999 -4.19784,3.08877 -14.42662,9.36862 -16.37245,10.0517 -1.87025,0.65654 -2.21353,2.34281 -2.21353,10.87347 l 0,10.09649 4.38255,0 c 3.08801,0 4.78246,-0.69906 5.73642,-2.3669 1.83508,-3.2081 7.15893,-3.13283 8.26132,0.11716 1.24189,3.66101 -0.51396,12.92412 -3.29946,17.40663 -1.33766,2.15258 -2.43212,4.65527 -2.43212,5.56147 0,0.9062 -2.41906,4.0379 -5.3757,6.9592 -4.61236,4.5574 -6.27375,5.406 -11.70005,5.976 -4.322183,0.4539 -7.794785,0.074 -10.969042,-1.1995 z m 15.400737,-8.7849 c 2.93802,0 5.3282,-5.6409 4.82468,-11.38632 l -0.40228,-4.5902 -6.95679,0.0533 c -3.82624,0.0296 -8.568315,0.44983 -10.537934,0.93434 -3.41156,0.83906 -3.540007,1.1167 -2.712453,5.86371 1.182553,6.78332 5.146912,10.70052 9.924537,9.80652 2.00313,-0.3748 4.64025,-0.6815 5.86024,-0.6815 z m -0.21767,-68.50954 c 2.20419,-3.18269 4.00763,-6.11173 4.00763,-6.50898 0,-0.39724 -3.69975,-0.72226 -8.22166,-0.72226 -4.696946,0 -8.221661,0.51288 -8.221661,1.19635 0,2.52465 5.413101,11.82162 6.883061,11.82162 0.84974,0 3.34843,-2.60402 5.55262,-5.78673 z"
       id="path2996-3"
       inkscape:connector-curvature="0"
       sodipodi:nodetypes="cssscssssssscssssssssscsssssscssscssscccsccssccccsssccc" />
  </g>
</svg>
