<?xml version="1.0" encoding="UTF-8" standalone="no"?>
<!-- Created with Inkscape (http://www.inkscape.org/) -->
<svg
   xmlns:dc="http://purl.org/dc/elements/1.1/"
   xmlns:cc="http://web.resource.org/cc/"
   xmlns:rdf="http://www.w3.org/1999/02/22-rdf-syntax-ns#"
   xmlns:svg="http://www.w3.org/2000/svg"
   xmlns="http://www.w3.org/2000/svg"
   xmlns:sodipodi="http://sodipodi.sourceforge.net/DTD/sodipodi-0.dtd"
   xmlns:inkscape="http://www.inkscape.org/namespaces/inkscape"
   width="300"
   height="300"
   id="svg2"
   sodipodi:version="0.32"
   inkscape:version="0.45.1"
   version="1.0"
   sodipodi:docbase="C:\Documents and Settings\Martin\桌面"
   sodipodi:docname="drawing.svg"
   inkscape:output_extension="org.inkscape.output.svg.inkscape">
  <defs
     id="defs4" />
  <sodipodi:namedview
     id="base"
     pagecolor="#ffffff"
     bordercolor="#666666"
     borderopacity="1.0"
     gridtolerance="10000"
     guidetolerance="10"
     objecttolerance="10"
     inkscape:pageopacity="0.0"
     inkscape:pageshadow="2"
     inkscape:zoom="1.7411011"
     inkscape:cx="109.52706"
     inkscape:cy="172.4257"
     inkscape:document-units="px"
     inkscape:current-layer="layer1"
     width="300px"
     height="300px"
     inkscape:window-width="1024"
     inkscape:window-height="712"
     inkscape:window-x="0"
     inkscape:window-y="22" />
  <metadata
     id="metadata7">
    <rdf:RDF>
      <cc:Work
         rdf:about="">
        <dc:format>image/svg+xml</dc:format>
        <dc:type
           rdf:resource="http://purl.org/dc/dcmitype/StillImage" />
      </cc:Work>
    </rdf:RDF>
  </metadata>
  <g
     inkscape:label="Layer 1"
     inkscape:groupmode="layer"
     id="layer1">
    <path
       style="fill:#000000"
       d="M 155.86085,282.99481 C 152.41117,280.76026 143.35583,261.55135 139.18376,247.61802 C 137.04293,240.46835 137.37689,234.16566 140.60019,220.88769 C 142.91996,211.33158 145.38755,196.5488 146.08375,188.03704 C 147.31834,172.94203 147.08036,172.26915 136.4146,160.69818 C 127.01287,150.49849 125.4797,147.15794 125.4797,136.8726 C 125.4797,130.29317 126.5548,122.14694 127.86881,118.76989 C 129.18282,115.39283 132.46819,105.62763 135.16966,97.069438 L 140.08142,81.509087 L 133.44882,76.258312 C 122.60293,67.672043 103.48224,58.71325 92.297479,56.977316 C 76.743245,54.563217 74.460194,50.679816 84.047673,42.944656 C 96.667499,35.91278 107.69072,25.788534 121.21453,20.4101 C 137.21936,12.733917 148.56597,13.756673 166.90265,20.14968 C 175.54992,25.21811 188.99721,47.37389 189.3904,57.200593 C 189.52358,60.528421 191.06907,65.551474 192.82486,68.362933 C 195.29927,72.325118 195.29927,75.050321 192.82486,80.481092 C 188.12346,90.799544 188.9531,98.002208 196.21995,109.95675 C 218.1414,146.01916 221.62121,156.84818 221.67006,189.1565 C 221.70349,211.28428 220.72893,217.03621 214.72407,230.15257 C 210.88235,238.54393 206.8129,244.40289 205.68083,243.17253 C 204.54873,241.94212 202.94071,232.71808 202.10747,222.67467 C 200.67987,205.46714 199.91125,203.73263 188.78165,192.60302 C 173.19334,177.01472 168.24826,177.05411 168.24826,192.76659 C 168.24826,202.60213 170.15604,207.2574 178.9289,218.82867 C 198.02808,244.02031 190.70064,262.70992 170.762,239.65944 C 160.63789,227.95524 157.53562,226.5238 157.59638,233.5846 C 157.64342,239.05319 163.75226,257.3782 166.41631,260.04229 C 167.42389,261.04984 168.24826,267.08662 168.24826,273.45736 C 168.24826,282.72251 167.31212,285.03232 163.57045,284.99958 C 160.99765,284.97707 157.52832,284.07492 155.86085,282.99481 z M 200.32466,162.45394 C 200.32466,158.24859 197.52159,150.73068 194.09559,145.74747 C 190.6696,140.76427 184.65526,132.0085 180.73042,126.2902 C 176.80557,120.57192 173.58762,113.95615 173.57941,111.58852 C 173.57123,109.22087 172.29154,102.69958 170.7357,97.096718 C 168.69702,89.755021 166.64802,87.155824 163.39976,87.790879 C 160.92085,88.275524 158.82459,91.055382 158.74137,93.968328 C 158.65818,96.881298 155.95173,105.07796 152.72704,112.18314 C 142.96477,133.69305 144.28258,138.36182 163.30252,149.65095 C 172.34371,155.01726 180.57737,159.40788 181.59948,159.40788 C 182.62162,159.40788 185.63504,161.81363 188.29602,164.75396 C 195.27036,172.46054 200.32466,171.49409 200.32466,162.45394 z M 165.32692,59.468272 C 169.02175,55.016292 164.08286,41.794374 158.72506,41.794374 C 154.99201,41.794374 148.80337,57.15603 151.06329,60.812664 C 153.30174,64.434542 161.87602,63.626394 165.32692,59.468272 z M 135.66215,45.135079 C 136.325,40.648472 135.47493,40.176619 130.98434,40.978404 C 119.80264,42.974874 119.15495,46.618157 127.31741,50.760179 C 131.28621,52.774139 134.79766,50.986211 135.66215,45.135079 z "
       id="path2185"
       sodipodi:nodetypes="csssssscccscccssssssssssssssssccssssssssssccssccssc" />
  </g>
</svg>
