<?xml version="1.0" encoding="UTF-8" standalone="no"?>
<!-- Created with Inkscape (http://www.inkscape.org/) -->
<svg
   xmlns:dc="http://purl.org/dc/elements/1.1/"
   xmlns:cc="http://web.resource.org/cc/"
   xmlns:rdf="http://www.w3.org/1999/02/22-rdf-syntax-ns#"
   xmlns:svg="http://www.w3.org/2000/svg"
   xmlns="http://www.w3.org/2000/svg"
   xmlns:sodipodi="http://sodipodi.sourceforge.net/DTD/sodipodi-0.dtd"
   xmlns:inkscape="http://www.inkscape.org/namespaces/inkscape"
   width="300"
   height="300"
   id="svg2"
   sodipodi:version="0.32"
   inkscape:version="0.45.1"
   version="1.0"
   sodipodi:docbase="C:\Documents and Settings\Martin\桌面"
   sodipodi:docname="drawing.svg"
   inkscape:output_extension="org.inkscape.output.svg.inkscape">
  <defs
     id="defs4" />
  <sodipodi:namedview
     id="base"
     pagecolor="#ffffff"
     bordercolor="#666666"
     borderopacity="1.0"
     gridtolerance="10000"
     guidetolerance="10"
     objecttolerance="10"
     inkscape:pageopacity="0.0"
     inkscape:pageshadow="2"
     inkscape:zoom="1.2311444"
     inkscape:cx="154.65494"
     inkscape:cy="138.33478"
     inkscape:document-units="px"
     inkscape:current-layer="layer1"
     width="300px"
     height="300px"
     inkscape:window-width="1024"
     inkscape:window-height="712"
     inkscape:window-x="0"
     inkscape:window-y="22" />
  <metadata
     id="metadata7">
    <rdf:RDF>
      <cc:Work
         rdf:about="">
        <dc:format>image/svg+xml</dc:format>
        <dc:type
           rdf:resource="http://purl.org/dc/dcmitype/StillImage" />
      </cc:Work>
    </rdf:RDF>
  </metadata>
  <g
     inkscape:label="Layer 1"
     inkscape:groupmode="layer"
     id="layer1">
    <path
       style="fill:#000000"
       d="M 179.49437,281.57136 C 178.14402,279.40069 177.02961,276.50787 177.01793,275.14284 C 177.00626,273.77783 169.82393,265.14809 161.05724,255.96563 C 142.74484,236.78482 133.35463,223.4733 129.03222,210.56721 C 126.37547,202.63455 126.34206,200.36059 128.76399,192.31313 C 130.28561,187.25721 134.68326,179.27307 138.53655,174.57064 C 142.60197,169.60932 145.76335,163.43397 146.06861,159.85768 C 146.65871,152.94473 143.23689,150.23923 128.30171,145.81008 C 115.58141,142.03775 110.25773,134.55598 110.25773,120.45157 C 109.04907,110.97097 113.80496,106.18205 117.89001,98.423681 C 120.46734,93.337354 127.75928,83.745546 134.09433,77.108551 C 140.42939,70.471557 145.61262,64.293126 145.61262,63.378713 C 145.61262,62.464312 147.8223,59.331884 150.52302,56.417748 C 153.22374,53.503625 155.40751,50.143563 155.37585,48.950952 C 155.27856,45.287652 144.90397,35.109849 134.19134,28.168302 C 123.42503,21.191963 123.1197,20.778417 125.71424,16.686308 C 129.33599,10.974049 151.03521,20.617904 162.30798,32.949786 C 165.9817,36.968666 173.1218,52.659334 173.11632,56.701574 C 184.52012,98.040724 186.55801,141.57005 187.79217,184.27378 C 188.32137,202.63868 189.16235,222.08387 189.66102,227.48531 C 190.15969,232.88675 189.95441,247.90305 189.20487,260.85484 C 188.12674,279.4845 187.22662,284.51999 184.89582,284.96082 C 183.27539,285.26729 180.84474,283.74204 179.49437,281.57136 z M 178.96298,247.24924 C 180.18861,243.53552 180.70754,237.56939 180.11615,233.99116 C 179.52476,230.41295 178.12823,207.41868 177.0127,182.89281 C 173.94227,115.38525 167.51601,65.442081 161.90014,65.442081 C 146.63795,76.328503 122.05625,102.04691 119.76981,121.06152 C 121.14808,129.24933 126.36229,134.11037 137.46675,137.55983 C 143.56741,139.45491 148.85348,141.68113 149.21357,142.50698 C 152.80126,144.35361 155.72521,145.58447 158.37801,149.19204 C 161.38718,153.78464 161.47462,155.29608 159.14493,162.45012 C 157.69874,166.89113 155.817,171.40854 154.9633,172.48883 C 145.95603,183.88661 140.11277,193.09522 138.97947,197.67833 C 137.75,202.65037 140.79298,216.02022 143.75183,218.64659 C 144.36036,219.18673 146.34548,221.83835 148.16322,224.53907 C 152.41348,230.85393 173.68101,253.76937 175.41374,253.90109 C 176.14016,253.95631 177.73732,250.96298 178.96298,247.24924 z "
       id="path2185"
       sodipodi:nodetypes="csssssssccsssssssccsssccssccsccssssssc" />
  </g>
</svg>
