<?xml version="1.0" encoding="UTF-8" standalone="no"?>
<!-- Created with Inkscape (http://www.inkscape.org/) -->
<svg
   xmlns:dc="http://purl.org/dc/elements/1.1/"
   xmlns:cc="http://web.resource.org/cc/"
   xmlns:rdf="http://www.w3.org/1999/02/22-rdf-syntax-ns#"
   xmlns:svg="http://www.w3.org/2000/svg"
   xmlns="http://www.w3.org/2000/svg"
   xmlns:sodipodi="http://sodipodi.sourceforge.net/DTD/sodipodi-0.dtd"
   xmlns:inkscape="http://www.inkscape.org/namespaces/inkscape"
   width="300"
   height="300"
   id="svg2"
   sodipodi:version="0.32"
   inkscape:version="0.45.1"
   version="1.0"
   sodipodi:docbase="C:\Documents and Settings\Martin\桌面"
   sodipodi:docname="drawing.svg"
   inkscape:output_extension="org.inkscape.output.svg.inkscape">
  <defs
     id="defs4" />
  <sodipodi:namedview
     id="base"
     pagecolor="#ffffff"
     bordercolor="#666666"
     borderopacity="1.0"
     gridtolerance="10000"
     guidetolerance="10"
     objecttolerance="10"
     inkscape:pageopacity="0.0"
     inkscape:pageshadow="2"
     inkscape:zoom="1.2311444"
     inkscape:cx="100.04237"
     inkscape:cy="158.90891"
     inkscape:document-units="px"
     inkscape:current-layer="layer1"
     width="300px"
     height="300px"
     inkscape:window-width="1024"
     inkscape:window-height="712"
     inkscape:window-x="0"
     inkscape:window-y="22" />
  <metadata
     id="metadata7">
    <rdf:RDF>
      <cc:Work
         rdf:about="">
        <dc:format>image/svg+xml</dc:format>
        <dc:type
           rdf:resource="http://purl.org/dc/dcmitype/StillImage" />
      </cc:Work>
    </rdf:RDF>
  </metadata>
  <g
     inkscape:label="Layer 1"
     inkscape:groupmode="layer"
     id="layer1">
    <path
       style="fill:#000000"
       d="M 91.811445,282.73677 C 84.754315,271.78058 92.111804,269.81225 94.2875,261.41759 C 94.983667,258.05142 96.475644,250.79049 97.603008,245.2822 C 109.38567,198.87103 115.32095,191.14261 155.03205,183.19271 C 192.49984,176.13846 197.25853,172.90614 199.10019,153.25962 C 199.87909,144.95041 199.15205,142.55226 194.54071,138.22014 C 189.44141,133.42959 187.0239,133.039 160.25464,132.68066 C 134.9053,132.34132 130.18255,131.66419 120.83672,127.02904 C 101.53253,117.45497 97.32654,95.934611 112.11898,82.423797 C 118.8794,76.249122 119.1418,76.205345 148.46316,76.360734 C 189.57995,76.578633 198.12882,72.926009 198.12882,55.140385 C 198.12882,50.710162 196.68748,49.811062 187.55735,48.545949 C 175.41096,46.862891 155.2865,46.848147 131.53801,48.504905 C 112.19127,49.854587 102.42923,46.898049 102.42923,39.689001 C 102.42923,34.958277 102.64578,34.940586 151.39181,35.688933 L 200.35439,36.440606 L 200.35439,26.375812 C 200.35439,14.271068 203.29161,11.668838 208.30987,19.327676 C 211.42247,24.078074 211.76543,28.417088 210.47045,46.661849 C 208.10575,79.977949 204.48658,85.136798 182.64667,86.322564 C 137.9523,88.749181 123.36691,90.604224 118.56463,94.472836 C 114.7739,97.526566 115.04931,108.36867 119.00091,111.64821 C 124.70128,116.3791 147.50163,120.48949 168.49511,120.5709 C 192.85533,120.66538 198.90504,122.61657 204.79619,132.27897 C 210.50838,141.64784 211.02676,167.04225 205.69022,176.07629 C 201.54529,183.0931 188.36401,189.39507 172.53474,191.92793 C 137.55408,197.52524 124.33535,203.78252 117.30839,218.07011 C 110.21951,232.48365 103.4334,258.61745 101.86755,277.53396 C 101.27276,284.71944 96.344102,287.26941 91.811445,282.73677 z "
       id="path2185"
       sodipodi:nodetypes="ccccsssssssssscccsssssssssssc" />
  </g>
</svg>
