<?xml version="1.0" encoding="UTF-8" standalone="no"?>
<!-- Created with Inkscape (http://www.inkscape.org/) -->
<svg
   xmlns:dc="http://purl.org/dc/elements/1.1/"
   xmlns:cc="http://web.resource.org/cc/"
   xmlns:rdf="http://www.w3.org/1999/02/22-rdf-syntax-ns#"
   xmlns:svg="http://www.w3.org/2000/svg"
   xmlns="http://www.w3.org/2000/svg"
   xmlns:sodipodi="http://sodipodi.sourceforge.net/DTD/sodipodi-0.dtd"
   xmlns:inkscape="http://www.inkscape.org/namespaces/inkscape"
   width="300"
   height="300"
   id="svg2"
   sodipodi:version="0.32"
   inkscape:version="0.45.1"
   version="1.0"
   sodipodi:docbase="C:\Documents and Settings\Martin\桌面"
   sodipodi:docname="drawing.svg"
   inkscape:output_extension="org.inkscape.output.svg.inkscape">
  <defs
     id="defs4" />
  <sodipodi:namedview
     id="base"
     pagecolor="#ffffff"
     bordercolor="#666666"
     borderopacity="1.0"
     gridtolerance="10000"
     guidetolerance="10"
     objecttolerance="10"
     inkscape:pageopacity="0.0"
     inkscape:pageshadow="2"
     inkscape:zoom="0.98994949"
     inkscape:cx="141.39385"
     inkscape:cy="166.29214"
     inkscape:document-units="px"
     inkscape:current-layer="layer1"
     width="300px"
     height="300px"
     inkscape:window-width="742"
     inkscape:window-height="577"
     inkscape:window-x="22"
     inkscape:window-y="0" />
  <metadata
     id="metadata7">
    <rdf:RDF>
      <cc:Work
         rdf:about="">
        <dc:format>image/svg+xml</dc:format>
        <dc:type
           rdf:resource="http://purl.org/dc/dcmitype/StillImage" />
      </cc:Work>
    </rdf:RDF>
  </metadata>
  <g
     inkscape:label="Layer 1"
     inkscape:groupmode="layer"
     id="layer1">
    <path
       style="fill:#000000"
       d="M 100.71445,278.39268 C 99.733283,275.83577 105.97431,261.90578 114.58343,247.43712 C 133.26634,216.0382 143.30877,179.55006 142.02763,147.72152 C 141.67052,138.8497 140.42859,137.99263 127.92969,137.99263 C 111.17408,137.99263 87.828603,130.08379 75.072534,120.08595 C 60.378306,108.56903 49.717778,54.299168 60.803829,47.447625 C 67.590382,43.253272 74.418264,56.964216 74.418264,74.786585 C 74.418264,99.040238 84.702733,114.84498 103.69857,119.78326 C 132.2224,127.19855 142.20435,126.70227 143.47854,115.57328 C 144.4209,107.34249 135.3966,102.5656 120.67411,89.030488 C 105.54164,75.11849 102.74306,70.580626 102.86426,60.152063 C 103.26304,25.833103 159.703,3.5989233 187.3557,26.867132 C 196.7392,34.762818 198.24048,38.379068 198.24048,53.085952 C 198.24048,67.792891 196.7392,71.40913 187.3557,79.304817 C 175.37841,89.383068 162.8627,91.397938 162.8627,83.247913 C 162.8627,80.379248 167.63871,75.562346 173.47604,72.543742 C 182.54354,67.854766 184.08938,65.025635 184.08938,53.119603 C 184.08938,36.507155 177.73825,31.859293 155.03799,31.859293 C 136.77492,31.859293 126.59136,38.161282 120.29637,53.358725 C 115.71817,64.411519 115.87713,64.717358 135.72883,83.046372 C 151.9454,98.019098 163.78715,103.69932 163.78715,112.70384 C 163.78715,122.50392 162.95557,123.83738 171.51604,123.80698 C 176.86694,123.78795 183.66569,119.8521 193.95776,115.06065 C 215.25526,105.1456 221.3656,94.810198 225.19552,62.223507 C 227.67664,41.113339 235.17783,30.104728 240.90928,39.162359 C 245.97979,47.175495 244.34875,63.578828 236.01295,88.403778 C 227.18769,114.68638 217.17421,123.42399 184.49484,133.35756 C 173.57004,136.67839 164.14024,139.70382 163.53971,140.08074 C 162.93912,140.45768 160.28852,158.84804 157.6494,180.94826 C 152.43475,224.61619 141.71306,250.58022 119.8791,272.41422 C 108.27068,284.02258 103.45174,285.52589 100.71445,278.39268 z "
       id="path2228"
       sodipodi:nodetypes="csssssssssssssssssssssssssssssc" />
  </g>
</svg>
