<?xml version="1.0" encoding="UTF-8" standalone="no"?>
<!-- Created with Inkscape (http://www.inkscape.org/) -->
<svg
   xmlns:dc="http://purl.org/dc/elements/1.1/"
   xmlns:cc="http://web.resource.org/cc/"
   xmlns:rdf="http://www.w3.org/1999/02/22-rdf-syntax-ns#"
   xmlns:svg="http://www.w3.org/2000/svg"
   xmlns="http://www.w3.org/2000/svg"
   xmlns:sodipodi="http://sodipodi.sourceforge.net/DTD/sodipodi-0.dtd"
   xmlns:inkscape="http://www.inkscape.org/namespaces/inkscape"
   id="svg2"
   sodipodi:version="0.32"
   inkscape:version="0.45.1"
   width="300"
   height="300"
   version="1.0"
   sodipodi:docbase="/home/lyhana8/Desktop"
   sodipodi:docname="j30593å­-oracle.svg"
   inkscape:output_extension="org.inkscape.output.svg.inkscape">
  <metadata
     id="metadata7">
    <rdf:RDF>
      <cc:Work
         rdf:about="">
        <dc:format>image/svg+xml</dc:format>
        <dc:type
           rdf:resource="http://purl.org/dc/dcmitype/StillImage" />
      </cc:Work>
    </rdf:RDF>
  </metadata>
  <defs
     id="defs5" />
  <sodipodi:namedview
     inkscape:window-height="783"
     inkscape:window-width="1280"
     inkscape:pageshadow="2"
     inkscape:pageopacity="0.0"
     guidetolerance="10.0"
     gridtolerance="10.0"
     objecttolerance="10.0"
     borderopacity="1.0"
     bordercolor="#666666"
     pagecolor="#ffffff"
     id="base"
     width="300px"
     height="300px"
     inkscape:zoom="1.9566667"
     inkscape:cx="150"
     inkscape:cy="145.47615"
     inkscape:window-x="0"
     inkscape:window-y="17"
     inkscape:current-layer="svg2" />
  <path
     style="fill:#000000;fill-opacity:1"
     d="M 115.43241,281.36198 C 120.06635,270.1039 134.64522,265.20224 141.40017,231.58053 C 128.90639,230.97894 106.50584,227.31941 91.633974,234.73775 C 79.053626,241.01304 68.72785,237.39166 85.857903,224.04253 C 102.51117,211.06495 126.85348,211.71842 145.88008,211.84409 C 147.99604,196.22347 150.2844,182.35187 151.64241,167.63521 C 136.87096,140.17568 118.28194,127.78851 129.0982,103.36373 C 128.01192,79.024393 124.82394,24.712268 134.09817,24.168481 C 146.049,23.467755 143.36848,82.081745 144.43711,88.631216 C 152.14341,80.859396 156.54213,78.261611 166.22149,68.719104 C 169.27448,56.279207 169.7996,14.160024 179.83864,15.012765 C 188.33368,15.93119 183.15115,63.253556 182.41224,76.057048 C 188.65255,83.393494 190.77463,87.17316 197.37669,94.075415 C 200.32042,78.841312 204.53528,31.147719 217.80441,35.16279 C 220.17997,58.603161 215.79308,88.72272 208.81044,111.39285 C 213.19513,120.47778 218.01622,127.24812 218.44745,135.31983 C 218.89396,143.67794 186.04945,159.68045 174.95491,163.90818 C 167.20097,173.8443 167.21409,200.53458 164.41403,212.2463 C 185.51875,213.02546 195.50687,212.00716 204.00353,201.74377 C 213.77671,189.93844 227.62778,182.6937 221.75796,193.98915 C 213.95211,209.01016 208.99467,224.87434 184.54488,229.30779 C 175.21309,230.99991 170.69463,231.2931 162.63029,231.82833 C 153.22123,263.61718 134.72091,275.49193 119.31063,284.78491 C 117.00521,285.67658 114.86639,283.65182 115.43241,281.36198 z M 168.17253,93.498989 C 143.29198,109.9158 139.5722,114.14882 146.94879,124.48841 C 151.69637,134.13278 159.13741,141.74287 164.95682,150.74573 C 207.45697,131.45426 200.47863,126.86141 168.17253,93.498989 z "
     id="path2161"
     sodipodi:nodetypes="ccsscccscccccccsccsssccccccc" />
</svg>
