<?xml version="1.0" encoding="UTF-8" standalone="no"?>
<!-- Created with Inkscape (http://www.inkscape.org/) -->
<svg
   xmlns:dc="http://purl.org/dc/elements/1.1/"
   xmlns:cc="http://web.resource.org/cc/"
   xmlns:rdf="http://www.w3.org/1999/02/22-rdf-syntax-ns#"
   xmlns:svg="http://www.w3.org/2000/svg"
   xmlns="http://www.w3.org/2000/svg"
   xmlns:sodipodi="http://sodipodi.sourceforge.net/DTD/sodipodi-0.dtd"
   xmlns:inkscape="http://www.inkscape.org/namespaces/inkscape"
   width="300"
   height="300"
   id="svg2"
   sodipodi:version="0.32"
   inkscape:version="0.45.1"
   version="1.0"
   sodipodi:docbase="C:\Documents and Settings\Martin\桌面"
   sodipodi:docname="drawing.svg"
   inkscape:output_extension="org.inkscape.output.svg.inkscape">
  <defs
     id="defs4" />
  <sodipodi:namedview
     id="base"
     pagecolor="#ffffff"
     bordercolor="#666666"
     borderopacity="1.0"
     gridtolerance="10000"
     guidetolerance="10"
     objecttolerance="10"
     inkscape:pageopacity="0.0"
     inkscape:pageshadow="2"
     inkscape:zoom="0.98994949"
     inkscape:cx="199.71072"
     inkscape:cy="78.739906"
     inkscape:document-units="px"
     inkscape:current-layer="layer1"
     width="300px"
     height="300px"
     inkscape:window-width="742"
     inkscape:window-height="577"
     inkscape:window-x="50"
     inkscape:window-y="0" />
  <metadata
     id="metadata7">
    <rdf:RDF>
      <cc:Work
         rdf:about="">
        <dc:format>image/svg+xml</dc:format>
        <dc:type
           rdf:resource="http://purl.org/dc/dcmitype/StillImage" />
      </cc:Work>
    </rdf:RDF>
  </metadata>
  <g
     inkscape:label="Layer 1"
     inkscape:groupmode="layer"
     id="layer1">
    <path
       style="fill:#000000"
       d="M 190.28867,282.11038 C 177.32959,273.26542 171.3384,267.77174 159.85503,254.204 C 149.50054,241.97 141.87571,220.3506 135.57298,185.35466 C 130.56115,173.12408 130.56611,138.29934 121.21022,132.5513 C 112.77676,128.36682 110.19622,130.27547 103.26106,145.82719 C 94.342617,165.82633 91.612216,177.68481 89.313638,206.40288 C 87.257996,232.08577 84.440505,239.8556 78.069561,237.41083 C 73.897494,235.80984 73.322776,207.53995 77.110502,190.23488 C 80.652485,174.05249 89.649543,145.44277 92.035527,142.77485 C 95.962497,131.04294 101.19701,122.59309 112.32007,115.69055 C 119.76998,112.15533 121.18698,112.14886 127.89818,115.61937 C 144.75669,123.55676 144.33667,157.85151 147.14589,174.98421 C 147.79432,179.34591 149.12654,182.91456 150.10635,182.91456 C 161.85624,163.86134 158.98706,144.38335 173.19899,123.67557 C 181.2372,116.37253 188.37593,115.9131 194.75138,122.28857 C 203.06598,130.60315 210.63357,145.44914 215.0824,162.17367 C 217.22436,170.22603 220.12704,180.65749 221.53281,185.35466 C 222.93855,190.05189 224.58858,200.85723 225.19951,209.36659 C 226.18248,223.05804 225.82446,224.74257 222.08787,224.00722 C 217.90657,223.18441 211.34805,206.44837 211.27073,196.40399 C 211.22846,190.91555 202.19309,159.441 198.82694,153.05639 C 196.63481,146.68175 196.22778,141.86144 190.48057,137.54025 C 182.06189,132.02412 179.12242,135.11527 172.33348,156.62367 C 165.29505,178.92252 164.30754,181.51994 157.44142,195.79407 C 142.62354,224.01579 182.25563,261.70799 202.69332,276.85713 C 211.30997,284.23361 212.02482,285.62463 208.79358,288.72756 C 205.58914,291.80475 203.28516,290.98087 190.28867,282.11038 z M 69.70759,99.109878 C 69.70759,95.433419 88.331764,76.800004 110.43904,58.358211 C 119.0383,51.184754 137.69885,38.948385 140.0392,38.948385 C 143.69039,38.948385 145.58239,31.740239 144.12821,23.370161 C 143.40172,19.188636 143.89737,14.120317 145.22967,12.10723 C 149.45957,5.7158875 156.17677,12.470647 157.55138,24.497869 C 158.43391,32.219603 160.21462,35.888261 163.98828,37.759284 C 171.19134,41.330649 188.87388,53.565418 197.44633,60.909327 C 222.66075,82.510179 230.93295,91.392904 230.25424,96.138555 C 229.17644,103.67438 225.05058,102.32512 212.02048,90.175685 C 205.53468,84.128233 195.29252,75.343849 189.26017,70.654851 C 183.22782,65.965842 177.74325,61.580352 177.07221,60.909327 C 173.78973,57.626851 160.32904,51.658039 153.14977,50.301514 C 146.32389,49.011762 142.48914,50.490395 128.13529,59.946754 C 118.81128,66.089436 110.36055,72.403339 109.35588,73.97765 C 108.35121,75.551961 101.48996,81.765503 94.108637,87.785496 C 86.727321,93.8055 80.322047,99.554488 79.874703,100.56104 C 78.448217,103.77059 69.70759,102.52303 69.70759,99.109878 z "
       id="path2330"
       sodipodi:nodetypes="csccssssccccccssssssccsccsccssssssssssssssssc" />
  </g>
</svg>
