<?xml version="1.0" encoding="UTF-8" standalone="no"?>
<!-- Created with Inkscape (http://www.inkscape.org/) -->
<svg
   xmlns:dc="http://purl.org/dc/elements/1.1/"
   xmlns:cc="http://web.resource.org/cc/"
   xmlns:rdf="http://www.w3.org/1999/02/22-rdf-syntax-ns#"
   xmlns:svg="http://www.w3.org/2000/svg"
   xmlns="http://www.w3.org/2000/svg"
   xmlns:sodipodi="http://sodipodi.sourceforge.net/DTD/sodipodi-0.dtd"
   xmlns:inkscape="http://www.inkscape.org/namespaces/inkscape"
   width="300"
   height="300"
   id="svg2"
   sodipodi:version="0.32"
   inkscape:version="0.45.1"
   version="1.0"
   sodipodi:docbase="C:\Documents and Settings\Martin\桌面"
   sodipodi:docname="drawing.svg"
   inkscape:output_extension="org.inkscape.output.svg.inkscape">
  <defs
     id="defs4" />
  <sodipodi:namedview
     id="base"
     pagecolor="#ffffff"
     bordercolor="#666666"
     borderopacity="1.0"
     gridtolerance="10000"
     guidetolerance="10"
     objecttolerance="10"
     inkscape:pageopacity="0.0"
     inkscape:pageshadow="2"
     inkscape:zoom="1.2311444"
     inkscape:cx="100.04237"
     inkscape:cy="158.90891"
     inkscape:document-units="px"
     inkscape:current-layer="layer1"
     width="300px"
     height="300px"
     inkscape:window-width="1024"
     inkscape:window-height="712"
     inkscape:window-x="0"
     inkscape:window-y="22" />
  <metadata
     id="metadata7">
    <rdf:RDF>
      <cc:Work
         rdf:about="">
        <dc:format>image/svg+xml</dc:format>
        <dc:type
           rdf:resource="http://purl.org/dc/dcmitype/StillImage" />
      </cc:Work>
    </rdf:RDF>
  </metadata>
  <g
     inkscape:label="Layer 1"
     inkscape:groupmode="layer"
     id="layer1">
    <path
       style="fill:#000000"
       d="M 104.48189,282.23137 C 101.90196,279.12275 103.3577,277.06234 119.86149,260.46325 C 135.32198,244.91344 135.7019,243.76691 134.40237,216.58129 C 130.86756,199.19802 132.55199,190.08039 134.3463,174.72835 C 137.11656,158.75948 153.94821,149.83164 167.94068,143.99875 C 177.57235,140.06343 187.24314,135.89341 193.24292,126.89102 C 194.93272,112.87677 193.12955,99.012153 187.04527,86.293593 C 185.65019,83.118253 183.25269,81.047663 180.97108,81.047663 C 160.44186,95.765743 132.57573,116.74822 109.78507,126.96745 C 104.6359,129.65136 100.19108,132.05956 94.424496,133.10816 C 88.969766,133.96928 86.898736,133.54294 86.072096,131.38875 C 84.569266,127.47242 88.191656,124.44637 118.91133,103.95573 C 150.66625,82.774553 162.5539,73.196783 166.22698,65.833903 C 168.77717,60.721941 168.65046,60.102167 164.27783,56.300215 C 161.70568,54.063752 157.51331,51.28262 154.96147,50.119923 C 144.25428,43.251149 134.32772,34.376428 127.43044,23.450654 C 127.43044,21.335624 130.12776,18.917206 134.58397,17.036821 C 140.49994,14.540452 143.04998,14.406712 149.32412,16.263748 C 179.96407,26.867595 183.78647,43.184248 199.72267,66.562433 C 205.77445,76.132103 209.79975,88.226333 212.12205,99.340493 C 212.56105,103.44344 213.5005,111.09251 214.20973,116.33843 C 213.82299,144.55986 178.3951,150.67731 161.76739,167.015 C 148.00647,176.94933 145.51618,196.4111 148.35805,212.13642 C 155.41901,247.60683 150.38744,259.68489 121.44219,276.74688 C 119.50425,277.88922 116.34292,280.24988 114.417,281.9928 C 110.06464,285.93164 107.60192,285.99077 104.48189,282.23137 z "
       id="path2209"
       sodipodi:nodetypes="csccccccccssssccsccccccssc" />
  </g>
</svg>
