<?xml version="1.0" encoding="UTF-8" standalone="no"?>
<!-- Created with Inkscape (http://www.inkscape.org/) -->
<svg
   xmlns:dc="http://purl.org/dc/elements/1.1/"
   xmlns:cc="http://web.resource.org/cc/"
   xmlns:rdf="http://www.w3.org/1999/02/22-rdf-syntax-ns#"
   xmlns:svg="http://www.w3.org/2000/svg"
   xmlns="http://www.w3.org/2000/svg"
   xmlns:sodipodi="http://sodipodi.sourceforge.net/DTD/sodipodi-0.dtd"
   xmlns:inkscape="http://www.inkscape.org/namespaces/inkscape"
   width="300"
   height="300"
   id="svg2"
   sodipodi:version="0.32"
   inkscape:version="0.45.1"
   version="1.0"
   sodipodi:docbase="/home/yug/Desktop"
   sodipodi:docname="夕-seal.svg"
   inkscape:output_extension="org.inkscape.output.svg.inkscape">
  <defs
     id="defs4" />
  <sodipodi:namedview
     id="base"
     pagecolor="#ffffff"
     bordercolor="#666666"
     borderopacity="1.0"
     gridtolerance="10000"
     guidetolerance="10"
     objecttolerance="10"
     inkscape:pageopacity="0.0"
     inkscape:pageshadow="2"
     inkscape:zoom="1"
     inkscape:cx="166.40217"
     inkscape:cy="114.71451"
     inkscape:document-units="px"
     inkscape:current-layer="layer1"
     width="300px"
     height="300px"
     inkscape:window-width="742"
     inkscape:window-height="577"
     inkscape:window-x="534"
     inkscape:window-y="25" />
  <metadata
     id="metadata7">
    <rdf:RDF>
      <cc:Work
         rdf:about="">
        <dc:format>image/svg+xml</dc:format>
        <dc:type
           rdf:resource="http://purl.org/dc/dcmitype/StillImage" />
      </cc:Work>
    </rdf:RDF>
  </metadata>
  <g
     inkscape:label="Layer 1"
     inkscape:groupmode="layer"
     id="layer1">
    <path
       style="fill:#000000"
       d="M 134.56134,279.51241 C 130.07517,230.40958 160.61499,152.83827 193.34151,110.00577 C 222.00808,72.486956 193.09045,9.1923835 140.50778,54.819548 C 194.76805,85.823805 127.35363,208.24167 109.42817,211.30931 C 86.82412,215.17761 180.99532,86.20497 123.02583,72.586291 C 98.295075,103.62821 94.966423,137.66007 69.861374,169.50376 C 65.397838,167.79094 64.404297,150.63496 68.356128,143.51167 C 86.914258,100.78016 115.94184,16.870841 173.99272,15.050535 C 238.82728,13.017512 248.04224,72.712008 216.84293,124.49966 C 185.55784,166.83941 159.77098,217.92591 147.81336,268.77952 C 144.20336,284.91519 137.9152,290.00802 134.56134,279.51241 z "
       id="path2170"
       sodipodi:nodetypes="cscscccsccc" />
  </g>
</svg>
