<?xml version="1.0" encoding="UTF-8" standalone="no"?>
<!-- Created with Inkscape (http://www.inkscape.org/) -->

<svg
   xmlns:dc="http://purl.org/dc/elements/1.1/"
   xmlns:cc="http://creativecommons.org/ns#"
   xmlns:rdf="http://www.w3.org/1999/02/22-rdf-syntax-ns#"
   xmlns:svg="http://www.w3.org/2000/svg"
   xmlns="http://www.w3.org/2000/svg"
   version="1.1"
   width="300"
   height="300"
   id="svg2">
  <defs
     id="defs4" />
  <metadata
     id="metadata7">
    <rdf:RDF>
      <cc:Work
         rdf:about="">
        <dc:format>image/svg+xml</dc:format>
        <dc:type
           rdf:resource="http://purl.org/dc/dcmitype/StillImage" />
        <dc:title></dc:title>
      </cc:Work>
    </rdf:RDF>
  </metadata>
  <g
     transform="translate(0,-752.36218)"
     id="layer1">
    <path
       d="M 114.10636,1030.8064 C 103.66517,1027.1648 92.384273,1021.6769 89.037712,1018.611 78.084641,1008.5763 76.163447,990.02646 76.168435,894.35306 76.174066,786.33854 76.155314,786.4196 103.85772,774.67076 117.7201,768.79161 126.38375,767.47073 151.74646,767.36951 178.60689,767.26231 184.82029,768.26346 198.62462,774.92289 223.36779,786.8594 223.37952,786.91971 223.73644,904.01638 224.10562,1025.1365 225.0807,1021.4504 189.61449,1033.0053 169.45195,1039.5743 136.49441,1038.6145 114.10636,1030.8064 z M 186.93995,1015.2835 C 196.43699,1011.9166 198.51527,1009.1257 204.52444,991.66976 212.18711,969.41079 213.33537,954.8824 207.86436,949.4114 202.80773,944.35477 100.44265,944.21054 95.400244,949.25295 90.7773,953.87589 93.837498,990.97846 99.604407,1000.2253 108.78964,1014.9531 161.99544,1024.1267 186.93995,1015.2835 z M 187.48943,930.66821 C 204.10476,930.17654 208.48799,924.10382 208.43442,901.65011 208.40947,891.1934 206.63588,879.17615 204.49311,874.94511 L 200.59717,867.25231 151.59247,866.97814 C 104.76343,866.71613 102.28193,867.0098 95.698912,873.59283 89.63218,879.65956 88.905386,883.18099 89.608942,903.09963 L 90.407839,925.71758 114.82622,928.7947 C 136.70984,931.55239 147.87873,931.84037 187.48943,930.66821 z M 204.85396,834.94256 C 207.18975,795.00608 196.90299,785.39754 151.54752,785.15066 126.82186,785.01608 120.91019,786.02549 109.47243,792.33492 L 96.164929,799.67574 96.164929,824.20245 96.164929,848.72916 105.39628,850.29794 C 110.47353,851.16076 134.70585,851.86671 159.24587,851.86671 L 203.86411,851.86671 204.85396,834.94256 z"
       id="path3022"
       style="fill:#000000" />
  </g>
</svg>
