<?xml version="1.0" encoding="UTF-8" standalone="no"?>
<!-- Created with Inkscape (http://www.inkscape.org/) -->
<svg
   xmlns:dc="http://purl.org/dc/elements/1.1/"
   xmlns:cc="http://web.resource.org/cc/"
   xmlns:rdf="http://www.w3.org/1999/02/22-rdf-syntax-ns#"
   xmlns:svg="http://www.w3.org/2000/svg"
   xmlns="http://www.w3.org/2000/svg"
   xmlns:sodipodi="http://sodipodi.sourceforge.net/DTD/sodipodi-0.dtd"
   xmlns:inkscape="http://www.inkscape.org/namespaces/inkscape"
   width="300"
   height="300"
   id="svg2"
   sodipodi:version="0.32"
   inkscape:version="0.45.1"
   version="1.0"
   sodipodi:docbase="C:\Documents and Settings\Martin\桌面"
   sodipodi:docname="drawing.svg"
   inkscape:output_extension="org.inkscape.output.svg.inkscape">
  <defs
     id="defs4" />
  <sodipodi:namedview
     id="base"
     pagecolor="#ffffff"
     bordercolor="#666666"
     borderopacity="1.0"
     gridtolerance="10000"
     guidetolerance="10"
     objecttolerance="10"
     inkscape:pageopacity="0.0"
     inkscape:pageshadow="2"
     inkscape:zoom="0.65666667"
     inkscape:cx="301.43312"
     inkscape:cy="96.962616"
     inkscape:document-units="px"
     inkscape:current-layer="layer1"
     width="300px"
     height="300px"
     inkscape:window-width="742"
     inkscape:window-height="577"
     inkscape:window-x="50"
     inkscape:window-y="0" />
  <metadata
     id="metadata7">
    <rdf:RDF>
      <cc:Work
         rdf:about="">
        <dc:format>image/svg+xml</dc:format>
        <dc:type
           rdf:resource="http://purl.org/dc/dcmitype/StillImage" />
      </cc:Work>
    </rdf:RDF>
  </metadata>
  <g
     inkscape:label="Layer 1"
     inkscape:groupmode="layer"
     id="layer1">
    <path
       style="fill:#000000"
       d="M 30.268433,265.78971 C 29.152953,262.88279 29.339193,253.97529 30.682303,245.99524 C 37.701483,204.29102 39.233213,195.8259 42.083573,182.9853 C 43.789663,175.29938 48.655913,162.09304 52.897373,153.63786 C 71.011543,121.00012 90.003693,100.71352 125.91703,100.64646 C 136.28552,97.996417 151.37196,94.752477 159.44251,93.437707 C 193.19317,89.569307 180.80189,92.296157 208.64261,83.805787 C 240.9889,64.147583 228.35483,74.30884 244.65879,56.322994 C 249.88007,50.119292 255.57465,41.421452 257.31336,36.994461 C 259.05208,32.567466 262.40725,29.587849 264.76924,30.373086 C 271.81704,32.716095 272.54893,137.02128 265.67165,158.98063 C 262.69803,168.47541 259.13743,177.83341 257.75917,179.77621 C 254.09923,184.93528 236.12348,196.21118 224.17949,200.84018 C 185.19091,215.95058 169.86185,219.40184 141.73609,219.40184 C 103.30194,219.40184 66.944233,225.86138 57.531583,234.36216 C 53.227003,238.24973 47.955893,247.26864 45.818053,254.40418 C 41.622093,268.40895 33.543433,274.32422 30.268433,265.78971 z M 79.740023,196.57219 C 83.982143,190.09787 84.394283,186.99371 81.408203,184.00762 C 79.226963,181.82638 77.442293,176.55994 77.442293,172.30442 C 77.442293,158.24682 69.264583,158.89659 61.042253,173.60751 C 56.863773,181.08345 55.117493,199.37878 58.280523,202.54181 C 63.130623,207.3919 74.772673,204.15333 79.740023,196.57219 z M 157.71619,193.87975 C 177.81981,183.0955 171.16274,184.49452 175.81254,164.33712 C 177.30363,155.5115 176.46222,147.29337 173.42649,141.03181 C 168.93813,131.77405 167.70564,131.3688 144.66873,131.5761 C 114.76846,131.84516 99.591903,138.34292 100.58139,150.45187 C 103.52225,186.44163 112.54072,198.73838 135.87586,198.57618 C 144.56488,198.51579 154.39302,196.40239 157.71619,193.87975 z M 131.49336,171.65615 C 123.15454,162.44188 124.38941,152.0907 134.36996,147.54326 C 144.96348,142.71652 151.39682,144.93169 155.97647,154.98299 C 158.70333,160.9678 158.10561,164.39677 153.30123,170.32992 C 145.77582,179.62343 139.07256,180.03108 131.49336,171.65615 z M 223.87728,175.88204 C 236.68246,168.62654 236.22362,167.56217 241.6255,161.88947 C 248.25771,154.17777 250.06676,148.19226 250.07007,133.949 L 250.07429,115.82264 L 238.15249,115.82264 C 231.59552,115.82264 222.27339,117.62572 217.43666,119.82948 C 209.62551,123.38849 208.64261,125.87863 208.64261,142.10918 C 208.64261,152.15925 210.44569,164.33936 212.64944,169.17609 C 217.15586,179.06659 216.53884,178.69809 223.87728,175.88204 z "
       id="path2423"
       sodipodi:nodetypes="csscccccssssssssccsssscccssssccsssccccccsssc" />
  </g>
</svg>
