<?xml version="1.0" encoding="UTF-8" standalone="no"?>
<!-- Created with Inkscape (http://www.inkscape.org/) -->
<svg
   xmlns:dc="http://purl.org/dc/elements/1.1/"
   xmlns:cc="http://web.resource.org/cc/"
   xmlns:rdf="http://www.w3.org/1999/02/22-rdf-syntax-ns#"
   xmlns:svg="http://www.w3.org/2000/svg"
   xmlns="http://www.w3.org/2000/svg"
   xmlns:sodipodi="http://sodipodi.sourceforge.net/DTD/sodipodi-0.dtd"
   xmlns:inkscape="http://www.inkscape.org/namespaces/inkscape"
   id="svg2365"
   sodipodi:version="0.32"
   inkscape:version="0.45.1"
   width="300"
   height="300"
   version="1.0"
   sodipodi:docbase="/home/michelet/Images/Temp"
   sodipodi:docname="金-bigseal.svg"
   inkscape:output_extension="org.inkscape.output.svg.inkscape">
  <metadata
     id="metadata2370">
    <rdf:RDF>
      <cc:Work
         rdf:about="">
        <dc:format>image/svg+xml</dc:format>
        <dc:type
           rdf:resource="http://purl.org/dc/dcmitype/StillImage" />
      </cc:Work>
    </rdf:RDF>
  </metadata>
  <defs
     id="defs2368" />
  <sodipodi:namedview
     inkscape:window-height="941"
     inkscape:window-width="1269"
     inkscape:pageshadow="2"
     inkscape:pageopacity="0.0"
     guidetolerance="10.0"
     gridtolerance="10.0"
     objecttolerance="10.0"
     borderopacity="1.0"
     bordercolor="#666666"
     pagecolor="#ffffff"
     id="base"
     width="300px"
     height="300px"
     inkscape:zoom="2"
     inkscape:cx="35"
     inkscape:cy="124"
     inkscape:window-x="0"
     inkscape:window-y="27"
     inkscape:current-layer="svg2365" />
  <path
     style="fill:#000000"
     d="M 50.368191,287.32269 C 49.431709,275.35632 64.35693,266.98649 59.904447,253.93072 C 58.537517,236.56624 50.864501,218.8289 56.086504,201.52092 C 66.373562,181.02345 96.925218,174.91579 114.84728,188.82528 C 126.78056,195.54963 123.44064,212.58343 111.89622,217.62214 C 104.05452,222.4884 81.683804,225.46696 82.96779,212.72123 C 87.778593,208.21147 110.93778,202.65813 96.551133,196.69245 C 82.819064,192.94815 66.409118,204.90663 73.416033,219.79166 C 74.901273,232.68399 86.550088,240.12919 98.954515,237.57834 C 107.72797,237.19264 116.49135,236.60536 125.25998,236.1235 C 126.05045,210.33716 126.84092,184.55081 127.63138,158.76447 C 117.06116,156.31862 105.94179,155.44461 95.975244,151.00968 C 90.795254,139.86009 114.38515,144.99656 120.79522,142.8567 C 132.31087,137.49279 128.53786,120.59146 131.52888,110.11025 C 133.6695,94.96972 129.38215,78.45848 116.86394,68.817138 C 112.32242,64.691289 107.7809,60.565439 103.23937,56.43959 C 88.268842,62.005999 72.956893,67.272185 59.871226,76.651469 C 54.153918,81.468446 37.217919,78.535342 48.1366,70.34641 C 57.489265,61.926343 67.947844,54.474842 79.841288,50.314228 C 101.58749,38.965194 121.26328,23.495823 144.50279,15.153956 C 156.11094,14.872103 166.79477,21.574135 177.44472,25.704733 C 196.80807,35.276101 217.10174,42.749776 237.73413,49.014245 C 248.95477,49.659691 258.46493,67.928318 243.78419,70.871075 C 226.66261,70.433051 211.56091,60.998325 195.91358,54.919581 C 191.8777,51.532891 188.50061,56.556905 184.85814,58.192878 C 173.34058,66.199169 159.15296,71.939308 151.55616,84.26575 C 146.02719,98.310803 148.82139,113.84279 148.16793,128.6193 C 148.16793,133.78924 148.16792,138.95918 148.16792,144.12912 C 161.86145,143.01621 175.73756,138.90792 189.40009,141.68927 C 199.86612,153.40317 174.86224,155.09131 166.46494,154.71262 C 160.76288,154.73193 155.06082,154.75124 149.35876,154.77055 C 147.86191,180.45051 144.02517,206.16381 146.03088,231.90028 C 151.94987,239.95176 166.61412,234.2654 175.89479,234.60835 C 182.61865,233.85211 189.34251,233.09588 196.06638,232.33965 C 198.11728,219.14152 204.3708,205.45371 199.59119,192.26794 C 191.9365,180.70596 167.91214,201.95046 185.57831,206.92893 C 193.53084,207.05425 200.83335,218.22858 188.88248,218.78468 C 176.04896,220.41019 157.27348,213.09718 156.62298,198.45538 C 160.3573,183.94426 177.82721,179.50533 190.89479,178.13278 C 203.83837,177.13922 222.03799,180.37616 226.80591,194.02062 C 222.6171,206.16406 216.32801,218.07566 216.41361,231.37634 C 215.44997,244.20438 219.02773,256.93126 225.67476,267.84559 C 235.35493,279.77258 218.46479,289.26765 210.23187,278.79437 C 198.68735,271.04663 200.88081,249.53644 184.02447,250.04249 C 150.84205,247.87126 117.67559,252.13103 84.558215,254.05938 C 81.237948,255.75033 80.671686,261.45824 78.436116,264.73131 C 73.646581,275.25229 66.179128,287.42835 53.87195,289.3106 C 52.482431,289.23586 51.127311,288.50267 50.368191,287.32269 z M 162.74571,54.737183 C 171.37594,51.112503 176.19597,41.961408 164.71531,38.343437 C 150.94238,30.029076 133.75512,35.117566 122.32327,45.022874 C 117.13084,47.512064 116.21475,50.057301 121.85216,52.688432 C 130.26862,59.710048 141.48077,67.522228 152.52461,61.09586 C 156.15901,59.3685 159.50597,57.107164 162.74571,54.737183 z M 54.693512,141.71719 C 55.478547,127.24968 53.566501,111.82227 59.615743,98.263764 C 69.998941,83.74277 91.945685,80.328361 107.60662,87.660749 C 119.49515,92.784351 122.61982,109.78655 113.14468,118.72392 C 105.89564,126.2226 92.245782,132.78247 84.994198,121.64279 C 76.91393,111.34698 111.166,113.16106 99.83812,99.725313 C 86.411411,92.518185 72.884659,105.60861 74.416839,119.34037 C 73.59878,137.57489 80.295052,157.87478 69.64831,174.42465 C 62.194383,186.5416 51.918606,176.67471 54.850922,165.64325 C 54.548999,157.67192 54.629866,149.69214 54.693512,141.71719 z M 210.54108,156.37875 C 205.61294,143.20042 208.41248,129.16783 209.07946,115.61219 C 208.92541,105.77779 204.82164,87.60999 191.67799,91.577666 C 175.17552,93.692275 184.49829,109.93645 195.06224,113.39601 C 202.74658,125.91887 179.11442,123.45466 173.57147,116.71334 C 163.17796,111.1068 156.33288,95.445064 167.37665,86.924478 C 184.8022,72.877692 216.43895,76.83611 225.3202,98.971294 C 229.94676,116.36139 221.99295,134.6501 226.80148,152.06235 C 236.50373,156.77095 230.25712,174.2227 219.6012,169.0966 C 214.66309,166.68385 212.40192,161.21855 210.54108,156.37875 z "
     id="path2374" />
</svg>
