<?xml version="1.0" encoding="UTF-8" standalone="no"?>
<!-- Created with Inkscape (http://www.inkscape.org/) -->
<svg
   xmlns:dc="http://purl.org/dc/elements/1.1/"
   xmlns:cc="http://creativecommons.org/ns#"
   xmlns:rdf="http://www.w3.org/1999/02/22-rdf-syntax-ns#"
   xmlns:svg="http://www.w3.org/2000/svg"
   xmlns="http://www.w3.org/2000/svg"
   xmlns:sodipodi="http://sodipodi.sourceforge.net/DTD/sodipodi-0.dtd"
   xmlns:inkscape="http://www.inkscape.org/namespaces/inkscape"
   width="300"
   height="300"
   id="svg2400"
   sodipodi:version="0.32"
   inkscape:version="0.46"
   version="1.0"
   sodipodi:docname="戈-bronze.svg"
   inkscape:output_extension="org.inkscape.output.svg.inkscape">
  <defs
     id="defs2402">
    <inkscape:perspective
       sodipodi:type="inkscape:persp3d"
       inkscape:vp_x="0 : 526.18109 : 1"
       inkscape:vp_y="0 : 1000 : 0"
       inkscape:vp_z="744.09448 : 526.18109 : 1"
       inkscape:persp3d-origin="372.04724 : 350.78739 : 1"
       id="perspective2408" />
    <inkscape:perspective
       id="perspective3684"
       inkscape:persp3d-origin="372.04724 : 350.78739 : 1"
       inkscape:vp_z="744.09448 : 526.18109 : 1"
       inkscape:vp_y="0 : 1000 : 0"
       inkscape:vp_x="0 : 526.18109 : 1"
       sodipodi:type="inkscape:persp3d" />
    <inkscape:perspective
       id="perspective3736"
       inkscape:persp3d-origin="372.04724 : 350.78739 : 1"
       inkscape:vp_z="744.09448 : 526.18109 : 1"
       inkscape:vp_y="0 : 1000 : 0"
       inkscape:vp_x="0 : 526.18109 : 1"
       sodipodi:type="inkscape:persp3d" />
    <inkscape:perspective
       id="perspective2465"
       inkscape:persp3d-origin="372.04724 : 350.78739 : 1"
       inkscape:vp_z="744.09448 : 526.18109 : 1"
       inkscape:vp_y="0 : 1000 : 0"
       inkscape:vp_x="0 : 526.18109 : 1"
       sodipodi:type="inkscape:persp3d" />
    <inkscape:perspective
       id="perspective2537"
       inkscape:persp3d-origin="372.04724 : 350.78739 : 1"
       inkscape:vp_z="744.09448 : 526.18109 : 1"
       inkscape:vp_y="0 : 1000 : 0"
       inkscape:vp_x="0 : 526.18109 : 1"
       sodipodi:type="inkscape:persp3d" />
  </defs>
  <sodipodi:namedview
     id="base"
     pagecolor="#ffffff"
     bordercolor="#666666"
     borderopacity="1.0"
     gridtolerance="10000"
     guidetolerance="10"
     objecttolerance="10"
     inkscape:pageopacity="0.0"
     inkscape:pageshadow="2"
     inkscape:zoom="1.979899"
     inkscape:cx="76.067103"
     inkscape:cy="135.82694"
     inkscape:document-units="px"
     inkscape:current-layer="layer1"
     showgrid="false"
     width="300px"
     inkscape:window-width="1280"
     inkscape:window-height="953"
     inkscape:window-x="196"
     inkscape:window-y="32" />
  <metadata
     id="metadata2405">
    <rdf:RDF>
      <cc:Work
         rdf:about="">
        <dc:format>image/svg+xml</dc:format>
        <dc:type
           rdf:resource="http://purl.org/dc/dcmitype/StillImage" />
      </cc:Work>
    </rdf:RDF>
  </metadata>
  <g
     inkscape:label="Layer 1"
     inkscape:groupmode="layer"
     id="layer1">
    <path
       style="fill:#000000"
       d="M 145.53718,281.60907 C 144.17114,278.86036 143.81527,275.82047 143.65821,265.55864 C 143.389,247.96864 142.93278,245.21304 140.28977,245.21304 C 137.58479,245.67548 135.75232,247.6926 133.16614,248.65125 C 129.34228,249.6421 127.32212,253.5702 127.46561,259.73564 C 127.52857,262.44095 127.92752,265.19439 128.35215,265.85438 C 128.77678,266.51439 129.18254,270.46094 129.25384,274.6245 C 129.36792,281.2865 129.18317,282.247 127.71382,282.63122 C 125.71632,283.15353 123.50584,282.42542 123.50584,281.24516 C 115.79273,273.94837 118.93456,263.85903 120.061,254.31915 L 120.41134,245.79241 L 124.44528,244.46283 C 127.8845,242.68671 131.48484,241.32937 135.02278,239.68403 C 138.60754,237.80126 142.44548,239.44602 143.35974,234.55015 C 143.32537,233.20335 143.27349,224.57355 143.24448,215.37282 C 143.21547,206.17208 143.02918,192.94743 142.83052,185.98471 C 142.63186,179.022 142.31451,157.86257 142.12531,138.96376 C 141.9361,120.06495 141.73844,101.65218 141.68606,98.04649 C 141.59731,91.937032 141.45627,91.490678 139.61455,91.490678 C 135.90119,90.31625 132.79585,88.077628 128.93134,86.997336 C 126.19599,86.332813 123.3476,85.479364 122.6016,85.100782 C 121.85559,84.7222 118.6003,83.532036 115.3676,82.455971 C 112.13491,81.379906 108.26925,79.965921 106.77724,79.313795 C 105.28522,78.66166 103.04721,77.829578 101.80386,77.464723 C 98.840037,76.182807 95.920887,75.081737 92.761377,74.309942 C 88.836417,73.471953 85.330837,71.654609 81.446227,70.684328 C 76.896677,69.628269 75.902097,69.285314 70.15514,66.790917 C 68.41446,66.035395 65.543184,65.149586 63.774526,64.822452 C 60.148671,64.15181 57.770701,61.453315 59.570708,60.052006 C 61.144254,58.826997 71.652647,56.231844 76.937007,55.763223 C 87.194017,54.853625 94.826977,53.383923 103.53877,50.641135 C 105.23897,50.105848 110.73229,49.099687 115.74614,48.405221 C 139.07626,45.17377 140.3687,44.866012 141.0344,42.383509 C 141.32685,41.292908 141.57169,37.237963 141.57848,33.372519 L 141.59083,26.344439 L 146.6455,21.448711 C 150.64555,17.574448 152.63855,16.351739 156.19764,15.588449 C 162.12932,14.31633 164.98107,15.082998 165.61577,18.120435 C 165.89007,19.43311 166.26202,21.244725 166.44232,22.146248 C 166.62263,23.047769 166.18574,25.184058 165.47147,26.893555 C 164.34385,29.592327 163.75751,30.001733 161.02005,30.001733 C 159.28604,30.001733 157.86731,29.594821 157.86731,29.097484 C 157.86731,28.600147 156.23967,28.193235 154.25032,28.193235 C 151.07889,28.193235 150.63332,28.449438 150.63332,30.273008 C 150.63332,31.416883 150.17562,32.810483 149.61621,33.369897 C 148.94133,34.044775 148.83074,35.85512 149.28753,38.750179 C 149.66619,41.149921 150.02217,45.215888 150.07859,47.785659 C 150.13502,50.355432 150.39164,52.668261 150.64887,52.925278 C 150.90608,53.182296 156.39939,53.48565 162.85623,53.5994 C 169.31305,53.713148 175.10063,54.193536 175.71749,54.666929 C 176.38982,55.182881 176.61245,56.430575 176.2733,57.781855 C 176.31387,64.245891 177.5473,64.97036 184.54267,67.489802 C 188.52136,68.86901 191.98012,70.255667 192.22878,70.571262 C 192.87573,71.392322 197.85227,74.338834 199.4924,74.871905 C 200.25469,75.119665 201.98955,77.078744 203.34764,79.225414 C 205.71713,82.97076 205.78059,83.379579 204.91836,89.344128 C 204.42418,92.76275 204.01178,95.8121 204.00194,96.12047 C 203.99208,96.42884 205.91686,97.18511 208.2792,97.80105 C 214.84994,99.51429 217.84707,101.07831 219.89986,103.86514 C 223.38184,108.59225 224.04095,110.64668 224.41089,117.92597 C 225.06479,130.79229 226.68967,133.72947 235.74038,138.40548 C 240.49684,140.86288 242.13278,143.22429 240.32863,145.02844 C 239.7325,145.62457 238.25616,145.52097 235.94865,144.72108 C 229.4797,142.47869 224.59643,138.32159 220.96629,131.96671 C 218.92909,128.40043 215.97897,127.20879 210.68264,127.81286 C 208.49036,128.0629 208.09446,128.48208 208.3016,130.33386 C 208.43825,131.55547 208.85919,132.7762 209.23703,133.04661 C 209.61486,133.31702 210.85845,134.759 212.00057,136.25101 C 213.14268,137.74303 216.003,140.99832 218.35681,143.485 C 223.09625,148.49198 224.06922,150.30205 222.97389,152.07435 C 222.37486,153.0436 221.6571,152.99022 219.12362,151.78801 C 216.42092,150.50548 213.80197,147.95432 206.88694,139.86801 C 206.03635,138.87333 204.36585,136.13636 203.17473,133.78582 C 199.78677,127.10009 198.6343,126.42377 191.01899,126.65227 L 187.54858,126.75639 L 188.19092,130.59946 C 188.54421,132.71314 189.08861,134.64597 189.40071,134.89463 C 189.71281,135.14331 190.95675,137.17787 192.16502,139.41588 C 193.37331,141.6539 195.10268,144.1431 196.00808,144.94744 C 197.67325,146.42674 198.26749,150.6854 196.92455,151.51539 C 196.52321,151.76343 194.54568,151.12886 192.53003,150.10522 C 190.05246,148.84697 188.47659,147.25351 187.66549,145.18634 C 184.41119,140.02839 181.94363,134.50856 179.43564,128.80081 C 175.64779,118.48846 179.14676,109.17966 185.50968,100.86287 C 187.24105,99.11104 190.98482,97.75539 195.16715,97.36583 C 197.29929,97.16723 197.36498,97.05551 198.09025,92.394921 C 199.1066,85.863724 198.91848,83.440454 197.25215,81.599176 C 193.72869,79.140063 180.391,70.86208 176.2907,74.791796 C 177.24612,77.281559 175.77664,87.09359 174.36738,87.634379 C 173.64668,87.910939 172.73668,87.618868 172.34514,86.985351 C 170.54419,85.951765 168.05843,86.514222 165.80036,85.954981 C 163.6752,85.352516 159.29151,84.791728 156.05882,84.708772 L 150.1812,84.557952 L 150.1812,115.82998 C 150.1812,133.02959 149.88428,150.86122 149.5214,155.4558 C 149.68257,171.00683 150.56629,186.56681 150.65489,202.19203 C 150.7002,227.45214 150.99138,236.22584 151.80476,236.84061 C 159.50611,239.95539 166.32329,240.19951 171.22807,247.51071 C 171.76078,248.52576 172.32955,255.87861 172.49202,263.85039 C 172.75546,276.77603 172.61345,278.51864 171.17978,279.95356 C 169.89956,281.2349 169.30493,281.34084 168.26015,280.47375 C 167.21398,279.6055 166.96262,276.63266 167.01951,265.80073 C 167.10567,249.39594 166.53269,248.06827 158.68624,246.49122 C 152.54531,245.25697 151.87094,245.51151 151.79703,249.09156 C 151.76406,250.6884 151.64561,253.01219 151.53378,254.25552 C 151.42197,255.49887 151.56356,260.99218 151.84846,266.46289 C 152.39525,276.96306 150.90147,285 148.40305,285 C 147.75369,285 146.46405,283.47408 145.53718,281.60907 z M 217.05908,118.39209 C 215.93525,109.92441 215.62171,108.76588 213.84137,106.50253 C 212.41368,104.68751 211.18569,104.15017 208.46549,104.15017 C 205.24926,104.15017 204.87338,104.40719 204.18081,107.07994 C 203.51415,109.65261 204.19205,117.90658 205.33265,121.10484 C 205.59942,121.85285 207.73692,122.23514 211.65245,122.23514 L 217.56914,122.23514 L 217.05908,118.39209 z M 194.94918,120.42665 C 199.12419,120.42665 199.35406,119.76811 198.16982,111.20008 C 197.26096,104.62436 196.1865,103.69027 192.62767,106.38204 C 191.66228,107.11222 190.22562,107.72258 189.43513,107.73841 C 187.66713,107.77378 186.00658,111.25138 185.30156,116.39508 C 184.81433,119.94984 184.94836,120.30486 186.91708,120.67421 C 188.09783,120.89572 189.60583,120.93064 190.26818,120.75181 C 190.93052,120.57298 193.03698,120.42665 194.94918,120.42665 z"
       id="path2543"
       sodipodi:nodetypes="csccssssccccccssssccssscccssssssscccssssssssssssssccssssssssssssssssssssscccssssscccssccscccccccccsssssssssccssssccccssssssc" />
  </g>
</svg>
