<?xml version="1.0" encoding="UTF-8" standalone="no"?>
<!-- Created with Inkscape (http://www.inkscape.org/) -->
<svg
   xmlns:svg="http://www.w3.org/2000/svg"
   xmlns="http://www.w3.org/2000/svg"
   version="1.0"
   width="300"
   height="300"
   id="svg2">
  <defs
     id="defs5" />
  <path
     d="M 151.2551,285.24225 C 150.58123,279.00308 167.74965,267.10051 153.83502,268.52137 C 144.81323,273.68436 132.38539,274.01903 122.77634,270.13808 C 108.45481,263.03888 130.93857,259.94866 137.40779,260.32934 C 141.85236,259.71588 150.68366,257.72143 143.53656,253.64984 C 139.59905,248.77309 130.71747,243.84057 132.67398,237.50039 C 142.18484,235.66522 149.38407,245.11939 157.96885,248.11779 C 161.30577,250.45029 163.12846,252.81687 168.26453,248.75395 C 173.03347,244.80469 178.97119,241.84135 170.20516,238.632 C 161.79496,235.55293 154.31799,233.4891 144.76751,228.54795 C 133.78967,222.97415 121.22156,222.92757 109.53341,219.7381 C 103.11516,222.18345 114.03547,236.79747 106.8554,243.41931 C 104.72688,247.47525 98.106838,234.82519 96.76811,231.68482 C 91.381201,220.855 90.553157,208.35244 89.91918,196.35789 C 91.159051,189.92352 85.851995,172.34814 94.29282,173.36045 C 100.86082,181.9783 95.439714,196.35551 105.94411,202.59133 C 118.51907,209.93685 133.61036,210.10688 147.56608,212.82167 C 149.23081,204.96921 139.66159,192.5945 137.94576,182.732 C 132.1902,166.15582 137.06672,148.51963 135.03792,131.5724 C 128.32464,123.8169 115.18025,125.09807 105.76868,121.07 C 91.891414,113.6459 105.14927,139.15279 94.360812,139.49195 C 87.766558,129.72788 87.361288,117.52799 90.398305,106.46164 C 91.182222,101.49337 93.748938,83.768855 100.08874,92.062959 C 97.964513,102.87893 104.4911,109.53869 115.32962,109.22629 C 129.56949,111.58293 143.56043,115.49196 157.85554,117.3648 C 164.59719,111.88737 153.52751,99.127645 153.58144,90.623077 C 146.15246,83.102938 129.90479,91.749848 120.69204,83.311316 C 114.58794,75.887552 104.9087,72.526779 96.783522,79.119852 C 83.556491,78.680934 85.866234,64.03834 82.533132,55.319125 C 81.559013,48.143819 93.140119,47.08756 84.98023,39.393722 C 82.455054,36.059095 80.937858,32.847112 85.32256,30.35323 C 92.621147,22.307536 104.85362,28.158928 114.25108,27.659711 C 127.62063,28.482328 140.51413,32.068965 153.19432,36.081822 C 166.20028,37.231096 179.66025,36.450978 192.31207,33.089088 C 202.38359,30.109683 211.17096,24.808927 216.42948,15.401359 C 225.24197,10.228449 222.5968,30.009765 222.07569,35.516656 C 221.42076,46.223651 215.70662,55.588138 207.67911,62.448712 C 202.12109,69.627503 186.25439,73.463319 189.29818,84.306612 C 199.02996,90.648949 213.92848,87.821547 220.91107,98.681142 C 217.14848,106.7303 202.3951,98.575466 195.14191,96.69827 C 187.56655,94.684928 193.27387,109.43616 200.43562,106.56124 C 207.0619,108.58734 228.59562,110.67814 220.29772,119.99082 C 210.97737,121.0325 199.72081,115.24627 192.86906,112.32122 C 187.57822,123.88069 185.16799,136.4968 185.10883,149.16641 C 181.11157,161.05703 180.32036,173.26037 187.68473,184.03588 C 194.33525,199.59216 194.9998,216.97938 193.48017,233.59584 C 191.20862,243.95858 185.12016,253.41542 175.56679,258.24238 C 171.36344,267.09563 168.37489,277.2999 160.41988,283.93244 C 158.27599,285.9075 153.03517,289.76636 151.2551,285.24225 z M 184.94241,231.51807 C 181.53174,213.86382 179.78358,195.62664 171.95026,179.17329 C 166.23526,168.32478 173.37502,157.6607 175.64778,147.25094 C 174.63924,143.55398 176.73557,134.89096 172.42826,133.97609 C 164.67758,133.80324 156.86024,132.79647 149.14871,133.81157 C 145.59032,144.33554 146.96645,156.10929 147.76636,167.05426 C 149.47217,178.15242 151.45839,189.58694 156.88677,199.47994 C 160.70517,208.3094 166.84208,217.37051 169.79565,227.22586 C 171.53477,229.61452 187.48648,240.07942 184.94241,231.51807 z M 179.19809,106.1453 C 180.77237,98.606139 176.9079,76.729919 166.49943,86.186758 C 166.76846,95.846797 169.6231,105.72153 173.87911,114.4767 C 180.02274,127.58908 178.81384,110.55719 179.19809,106.1453 z M 148.47693,72.967697 C 146.36688,63.521752 148.41459,47.506516 136.24516,45.091247 C 124.85559,41.025231 112.40253,37.371917 100.19714,39.410801 C 104.39921,42.67489 112.62959,50.910355 102.1916,54.145649 C 95.114293,53.426856 90.459712,59.969743 98.518701,63.282627 C 107.07602,58.817098 120.64271,57.804119 124.4447,68.717399 C 130.48084,75.978305 140.31477,74.615503 148.47693,72.967697 z M 174.83881,69.309555 C 178.28217,60.611873 180.01009,45.484356 164.90161,47.798741 C 152.42632,49.709761 158.0018,69.527943 164.3955,71.5227 C 167.91927,71.113984 171.48498,70.48398 174.83881,69.309555 z M 199.49802,54.851563 C 203.68441,52.120825 215.01421,36.908763 202.63539,42.809053 C 192.71905,42.960783 183.11102,56.33615 191.38106,61.876175 C 194.30119,59.799922 196.91336,57.322179 199.49802,54.851563 z M 198.64445,149.08249 C 186.28546,144.34221 183.37469,137.79956 199.91058,140.48778 C 208.4652,142.0873 223.36086,144.00402 224.38689,152.41377 C 215.75273,152.97871 206.57099,153.03033 198.64445,149.08249 z M 210.10933,134.77779 C 180.04056,125.70174 187.81157,120.87157 207.58637,124.43207 C 213.27056,125.7245 231.2965,130.85075 223.32462,136.72286 C 218.86041,137.02995 214.31585,136.26801 210.10933,134.77779 z "
     style="fill:black;fill-opacity:1"
     id="path1875" />
</svg>
