<?xml version="1.0" encoding="UTF-8" standalone="no"?>
<!-- Created with Inkscape (http://www.inkscape.org/) -->
<svg
   xmlns:dc="http://purl.org/dc/elements/1.1/"
   xmlns:cc="http://web.resource.org/cc/"
   xmlns:rdf="http://www.w3.org/1999/02/22-rdf-syntax-ns#"
   xmlns:svg="http://www.w3.org/2000/svg"
   xmlns="http://www.w3.org/2000/svg"
   xmlns:sodipodi="http://sodipodi.sourceforge.net/DTD/sodipodi-0.dtd"
   xmlns:inkscape="http://www.inkscape.org/namespaces/inkscape"
   width="300"
   height="300"
   id="svg2"
   sodipodi:version="0.32"
   inkscape:version="0.45.1"
   version="1.0"
   sodipodi:docbase="C:\Documents and Settings\Martin\桌面"
   sodipodi:docname="刀-oracle.svg"
   inkscape:output_extension="org.inkscape.output.svg.inkscape">
  <defs
     id="defs4" />
  <sodipodi:namedview
     id="base"
     pagecolor="#ffffff"
     bordercolor="#666666"
     borderopacity="1.0"
     inkscape:pageopacity="0.0"
     inkscape:pageshadow="2"
     inkscape:zoom="1.0606602"
     inkscape:cx="242.97086"
     inkscape:cy="156.13751"
     inkscape:document-units="px"
     inkscape:current-layer="layer1"
     width="300px"
     height="300px"
     inkscape:window-width="800"
     inkscape:window-height="578"
     inkscape:window-x="0"
     inkscape:window-y="0"
     showguides="true"
     inkscape:guide-bbox="true" />
  <metadata
     id="metadata7">
    <rdf:RDF>
      <cc:Work
         rdf:about="">
        <dc:format>image/svg+xml</dc:format>
        <dc:type
           rdf:resource="http://purl.org/dc/dcmitype/StillImage" />
      </cc:Work>
    </rdf:RDF>
  </metadata>
  <g
     inkscape:label="Calque 1"
     inkscape:groupmode="layer"
     id="layer1">
    <path
       style="fill:#000000"
       d="M 95.396556,289.04202 C 90.991009,278.02954 110.06865,274.50896 115.26955,269.5185 C 124.02594,262.44342 129.20943,252.6996 135.773,243.88328 C 145.99647,223.79328 146.69988,200.88439 148.40957,178.85197 C 141.18503,186.12148 135.32613,194.70093 127.7597,201.56469 C 122.12938,208.13196 103.26523,213.97995 111.57706,199.21164 C 121.08333,181.69123 134.58504,166.41845 141.76476,147.59507 C 149.0693,130.69191 147.53935,111.80467 150.22376,93.929179 C 152.11722,81.749508 152.73278,68.848456 157.95347,57.562134 C 167.30537,36.751073 182.35252,19.122371 201.97344,7.1841135 C 211.1221,8.8292177 198.28855,22.303414 196.5416,27.474427 C 185.71325,40.626037 174.43295,54.046002 168.12074,70.111431 C 161.19803,94.492374 163.25431,120.24258 163.22523,145.28992 C 168.62904,193.53999 168.14817,280.33291 106.48883,292.49996 C 102.57575,293.49942 98.059688,292.06848 95.396556,289.04202 z "
       id="path2243"
       sodipodi:nodetypes="ccccccccccccccc" />
  </g>
</svg>
