<?xml version="1.0" encoding="UTF-8" standalone="no"?>
<!-- Created with Inkscape (http://www.inkscape.org/) -->
<svg
   xmlns:dc="http://purl.org/dc/elements/1.1/"
   xmlns:cc="http://web.resource.org/cc/"
   xmlns:rdf="http://www.w3.org/1999/02/22-rdf-syntax-ns#"
   xmlns:svg="http://www.w3.org/2000/svg"
   xmlns="http://www.w3.org/2000/svg"
   xmlns:sodipodi="http://sodipodi.sourceforge.net/DTD/sodipodi-0.dtd"
   xmlns:inkscape="http://www.inkscape.org/namespaces/inkscape"
   version="1.0"
   width="300"
   height="300"
   id="svg2"
   sodipodi:version="0.32"
   inkscape:version="0.45.1"
   sodipodi:docname="刀-seal.svg"
   inkscape:output_extension="org.inkscape.output.svg.inkscape"
   sodipodi:docbase="C:\Documents and Settings\Martin\桌面">
  <metadata
     id="metadata6">
    <rdf:RDF>
      <cc:Work
         rdf:about="">
        <dc:format>image/svg+xml</dc:format>
        <dc:type
           rdf:resource="http://purl.org/dc/dcmitype/StillImage" />
      </cc:Work>
    </rdf:RDF>
  </metadata>
  <sodipodi:namedview
     inkscape:window-height="577"
     inkscape:window-width="742"
     inkscape:pageshadow="2"
     inkscape:pageopacity="0.0"
     guidetolerance="10.0"
     gridtolerance="10.0"
     objecttolerance="10.0"
     borderopacity="1.0"
     bordercolor="#666666"
     pagecolor="#ffffff"
     id="base"
     inkscape:zoom="0.65666667"
     inkscape:cx="378.32655"
     inkscape:cy="264.07046"
     inkscape:window-x="44"
     inkscape:window-y="0"
     inkscape:current-layer="svg2" />
  <defs
     id="defs5" />
  <path
     d="M 155.85231,279.13614 C 150.44091,267.59201 167.44828,248.34389 167.01105,247.09038 C 174.94896,232.29842 179.49065,216.00448 184.8836,200.13968 C 189.25646,187.90883 192.34698,175.08451 197.2784,163.51911 C 199.38348,151.61965 223.44641,116.71853 204.93658,170.87027 C 197.64192,204.94553 182.17172,235.87248 167.7218,267.21497 C 164.74336,271.16335 161.30723,279.03071 155.85231,279.13614 z M 67.038452,245.30283 C 67.935559,233.91851 75.747407,224.14407 81.355821,215.50719 C 89.13619,206.64 93.038227,194.85482 98.704647,184.54296 C 104.04507,173.71797 108.56472,162.44875 114.5632,152.01119 C 116.99752,145.45744 121.69152,124.98561 130.99072,135.09606 C 128.87897,145.52382 124.1839,155.72459 120.47165,165.85775 C 110.06934,187.67863 99.463671,209.48781 86.968402,230.19887 C 82.838207,237.74048 75.980332,255.31406 67.038453,245.30282 L 67.038452,245.30283 z M 198.61441,168.78657 C 195.43977,160.76314 205.20672,137.1112 202.76034,127.32968 C 202.60805,117.58518 203.06286,103.92397 190.78458,101.49728 C 177.45945,96.488067 163.07241,97.458157 149.10841,97.368713 C 144.09136,107.36929 138.87682,116.08208 129.37512,140.66128 C 118.79452,147.86454 111.60593,156.20904 130.22933,109.62409 C 135.24084,97.38137 122.4263,94.27226 114.11105,88.695719 C 107.06674,82.044078 97.658424,73.450217 100.99467,62.722479 C 106.49976,40.371615 128.84704,26.637112 150.47045,23.314347 C 169.18049,19.864209 188.32033,16.783416 207.37838,18.316149 C 218.97576,22.64358 208.13065,38.063926 197.99806,33.783092 C 184.63761,34.4343 170.64018,32.511532 157.71487,36.294436 C 148.05264,39.652945 137.36564,38.905295 128.34051,44.068571 C 118.79903,48.934403 113.58729,62.990516 121.67113,71.572666 C 127.66338,82.853704 140.45083,82.662581 150.9738,86.054821 C 169.06332,89.744337 189.34848,85.929364 205.60712,96.308322 C 218.09797,106.04116 215.47826,123.7852 213.9506,137.61969 C 212.84978,144.26708 208.38625,171.79778 198.61441,168.78657 z "
     style="fill:black;fill-opacity:1"
     id="path1899"
     sodipodi:nodetypes="cccccccccccccccccccccccccccccccccc" />
</svg>
