<?xml version="1.0" encoding="UTF-8" standalone="no"?>
<!-- Created with Inkscape (http://www.inkscape.org/) -->
<svg
   xmlns:dc="http://purl.org/dc/elements/1.1/"
   xmlns:cc="http://web.resource.org/cc/"
   xmlns:rdf="http://www.w3.org/1999/02/22-rdf-syntax-ns#"
   xmlns:svg="http://www.w3.org/2000/svg"
   xmlns="http://www.w3.org/2000/svg"
   xmlns:sodipodi="http://sodipodi.sourceforge.net/DTD/sodipodi-0.dtd"
   xmlns:inkscape="http://www.inkscape.org/namespaces/inkscape"
   width="300"
   height="300"
   id="svg2"
   sodipodi:version="0.32"
   inkscape:version="0.45"
   version="1.0"
   sodipodi:docbase="/home/yug/Desktop"
   sodipodi:docname="肉-seal.svg"
   inkscape:output_extension="org.inkscape.output.svg.inkscape"
   sodipodi:modified="true">
  <defs
     id="defs4" />
  <sodipodi:namedview
     id="base"
     pagecolor="#ffffff"
     bordercolor="#666666"
     borderopacity="1.0"
     gridtolerance="10000"
     guidetolerance="10"
     objecttolerance="10"
     inkscape:pageopacity="0.0"
     inkscape:pageshadow="2"
     inkscape:zoom="0.98994949"
     inkscape:cx="194.54041"
     inkscape:cy="168.46599"
     inkscape:document-units="px"
     inkscape:current-layer="layer1"
     width="300px"
     height="300px"
     inkscape:window-width="746"
     inkscape:window-height="581"
     inkscape:window-x="143"
     inkscape:window-y="74" />
  <metadata
     id="metadata7">
    <rdf:RDF>
      <cc:Work
         rdf:about="">
        <dc:format>image/svg+xml</dc:format>
        <dc:type
           rdf:resource="http://purl.org/dc/dcmitype/StillImage" />
      </cc:Work>
    </rdf:RDF>
  </metadata>
  <g
     inkscape:label="Layer 1"
     inkscape:groupmode="layer"
     id="layer1">
    <path
       style="fill:#000000;fill-opacity:1"
       d="M 166.83269,273.95082 C 153.21292,260.17152 133.55099,222.50752 171.0638,173.24667 C 202.93424,131.39523 226.20433,94.200632 205.3357,53.935187 C 198.41168,40.575476 166.8414,29.375584 145.2201,46.979001 C 177.89097,73.323653 179.43987,104.1687 169.45984,135.73209 C 162.9129,146.12647 159.6,142.78079 157.35457,123.50705 C 156.17487,98.196337 157.1071,84.284966 132.87013,63.464857 C 124.58919,70.389345 119.8635,80.370009 114.86093,90.310015 C 151.28246,122.60599 144.06455,166.2527 114.01319,195.72398 C 106.72934,202.86723 104.61585,187.53624 115.21235,161.6682 C 126.15518,134.95469 119.6957,123.74782 105.20195,111.86033 C 87.77391,148.86199 91.919491,164.81281 74.667761,179.34902 C 64.903312,187.57649 60.391743,169.16706 81.723105,118.33544 C 106.28842,59.797438 131.51512,7.7037777 185.86698,15.842099 C 261.03279,27.096976 235.35293,121.666 190.03109,179.35481 C 146.45239,234.82485 185.62167,255.11718 190.7545,269.63927 C 197.89331,289.83676 181.59488,288.88592 166.83269,273.95082 z "
       id="path2166"
       sodipodi:nodetypes="csscccccsscssssss" />
  </g>
</svg>
