<?xml version="1.0" encoding="UTF-8" standalone="no"?>
<!-- Created with Inkscape (http://www.inkscape.org/) -->
<svg
   xmlns:dc="http://purl.org/dc/elements/1.1/"
   xmlns:cc="http://web.resource.org/cc/"
   xmlns:rdf="http://www.w3.org/1999/02/22-rdf-syntax-ns#"
   xmlns:svg="http://www.w3.org/2000/svg"
   xmlns="http://www.w3.org/2000/svg"
   xmlns:sodipodi="http://sodipodi.sourceforge.net/DTD/sodipodi-0.dtd"
   xmlns:inkscape="http://www.inkscape.org/namespaces/inkscape"
   width="300"
   height="300"
   id="svg2"
   sodipodi:version="0.32"
   inkscape:version="0.45.1"
   version="1.0"
   sodipodi:docbase="C:\Documents and Settings\Martin\桌面"
   sodipodi:docname="drawing.svg"
   inkscape:output_extension="org.inkscape.output.svg.inkscape">
  <defs
     id="defs4" />
  <sodipodi:namedview
     id="base"
     pagecolor="#ffffff"
     bordercolor="#666666"
     borderopacity="1.0"
     gridtolerance="10000"
     guidetolerance="10"
     objecttolerance="10"
     inkscape:pageopacity="0.0"
     inkscape:pageshadow="2"
     inkscape:zoom="0.65666667"
     inkscape:cx="55.838458"
     inkscape:cy="189.01248"
     inkscape:document-units="px"
     inkscape:current-layer="layer1"
     width="300px"
     height="300px"
     inkscape:window-width="742"
     inkscape:window-height="577"
     inkscape:window-x="50"
     inkscape:window-y="0" />
  <metadata
     id="metadata7">
    <rdf:RDF>
      <cc:Work
         rdf:about="">
        <dc:format>image/svg+xml</dc:format>
        <dc:type
           rdf:resource="http://purl.org/dc/dcmitype/StillImage" />
      </cc:Work>
    </rdf:RDF>
  </metadata>
  <g
     inkscape:label="Layer 1"
     inkscape:groupmode="layer"
     id="layer1">
    <path
       style="fill:#000000"
       d="M 213.59283,279.02058 C 211.39673,276.82449 209.59997,258.88532 209.59997,239.15578 L 209.59997,203.28386 L 151.86303,204.88917 L 94.1261,206.49442 L 91.309665,240.24215 C 89.032744,267.52479 86.464325,274.37532 77.902473,276.00181 C 72.077519,277.1084 65.145651,274.5959 62.498315,270.41845 C 59.850979,266.24106 57.646103,212.8194 57.598674,151.70377 L 57.512435,40.584452 L 71.401012,31.484268 C 80.769717,25.345675 103.22572,21.448293 140.40369,19.508559 C 240.59157,14.281255 244.2477,19.735789 242.11076,171.24477 C 240.63923,275.57686 240.14146,279.78462 229.08323,281.36757 C 222.75954,282.27277 215.78886,281.21662 213.59283,279.02058 z M 188.4767,175.55369 L 209.59997,175.51363 L 209.59997,150.16572 L 209.59997,124.81779 L 150.45482,124.81779 L 91.309665,124.81779 L 91.309665,153.79666 L 91.309665,182.77559 L 129.33155,179.18464 C 150.24359,177.20963 176.85891,175.57571 188.4767,175.55369 z M 166.96803,98.604049 L 210.52888,94.92184 L 206.73098,74.677244 C 204.64214,63.542746 199.99721,52.564618 196.40903,50.281384 C 192.82077,47.998219 169.36572,46.091264 144.28676,46.043835 C 90.507206,45.942102 77.465587,54.189306 83.521769,84.470156 C 87.571579,104.71921 82.305879,105.117 166.96803,98.604049 z "
       id="path2198"
       sodipodi:nodetypes="ccccccsscccsssccccccccccccccsssc" />
  </g>
</svg>
