<?xml version="1.0" encoding="UTF-8" standalone="no"?>
<!-- Created with Inkscape (http://www.inkscape.org/) -->
<svg
   xmlns:dc="http://purl.org/dc/elements/1.1/"
   xmlns:cc="http://web.resource.org/cc/"
   xmlns:rdf="http://www.w3.org/1999/02/22-rdf-syntax-ns#"
   xmlns:svg="http://www.w3.org/2000/svg"
   xmlns="http://www.w3.org/2000/svg"
   xmlns:sodipodi="http://sodipodi.sourceforge.net/DTD/sodipodi-0.dtd"
   xmlns:inkscape="http://www.inkscape.org/namespaces/inkscape"
   id="svg2"
   sodipodi:version="0.32"
   inkscape:version="0.45"
   width="300"
   height="300"
   version="1.0"
   sodipodi:docbase="/home/lyhana8/Desktop"
   sodipodi:docname="山-oracle.svg"
   inkscape:output_extension="org.inkscape.output.svg.inkscape"
   sodipodi:modified="true">
  <metadata
     id="metadata7">
    <rdf:RDF>
      <cc:Work
         rdf:about="">
        <dc:format>image/svg+xml</dc:format>
        <dc:type
           rdf:resource="http://purl.org/dc/dcmitype/StillImage" />
      </cc:Work>
    </rdf:RDF>
  </metadata>
  <defs
     id="defs5" />
  <sodipodi:namedview
     inkscape:window-height="771"
     inkscape:window-width="919"
     inkscape:pageshadow="2"
     inkscape:pageopacity="0.0"
     guidetolerance="10.0"
     gridtolerance="10.0"
     objecttolerance="10.0"
     borderopacity="1.0"
     bordercolor="#666666"
     pagecolor="#ffffff"
     id="base"
     width="300px"
     height="300px"
     inkscape:zoom="1.9166667"
     inkscape:cx="150"
     inkscape:cy="149.14315"
     inkscape:window-x="0"
     inkscape:window-y="0"
     inkscape:current-layer="svg2" />
  <path
     style="fill:#000000"
     d="M 164.32624,234.27543 C 185.53157,233.28773 245.12724,230.55589 251.08179,224.70466 C 245.33788,215.30721 247.11583,179.28438 245.62814,154.91086 C 244.45966,135.76705 241.81439,147.88404 206.64099,216.67767 C 193.65637,238.56483 184.95918,203.81222 181.99825,199.00237 C 174.27001,186.44833 168.91919,172.54807 162.37874,159.36074 C 148.00046,132.80359 147.97069,147.83869 142.54254,161.97503 C 134.92622,187.90343 124.7768,207.55948 119.34956,234.83088 M 109.46522,236.76037 C 91.102162,216.362 79.090907,183.08941 65.298405,163.12315 C 55.377674,152.70979 61.390113,185.8736 62.217289,192.91682 C 64.242991,205.91886 66.272702,219.0397 70.822292,231.44646 C 79.723239,240.44006 98.330432,235.84076 109.61533,236.82621 M 55.840318,254.57392 C 43.538151,222.82291 41.598613,188.42126 37.454249,154.93749 C 34.919607,131.96683 32.661059,108.91545 29.749837,86.019221 C 28.699694,73.47606 22.563687,59.486263 43.10873,85.864704 C 64.418991,116.57792 82.556363,150.85427 104.03582,181.65892 C 109.63239,192.94635 110.37062,174.6641 136.33207,115.81559 C 146.00515,80.89544 135.08987,37.426758 149.68339,48.092574 C 161.42755,55.67603 159.54029,93.866511 162.75794,112.54821 C 171.22475,135.06894 186.70171,151.76499 199.91961,171.85591 C 224.42053,126.96316 232.11956,97.867691 242.1361,69.423173 C 253.5247,29.246761 263.21183,27.023075 262.852,70.520775 C 261.89105,136.06182 274.89748,203.01903 269.43974,217.61085 C 265.0657,229.30528 278.98733,230.05092 266.74987,248.16885 C 251.85254,255.75684 220.3149,254.5801 204.09184,256.24125 C 159.56917,258.55609 121.85663,257.71946 73.535045,256.56271 C 66.029413,263.84886 57.67954,262.69893 55.840318,254.57392 z "
     id="path2167"
     sodipodi:nodetypes="ccscscccccccccccccccccccscccc" />
</svg>
