<?xml version="1.0" encoding="UTF-8" standalone="no"?>
<!-- Created with Inkscape (http://www.inkscape.org/) -->
<svg
   xmlns:dc="http://purl.org/dc/elements/1.1/"
   xmlns:cc="http://web.resource.org/cc/"
   xmlns:rdf="http://www.w3.org/1999/02/22-rdf-syntax-ns#"
   xmlns:svg="http://www.w3.org/2000/svg"
   xmlns="http://www.w3.org/2000/svg"
   xmlns:sodipodi="http://sodipodi.sourceforge.net/DTD/sodipodi-0.dtd"
   xmlns:inkscape="http://www.inkscape.org/namespaces/inkscape"
   id="svg2226"
   sodipodi:version="0.32"
   inkscape:version="0.45.1"
   width="300"
   height="300"
   version="1.0"
   sodipodi:docbase="/home/yug/Desktop"
   sodipodi:docname="力-bronze.svg"
   inkscape:output_extension="org.inkscape.output.svg.inkscape">
  <metadata
     id="metadata2231">
    <rdf:RDF>
      <cc:Work
         rdf:about="">
        <dc:format>image/svg+xml</dc:format>
        <dc:type
           rdf:resource="http://purl.org/dc/dcmitype/StillImage" />
      </cc:Work>
    </rdf:RDF>
  </metadata>
  <defs
     id="defs2229" />
  <sodipodi:namedview
     inkscape:window-height="771"
     inkscape:window-width="1272"
     inkscape:pageshadow="2"
     inkscape:pageopacity="0.0"
     guidetolerance="10.0"
     gridtolerance="10.0"
     objecttolerance="10.0"
     borderopacity="1.0"
     bordercolor="#666666"
     pagecolor="#ffffff"
     id="base"
     inkscape:zoom="1.8933333"
     inkscape:cx="150"
     inkscape:cy="149.18151"
     inkscape:window-x="4"
     inkscape:window-y="25"
     inkscape:current-layer="a2159"
     width="300px"
     height="300px" />
  <a
     id="a2159">
    <path
       style="fill:#000000"
       d="M 195.64027,15.731016 C 182.22928,35.484326 157.08206,81.274871 157.71051,123.10462 C 157.57812,153.57573 168.44001,169.84161 184.44253,188.15253 C 195.15839,200.41418 194.8973,208.34207 189.67012,217.02311 C 184.27218,225.17461 182.35196,226.25154 172.23491,229.34954 C 170.52794,215.91586 165.47798,206.43254 152.80964,201.87497 C 145.94142,199.40406 103.84436,199.43903 100.38518,202.14229 C 97.988111,204.01552 117.88758,209.58829 132.01807,211.94403 C 146.8229,214.41219 155.27869,220.34739 155.83927,232.82471 C 128.7836,239.52571 83.135422,239.22604 88.236968,245.29965 C 94.153859,250.59175 140.88332,253.94854 156.67093,251.44801 C 154.13661,262.38538 147.93712,265.08088 136.3546,269.15055 C 123.08114,273.81436 101.38905,278.90088 96.702107,282.01162 C 92.381462,284.87925 121.89405,285.99022 132.73092,283.97197 C 155.97299,278.96422 169.18099,275.226 172.85865,250.97278 C 191.99247,245.09328 211.87353,231.44358 212.15472,206.15209 C 212.15472,198.11433 210.72281,190.91805 202.79851,181.82596 C 193.05864,170.65238 182.11671,159.90742 178.59119,145.17339 C 174.26164,126.71444 175.4567,102.6405 178.88821,86.659972 C 182.64311,69.173275 186.43727,55.337651 192.49184,39.255192 C 194.33486,34.359629 196.49069,27.808189 197.77884,24.879306 C 199.90285,22.664232 200.89124,12.169122 195.64027,15.731016 z "
       id="path2160"
       sodipodi:nodetypes="ccsccssscccsscccccsscc" />
  </a>
  <path
     style="fill:#000000"
     d=""
     id="path2158" />
  <path
     style="fill:#000000"
     d=""
     id="path2235" />
</svg>
