<?xml version="1.0" encoding="UTF-8" standalone="no"?>
<!-- Created with Inkscape (http://www.inkscape.org/) -->
<svg
   xmlns:dc="http://purl.org/dc/elements/1.1/"
   xmlns:cc="http://web.resource.org/cc/"
   xmlns:rdf="http://www.w3.org/1999/02/22-rdf-syntax-ns#"
   xmlns:svg="http://www.w3.org/2000/svg"
   xmlns="http://www.w3.org/2000/svg"
   xmlns:sodipodi="http://sodipodi.sourceforge.net/DTD/sodipodi-0.dtd"
   xmlns:inkscape="http://www.inkscape.org/namespaces/inkscape"
   id="svg2"
   sodipodi:version="0.32"
   inkscape:version="0.45.1"
   width="300"
   height="300"
   version="1.0"
   sodipodi:docbase="/home/yug/Desktop"
   sodipodi:docname="s02157åˆ-seal.gif.svg"
   inkscape:output_extension="org.inkscape.output.svg.inkscape">
  <metadata
     id="metadata7">
    <rdf:RDF>
      <cc:Work
         rdf:about="">
        <dc:format>image/svg+xml</dc:format>
        <dc:type
           rdf:resource="http://purl.org/dc/dcmitype/StillImage" />
      </cc:Work>
    </rdf:RDF>
  </metadata>
  <defs
     id="defs5" />
  <sodipodi:namedview
     inkscape:window-height="575"
     inkscape:window-width="738"
     inkscape:pageshadow="2"
     inkscape:pageopacity="0.0"
     guidetolerance="10.0"
     gridtolerance="10.0"
     objecttolerance="10.0"
     borderopacity="1.0"
     bordercolor="#666666"
     pagecolor="#ffffff"
     id="base"
     width="300px"
     height="300px"
     inkscape:zoom="1.7866667"
     inkscape:cx="150"
     inkscape:cy="127.52393"
     inkscape:window-x="264"
     inkscape:window-y="124"
     inkscape:current-layer="svg2" />
  <path
     style="fill:#000000"
     d="M 218.77944,277.73043 C 209.38738,274.92507 190.16553,256.19891 173.28992,157.94342 C 138.60542,171.50543 93.673755,169.35968 80.936393,151.10144 C 72.383885,138.84194 126.69746,158.83381 169.97504,137.02334 C 161.30666,107.58881 139.72506,98.558895 105.70566,95.031255 C 94.236515,93.841965 74.169439,90.685125 74.169439,87.889785 C 74.169439,80.563544 103.46893,74.88905 138.81903,83.126821 C 167.63972,89.843015 174.82523,100.0571 185.28536,122.91311 C 206.0194,91.712845 205.64429,74.722201 184.61873,59.823558 C 153.16323,37.534286 112.12198,40.383662 100.04376,28.36716 C 81.658622,10.075968 197.92049,31.220039 214.79917,59.736634 C 228.29767,82.542392 221.94599,110.92382 192.52552,147.49629 C 200.66297,242.11393 242.13794,284.70749 218.77944,277.73043 z "
     id="path2161"
     sodipodi:nodetypes="ccscssscssscs" />
</svg>
