<?xml version="1.0" encoding="UTF-8" standalone="no"?>
<!-- Created with Inkscape (http://www.inkscape.org/) -->

<svg
   xmlns:dc="http://purl.org/dc/elements/1.1/"
   xmlns:cc="http://creativecommons.org/ns#"
   xmlns:rdf="http://www.w3.org/1999/02/22-rdf-syntax-ns#"
   xmlns:svg="http://www.w3.org/2000/svg"
   xmlns="http://www.w3.org/2000/svg"
   xmlns:sodipodi="http://sodipodi.sourceforge.net/DTD/sodipodi-0.dtd"
   xmlns:inkscape="http://www.inkscape.org/namespaces/inkscape"
   width="300"
   height="300"
   id="svg2"
   version="1.1"
   inkscape:version="0.48.2 r9819"
   sodipodi:docname="Nouveau document 1">
  <defs
     id="defs4" />
  <sodipodi:namedview
     id="base"
     pagecolor="#ffffff"
     bordercolor="#666666"
     borderopacity="1.0"
     inkscape:pageopacity="0.0"
     inkscape:pageshadow="2"
     inkscape:zoom="1.979899"
     inkscape:cx="44.378127"
     inkscape:cy="171.3455"
     inkscape:document-units="px"
     inkscape:current-layer="layer1"
     showgrid="false"
     inkscape:window-width="1280"
     inkscape:window-height="999"
     inkscape:window-x="0"
     inkscape:window-y="24"
     inkscape:window-maximized="1" />
  <metadata
     id="metadata7">
    <rdf:RDF>
      <cc:Work
         rdf:about="">
        <dc:format>image/svg+xml</dc:format>
        <dc:type
           rdf:resource="http://purl.org/dc/dcmitype/StillImage" />
        <dc:title></dc:title>
      </cc:Work>
    </rdf:RDF>
  </metadata>
  <g
     inkscape:label="Calque 1"
     inkscape:groupmode="layer"
     id="layer1"
     transform="translate(0,-752.36218)">
    <path
       style="fill:#000000"
       d="m 237.45282,1038.0163 c -10.07483,-9.5724 -16.48378,-22.2149 -26.03776,-31.9998 -1.18352,-11.43841 -7.48329,-20.06845 -9.61525,-30.89506 -5.45929,-15.46676 -21.59739,-15.32879 -35.79301,-11.28413 -21.70377,3.68348 -43.2939,8.82057 -65.1096,11.31932 -12.028965,1.26619 -18.444274,-14.7424 -2.666928,-14.0288 28.560518,-5.24559 58.696698,-3.58675 86.085448,-13.60837 13.17076,-8.76043 -7.37308,-25.19427 -19.2502,-21.80673 -17.7557,0.71793 -35.921,6.47199 -53.49992,1.67242 -11.845829,-13.04816 16.428,-11.93748 24.89525,-12.72236 16.01394,1.17075 34.65141,-6.8979 48.7718,1.2105 10.02545,6.36952 22.07078,9.30011 25.05372,21.43727 10.66125,11.42906 26.87066,-5.98476 25.35201,-17.26574 -0.94849,-14.69502 -15.70161,-25.55861 -31.27126,-24.59695 -25.26825,-4.20185 -50.54878,3.66104 -75.81301,0.61256 -9.82293,1.87172 -21.88381,-12.15538 -6.47236,-12.12319 22.57279,-3.32837 45.5851,-1.6001 68.34414,-1.70124 11.69259,0.21499 23.38398,0.48419 35.0768,0.68863 12.00753,8.19067 27.6048,17.45181 27.34879,33.11419 0.89255,12.0696 -9.76787,22.07054 -15.68285,31.67961 -11.91373,2.75668 -32.59561,5.73824 -25.9541,22.2515 7.37133,9.76067 14.19056,19.83708 20.72936,30.15947 8.19523,11.9336 18.69153,22.9739 23.87895,36.3947 -1.38245,6.8761 -14.08843,4.3964 -18.37002,1.4922 z m -189.218658,-4.9181 c -7.792732,-14.0784 -3.019495,-30.4703 -1.475358,-45.42268 5.737101,-30.56732 14.766118,-60.48976 21.07474,-90.95054 3.558095,-16.82197 11.860032,-36.0214 31.355984,-40.98551 13.967412,-2.67925 34.866932,-5.69989 32.278102,-23.64219 1.55305,-18.14486 -20.99698,-16.48714 -34.096881,-17.5313 -15.594056,-0.53358 -30.018478,-10.33772 -34.167561,-24.60271 -7.101522,-7.14692 -3.033016,-21.44643 8.799418,-14.59441 11.11239,5.80335 10.362614,20.98332 25.159384,22.67914 15.97902,5.6668 34.79746,-1.00421 49.45411,8.39626 12.60875,7.36967 17.83084,22.97505 12.00069,35.76689 -5.16911,15.62245 -21.29043,27.20591 -38.88903,27.27447 -14.50946,0.17552 -25.494018,10.24923 -29.753756,22.61089 -7.408269,20.02727 -5.09453,41.73663 -10.015223,62.27994 -2.543452,12.70605 -9.733159,24.28107 -9.848046,37.47789 -1.705448,12.09786 0.425254,24.83196 -3.421767,36.53266 -3.196437,5.9492 -12.801974,11.0194 -18.454806,4.7112 z M 176.1835,858.04507 c -14.22906,-0.96825 -4.19289,-11.76343 4.75837,-10.12513 19.781,-2.37882 41.09498,0.46595 59.34502,-8.34453 15.05476,-6.99735 8.82349,-25.30931 -7.33684,-24.52401 -15.38181,-4.03966 -29.90114,-9.5721 -44.63637,-14.54027 -12.41755,-5.69609 -12.75535,-31.24697 4.88396,-27.62841 9.97393,5.46827 5.31371,23.62664 21.63224,23.46083 15.13122,1.74142 28.0132,9.20936 43.21299,10.89436 14.20139,6.88379 15.37084,26.77957 6.76323,38.12579 -9.30327,11.80133 -26.66819,6.91205 -39.90071,6.80789 -11.34296,-1.11913 -18.1678,11.12981 -31.25512,7.14712 -5.92224,0.13303 -11.84398,1.28557 -17.46677,-1.27364 z"
       id="path2996"
       inkscape:connector-curvature="0" />
  </g>
</svg>
