<?xml version="1.0" encoding="UTF-8" standalone="no"?>
<!-- Created with Inkscape (http://www.inkscape.org/) -->
<svg
   xmlns:svg="http://www.w3.org/2000/svg"
   xmlns="http://www.w3.org/2000/svg"
   version="1.0"
   width="300"
   height="300"
   id="svg2">
  <defs
     id="defs5" />
  <path
     d="M 65.448273,277.48196 C 70.30379,261.71804 80.101843,270.2314 117.98076,262.54834 C 124.91646,215.02573 128.06625,158.15365 128.20346,109.65033 C 127.81621,103.00799 130.09106,87.58111 119.55825,95.861869 C 107.08208,101.58827 97.780249,111.78343 86.818368,119.653 C 81.128461,125.83547 59.297266,129.9057 67.82521,116.04522 C 82.351268,98.707197 103.16275,88.590941 120.26687,74.245643 C 127.81611,65.421214 143.18609,70.604926 148.22087,60.038049 C 152.3779,47.948284 148.07041,34.374196 153.49463,22.629279 C 166.56506,13.861269 172.42705,32.156186 169.65706,42.21268 C 168.07328,54.477209 176.81027,63.145406 187.09123,67.980985 C 196.43163,73.693905 205.8154,79.600178 215.91481,83.765806 C 224.95216,95.169465 241.89553,97.066312 249.483,109.77424 C 254.47137,126.22267 233.87377,116.55499 228.33901,110.30286 C 217.381,103.76475 206.00773,96.844345 193.39711,94.29633 C 189.03607,102.7963 190.97875,114.13474 190.1846,123.82886 C 190.00594,167.58081 195.73879,221.88822 208.1247,264.0123 C 219.15833,265.87625 224.72226,266.8303 236.36789,268.58302 C 251.60668,270.90429 240.36355,287.69327 229.14476,283.07269 C 177.12195,278.68447 124.83928,280.15089 72.823711,283.84601 C 68.848153,284.10468 63.585697,285.73186 65.448273,279.78214 C 65.448273,279.01542 65.448273,278.24869 65.448273,277.48196 z M 188.34734,264.64999 C 182.67347,221.74522 174.79242,178.73233 173.65077,135.27988 C 174.28656,117.36194 174.72799,99.438001 175.19762,81.515144 C 168.48193,78.58798 162.37116,73.039103 154.85697,72.931654 C 140.46938,75.867475 143.96176,90.103828 144.23646,100.86097 C 142.85893,153.29539 138.18123,210.62798 133.79824,262.87836 C 152.05496,264.79169 170.08363,267.96903 188.34734,264.64999 z "
     style="fill:black;fill-opacity:1"
     id="path1875" />
</svg>
