<?xml version="1.0" encoding="UTF-8" standalone="no"?>
<!-- Created with Inkscape (http://www.inkscape.org/) -->
<svg
   xmlns:svg="http://www.w3.org/2000/svg"
   xmlns="http://www.w3.org/2000/svg"
   version="1.0"
   width="300"
   height="300"
   id="svg2">
  <defs
     id="defs5" />
  <path
     d="M 126.06967,270.84131 C 107.8638,267.78901 87.952956,256.05738 85.531351,236.11771 C 73.387051,186.64748 81.274971,135.52061 83.615232,85.421749 C 85.733888,64.286054 93.175014,39.692162 114.32065,30.48147 C 138.92307,20.347233 166.10239,24.205933 191.90758,25.297222 C 206.84333,27.056964 224.4172,34.142585 228.27994,50.288034 C 233.08201,71.321259 228.53938,92.996944 230.92131,114.26179 C 231.61262,156.15614 233.64811,198.97055 222.92239,239.85594 C 214.03102,261.53085 189.96209,273.44597 167.29235,272.55614 C 153.55669,273.79571 139.64954,273.27836 126.06967,270.84131 z M 182.85062,251.14001 C 221.04793,237.40013 212.64797,185.92608 212.94255,152.05197 C 174.16697,150.16214 135.32151,150.84843 96.540436,152.19615 C 97.918319,183.35811 95.322042,216.18073 109.02431,245.18385 C 129.79337,259.41475 159.08253,257.48596 182.85062,251.14001 z M 213.12717,130.46822 C 213.55365,105.10496 214.67983,79.24413 208.02993,54.499211 C 198.58951,39.820823 179.09232,36.445709 162.97765,39.006201 C 139.18829,38.449416 111.56677,49.155971 103.54593,73.495193 C 97.308024,90.502189 97.76914,115.31774 97.508595,133.18414 C 114.45613,129.77022 172.39431,139.86662 213.12717,130.46822 z "
     style="fill:black;fill-opacity:1"
     id="path1875" />
</svg>
