<?xml version="1.0" encoding="UTF-8" standalone="no"?>
<!-- Created with Inkscape (http://www.inkscape.org/) -->
<svg
   xmlns:dc="http://purl.org/dc/elements/1.1/"
   xmlns:cc="http://web.resource.org/cc/"
   xmlns:rdf="http://www.w3.org/1999/02/22-rdf-syntax-ns#"
   xmlns:svg="http://www.w3.org/2000/svg"
   xmlns="http://www.w3.org/2000/svg"
   xmlns:sodipodi="http://sodipodi.sourceforge.net/DTD/sodipodi-0.dtd"
   xmlns:inkscape="http://www.inkscape.org/namespaces/inkscape"
   id="svg2315"
   sodipodi:version="0.32"
   inkscape:version="0.45.1"
   width="300"
   height="300"
   version="1.0"
   sodipodi:docbase="C:\Documents and Settings\Martin\桌面"
   sodipodi:docname="木-seal.svg"
   inkscape:output_extension="org.inkscape.output.svg.inkscape">
  <metadata
     id="metadata2320">
    <rdf:RDF>
      <cc:Work
         rdf:about="">
        <dc:format>image/svg+xml</dc:format>
        <dc:type
           rdf:resource="http://purl.org/dc/dcmitype/StillImage" />
      </cc:Work>
    </rdf:RDF>
  </metadata>
  <defs
     id="defs2318" />
  <sodipodi:namedview
     inkscape:window-height="577"
     inkscape:window-width="742"
     inkscape:pageshadow="2"
     inkscape:pageopacity="0.0"
     guidetolerance="10.0"
     gridtolerance="10.0"
     objecttolerance="10.0"
     borderopacity="1.0"
     bordercolor="#666666"
     pagecolor="#ffffff"
     id="base"
     width="300px"
     height="300px"
     inkscape:zoom="1.1692073"
     inkscape:cx="105.38961"
     inkscape:cy="160.82236"
     inkscape:window-x="50"
     inkscape:window-y="0"
     inkscape:current-layer="svg2315" />
  <path
     style="fill:#000000"
     d="M 139.36061,221.11986 C 139.36061,172.82704 138.43178,149.46702 136.43208,147.46732 C 132.29812,143.33335 118.95361,148.38712 115.0752,155.55549 C 110.72977,163.58705 105.25664,204.8239 105.14706,230.35826 C 105.09598,242.26108 103.79353,257.87798 102.25273,265.06249 C 97.363823,287.85868 81.815098,294.4889 85.039224,272.40261 C 85.914906,266.4039 87.828189,244.87046 89.290967,224.5505 C 94.687898,149.57984 99.325681,138.92653 129.42433,132.36136 C 137.76431,130.54223 141.48908,120.72825 137.76049,110.39738 C 135.80245,104.9722 133.49173,103.77373 124.14624,103.33622 C 101.63552,102.28239 88.804824,85.559109 88.255042,56.556326 C 87.963068,41.153736 88.73799,37.354442 92.673707,34.892386 C 100.32898,30.103502 105.05419,39.189237 105.05419,58.697862 C 105.05419,72.289785 106.07904,76.198694 110.79445,80.591763 C 117.29777,86.650531 133.26169,90.520861 136.86917,86.913382 C 138.1849,85.597651 139.58677,67.339015 139.98442,46.338635 C 139.98442,46.338635 138.88075,26.254555 140.70744,15.853647 C 142.53412,5.4527387 143.14403,4.7350023 146.43588,4.7350023 C 149.72774,4.7350023 151.55066,6.6614004 153.01958,15.853647 C 154.4885,25.045894 153.16683,41.503989 153.16683,41.503989 C 152.15457,89.180165 155.02499,93.948801 178.96853,84.368497 C 191.73654,79.259756 193.66944,76.108344 196.12538,56.396022 C 199.42717,29.894441 210.61241,28.698585 210.61241,54.847159 C 210.61241,88.909823 200.7378,101.81017 174.6499,101.82919 C 159.18122,101.84047 154.86816,105.30365 154.27189,118.19177 C 153.889,126.46765 154.47936,126.98257 170.85094,132.65244 C 180.47928,135.98697 191.33035,142.03014 195.92102,146.61446 C 203.78134,154.46389 204.06336,155.59132 205.68914,185.66544 C 207.5286,219.69198 212.32079,261.81364 214.81091,265.84275 C 217.5132,270.21513 210.24533,284.24332 205.72844,283.37344 C 199.10508,282.0979 195.98095,263.54641 190.04512,190.24407 C 188.85519,175.54944 186.24687,161.25736 184.15946,157.99405 C 179.64819,150.94152 168.54753,145.94345 160.06308,147.14467 L 153.87486,148.02078 L 154.77754,210.96656 C 155.83486,284.69761 155.04502,291.84388 145.83842,291.84388 L 139.36061,291.84388 L 139.36061,221.11986 z "
     id="path2324"
     sodipodi:nodetypes="cssssssssssssssczzzcsssssssssssscccccc" />
</svg>
