<?xml version="1.0" encoding="UTF-8" standalone="no"?>
<!-- Created with Inkscape (http://www.inkscape.org/) -->
<svg
   xmlns:dc="http://purl.org/dc/elements/1.1/"
   xmlns:cc="http://web.resource.org/cc/"
   xmlns:rdf="http://www.w3.org/1999/02/22-rdf-syntax-ns#"
   xmlns:svg="http://www.w3.org/2000/svg"
   xmlns="http://www.w3.org/2000/svg"
   xmlns:sodipodi="http://sodipodi.sourceforge.net/DTD/sodipodi-0.dtd"
   xmlns:inkscape="http://www.inkscape.org/namespaces/inkscape"
   width="300"
   height="300"
   id="svg2"
   sodipodi:version="0.32"
   inkscape:version="0.45.1"
   version="1.0"
   sodipodi:docbase="C:\Documents and Settings\Martin\桌面"
   sodipodi:docname="drawing.svg"
   inkscape:output_extension="org.inkscape.output.svg.inkscape">
  <defs
     id="defs4" />
  <sodipodi:namedview
     id="base"
     pagecolor="#ffffff"
     bordercolor="#666666"
     borderopacity="1.0"
     gridtolerance="10000"
     guidetolerance="10"
     objecttolerance="10"
     inkscape:pageopacity="0.0"
     inkscape:pageshadow="2"
     inkscape:zoom="1.2311444"
     inkscape:cx="167.68035"
     inkscape:cy="125.48552"
     inkscape:document-units="px"
     inkscape:current-layer="layer1"
     width="300px"
     height="300px"
     inkscape:window-width="1024"
     inkscape:window-height="712"
     inkscape:window-x="0"
     inkscape:window-y="22" />
  <metadata
     id="metadata7">
    <rdf:RDF>
      <cc:Work
         rdf:about="">
        <dc:format>image/svg+xml</dc:format>
        <dc:type
           rdf:resource="http://purl.org/dc/dcmitype/StillImage" />
      </cc:Work>
    </rdf:RDF>
  </metadata>
  <g
     inkscape:label="Layer 1"
     inkscape:groupmode="layer"
     id="layer1">
    <path
       style="fill:#000000"
       d="M 226.38026,280.01254 C 224.8825,276.9139 222.21828,269.12975 220.45976,262.71445 C 213.96634,244.78999 202.30453,225.02045 189.88015,210.02551 C 187.0338,207.12167 182.00529,208.02433 165.53893,214.39498 C 160.58868,216.31017 152.81217,217.56535 121.33787,221.52935 C 111.88375,222.72006 98.366793,224.47583 91.300195,225.43106 C 77.273102,227.32721 70.997757,224.52681 70.997757,216.37099 C 70.997757,212.28423 73.022192,211.76043 88.817177,211.76043 C 98.617853,211.76043 110.21646,210.73373 114.59186,209.47889 C 118.96725,208.22405 129.38679,206.91819 137.74642,206.57704 C 152.15818,205.98885 167.09776,202.4255 170.83953,198.68373 C 173.37422,196.14904 162.24753,186.68042 154.80811,185.04122 C 151.25594,184.25856 130.11668,183.48687 107.83198,183.32634 C 58.459279,182.9707 61.175291,183.30235 61.175291,177.62907 C 61.175291,171.20292 75.531922,169.21377 119.70983,169.51898 C 157.37711,169.7792 174.57948,173.28877 182.82004,182.39446 C 190.5401,190.92504 193.77851,188.46766 193.77851,174.07898 C 193.77851,160.52897 189.18405,152.82566 181.10246,152.82566 C 157.27899,146.23615 131.46232,148.40989 106.85822,150.54819 C 90.505955,152.74933 86.893915,152.5849 83.807991,149.49898 C 78.134362,143.82536 81.787459,139.04977 94.190062,135.92677 C 102.78152,133.7634 115.11925,133.75687 145.19853,135.89973 C 197.78603,139.64612 205.23875,142.97166 211.22756,165.36314 C 213.93652,175.49165 213.70699,177.70112 208.91825,187.59336 C 201.90801,195.24085 205.43542,210.05825 212.24097,216.70928 C 221.70905,227.43204 227.71208,240.20155 233.24108,253.28346 C 236.03723,259.07084 238.52355,268.39489 238.76621,274.00354 C 239.13809,282.59846 238.41346,284.31466 234.15545,284.92378 C 230.86745,285.39413 228.15264,283.67932 226.38026,280.01254 z M 219.62925,131.66885 C 217.44712,129.48675 206.79068,124.53075 195.94825,120.65554 C 178.21691,114.31816 173.5491,113.66771 149.52483,114.18666 C 131.12007,114.5842 121.88447,113.83371 119.82246,111.77298 C 116.14884,108.10162 110.37485,91.986925 110.32456,85.265155 C 110.23977,73.928095 134.4338,64.719535 164.80949,64.527525 C 173.86241,64.470305 183.86723,63.239815 187.04239,61.793115 C 194.68503,58.310895 199.29682,50.559719 197.3589,44.453859 C 195.88833,39.820503 193.93138,39.558778 164.70525,40.086763 C 134.66517,40.629454 118.86895,42.907436 114.18366,47.372511 C 112.95003,48.548164 112.09388,53.585038 112.28112,58.565555 C 112.46836,63.546085 111.12094,71.045455 109.28687,75.230825 C 106.28423,86.888085 98.940293,95.874765 93.171375,105.99252 C 88.411358,117.48419 77.561911,119.15305 80.067056,108.00821 C 80.749816,104.97074 82.771402,99.170435 84.559456,95.118675 C 93.435209,75.006135 95.483683,64.763805 95.518183,40.325645 L 95.553913,14.999997 L 103.5239,15.769487 C 110.21735,16.415721 111.70108,17.718949 112.78722,23.905821 L 114.08053,31.272669 L 131.21507,30.576541 C 140.63908,30.193674 154.35397,28.81239 161.69261,27.507021 C 190.59793,22.365467 205.90294,25.725474 211.98794,38.548668 C 216.15745,47.335238 215.20539,59.358935 209.62834,68.348205 C 207.14618,72.349075 202.95938,73.858675 190.89654,75.102175 C 144.19423,79.916505 127.44479,83.729955 127.51451,89.532765 C 127.61273,97.710335 132.15978,99.719665 152.45966,100.55596 C 163.70503,101.01923 179.53661,102.35555 187.64093,103.52555 C 198.07713,104.95475 226.90458,114.42863 234.65931,124.79563 C 238.20053,130.2002 238.30023,131.47265 235.32982,133.35269 C 230.02154,136.71247 224.03031,136.06993 219.62925,131.66885 z "
       id="path2196"
       sodipodi:nodetypes="cccssssssssssssssccsssscccssccssssssssssccssccccccssssssccsc" />
  </g>
</svg>
