<?xml version="1.0" encoding="UTF-8" standalone="no"?>
<!-- Created with Inkscape (http://www.inkscape.org/) -->
<svg
   xmlns:svg="http://www.w3.org/2000/svg"
   xmlns="http://www.w3.org/2000/svg"
   version="1.0"
   width="300"
   height="300"
   id="svg2">
  <defs
     id="defs5" />
  <path
     d="M 58.031731,266.99338 C 58.031731,263.81243 68.814941,252.6286 83.054161,241.04133 C 96.816501,229.84211 108.86104,218.76206 109.81978,216.41899 C 110.77853,214.07592 106.24238,204.95442 99.739431,196.149 C 81.658281,171.6659 64.326861,142.63095 64.324901,136.81978 C 64.323931,133.95057 74.093691,123.37367 86.035491,113.31557 L 107.74785,95.028127 L 100.19115,86.047512 C 86.380401,69.634367 92.442591,60.446784 109.94555,71.2642 C 115.95351,74.977329 123.34394,77.18554 126.40313,76.181608 C 129.45708,75.179393 141.15695,65.862119 152.40284,55.476554 C 176.557,33.170214 185.43272,31.646079 185.43272,49.804681 C 185.43272,59.441694 187.57244,63.21785 198.20509,72.345256 C 213.65652,85.609253 240.48253,124.70483 240.48253,133.95939 C 232.31162,152.81022 207.35085,157.87117 193.46559,171.96876 C 193.37285,172.86025 201.79038,182.51534 212.1712,193.42452 C 231.73032,213.97915 234.79915,221.00899 225.73194,224.4884 C 221.86657,225.97168 215.01214,220.70758 200.58137,205.17312 C 188.83803,192.53164 179.13378,184.60012 176.79709,185.73364 C 168.72371,189.65002 145.0596,208.35735 141.95701,213.27597 C 139.46923,217.21992 141.35105,221.92188 150.29185,234.1017 C 164.05932,252.85674 165.05755,260.00041 153.91086,260.00041 C 138.01643,258.5547 135.57612,237.31541 122.1666,231.68908 C 120.04388,231.68908 110.7613,238.46561 101.53865,246.74804 C 73.595221,271.84273 58.031731,279.08499 58.031731,266.99338 z M 142.45193,188.43566 C 150.31134,181.94765 158.77586,175.11164 161.26199,173.24454 C 165.0332,170.41233 165.10934,168.59252 161.7215,162.26229 C 156.50805,152.52086 127.67301,117.63657 122.15393,114.39391 C 117.79477,111.83275 105.76438,121.28096 96.475571,127.83761 C 74.428061,143.4002 93.917991,155.72103 102.48409,170.76721 C 109.16873,182.50865 123.74407,200.23205 126.71534,200.23205 C 127.51106,200.23205 134.59252,194.92367 142.45193,188.43566 z M 215.3169,129.69605 C 215.3169,127.47928 211.81901,120.85562 207.54381,114.97682 L 168.53647,67.396398 L 152.6054,80.829677 C 135.95343,94.87082 133.18509,102.19478 141.82071,109.36171 C 144.65123,111.71083 150.15887,118.6081 154.05992,124.68898 C 164.53356,141.01508 180.8719,156.46352 184.99211,153.93639 C 194.07289,146.22118 210.62673,141.56 215.3169,129.69605 z "
     style="fill:black;fill-opacity:1"
     id="path1875" />
</svg>
