<?xml version="1.0" encoding="UTF-8" standalone="no"?>
<!-- Created by Hugo Lopez, using Inkscape (http://www.inkscape.org/). -->
<svg
   xmlns:dc="http://purl.org/dc/elements/1.1/"
   xmlns:cc="http://web.resource.org/cc/"
   xmlns:rdf="http://www.w3.org/1999/02/22-rdf-syntax-ns#"
   xmlns:svg="http://www.w3.org/2000/svg"
   xmlns="http://www.w3.org/2000/svg"
   xmlns:sodipodi="http://sodipodi.sourceforge.net/DTD/sodipodi-0.dtd"
   xmlns:inkscape="http://www.inkscape.org/namespaces/inkscape"
   version="0.32"
   height="300.00000px"
   width="300.00000px"
   docname="Optimized Model 龍 300px.svg"
   docbase="/home/yug/svg to optized txt"
   id="svg2"
   sodipodi:version="0.32"
   inkscape:version="0.45.1"
   sodipodi:docname="s06579勹-seal.svg"
   sodipodi:docbase="/home/yug/Desktop"
   inkscape:output_extension="org.inkscape.output.svg.inkscape">
  <sodipodi:namedview
     inkscape:window-height="591"
     inkscape:window-width="826"
     inkscape:pageshadow="2"
     inkscape:pageopacity="0.0"
     guidetolerance="10.0"
     gridtolerance="10.0"
     objecttolerance="10.0"
     borderopacity="1.0"
     bordercolor="#666666"
     pagecolor="#ffffff"
     id="base"
     inkscape:zoom="1.26"
     inkscape:cx="162.8684"
     inkscape:cy="163.02756"
     inkscape:window-x="220"
     inkscape:window-y="25"
     inkscape:current-layer="svg2" />
  <namedview
     id="namedview4" />
  <namedview
     id="namedview6" />
  <metadata
     id="metadata8">
    <rdf:RDF>
      <cc:Work
         rdf:about="">
        <dc:format>image/svg+xml</dc:format>
        <dc:type
           rdf:resource="http://purl.org/dc/dcmitype/StillImage" />
      </cc:Work>
    </rdf:RDF>
  </metadata>
  <defs
     id="defs10" />
  <namedview
     document-units="px"
     pageopacity="0.0000000"
     borderopacity="1.0000000"
     id="namedview12" />
  <path
     style="fill:#000000"
     d="M 152.06942,283.94156 C 143.20581,284.17581 138.69189,259.86416 149.39985,247.0495 C 164.66512,228.78092 161.04779,283.70428 152.06942,283.94156 z M 168.95656,193.55221 C 181.39278,193.66978 193.22122,187.37782 196.75598,173.47874 C 201.56183,154.58165 200.87766,112.80457 201.5575,94.242901 C 202.58709,66.13186 168.04259,76.979701 164.32688,65.585594 C 158.25777,46.974819 226.44907,45.525068 224.70876,97.636917 C 224.30144,109.8338 223.41062,167.27436 219.87054,178.92562 C 214.27391,197.34547 193.21479,208.41134 175.7845,213.3195 C 154.97046,219.18048 162.69961,226.50171 157.64998,235.18873 C 138.61025,267.94336 132.44694,193.20707 168.95656,193.55221 z M 77.336771,175.52128 C 74.309708,145.87182 74.427809,115.40994 78.751629,88.204094 C 83.132348,60.640246 134.23171,65.502436 136.21788,44.271118 C 136.8875,37.113148 132.49761,15.73128 148.0508,15.005648 C 162.97081,14.309555 167.9911,78.199088 123.4027,79.666795 C 82.914333,80.999542 90.718503,191.60295 116.31215,190.394 C 142.7093,189.14711 150.82312,207.11438 135.03962,211.53871 C 110.88969,218.30826 80.053447,202.13057 77.336771,175.52128 z "
     id="path2190"
     sodipodi:nodetypes="csscsssssssscsssssss" />
</svg>
